<?xml version="1.0" encoding="utf-8"?>
<!-- Generator: Adobe Illustrator 23.0.6, SVG Export Plug-In . SVG Version: 6.00 Build 0)  -->
<svg version="1.1" id="Vrstva_1" xmlns="http://www.w3.org/2000/svg" xmlns:xlink="http://www.w3.org/1999/xlink" x="0px" y="0px"
	 viewBox="0 0 30 30" style="enable-background:new 0 0 30 30;" xml:space="preserve">
<style type="text/css">
	.st0{fill:#E10F1A;}
</style>
<g>
	<rect x="10.8" y="15.5" class="st0" width="7.6" height="1.1"/>
	<rect x="10.8" y="18.4" class="st0" width="7.6" height="1.1"/>
	<path class="st0" d="M22,11.7l-4.9-4.9H9.6c-1.3,0-2.4,1.1-2.4,2.4v12.1c0,1.3,1.1,2.4,2.4,2.4h10c1.3,0,2.4-1.1,2.4-2.4L22,11.7z
		 M17.2,8.3l3.5,3.5c0,0-1.7,0.1-2.6,0c-0.8,0-1-0.6-1-1S17.2,8.3,17.2,8.3z M19.8,22.6H9.4c-0.6,0-1.1-0.5-1.1-1.1V9.1
		c0-0.6,0.5-1.1,1.1-1.1h6.9c0,0,0,0.1,0,0.1v2.9c0,1,0.8,1.7,1.7,1.7h2.8l0,8.8C20.9,22.1,20.4,22.6,19.8,22.6z"/>
</g>
</svg>
