<?xml version="1.0" encoding="utf-8"?>
<!-- Generator: Adobe Illustrator 25.4.1, SVG Export Plug-In . SVG Version: 6.00 Build 0)  -->
<svg version="1.1" id="Vrstva_1" xmlns="http://www.w3.org/2000/svg" xmlns:xlink="http://www.w3.org/1999/xlink" x="0px" y="0px"
	 viewBox="0 0 30 30" style="enable-background:new 0 0 30 30;" xml:space="preserve">
<style type="text/css">
	.st0{fill:#E10B17;}
</style>
<g>
	<path class="st0" d="M7.6,21.7"/>
	<g>
		<g>
			<path class="st0" d="M20.7,9.1c-0.2-0.5-0.6-0.8-1.1-0.8h-8.9c-0.5,0-1,0.3-1.1,0.8l-1.7,4.8v6.4c0,0.4,0.4,0.8,0.8,0.8h0.8
				c0.4,0,0.8-0.4,0.8-0.8v-0.8H20v0.8c0,0.4,0.4,0.8,0.8,0.8h0.8c0.4,0,0.8-0.4,0.8-0.8v-6.4L20.7,9.1z M21,14v3.8
				c0,0.3-0.2,0.5-0.5,0.5H9.7c-0.3,0-0.5-0.2-0.5-0.5V14l1.5-4.5h8.7L21,14z"/>
			<circle class="st0" cx="11.7" cy="16" r="1.2"/>
			<circle class="st0" cx="18.7" cy="16" r="1.2"/>
		</g>
	</g>
	<path class="st0" d="M7.6,21.7"/>
	<g>
		<g>
			<rect x="8.6" y="12.8" class="st0" width="13" height="1.2"/>
		</g>
	</g>
</g>
</svg>
