<?xml version="1.0" encoding="UTF-8" standalone="no"?>
<!-- Generator: Adobe Illustrator 23.0.6, SVG Export Plug-In . SVG Version: 6.00 Build 0)  -->

<svg
   xmlns:dc="http://purl.org/dc/elements/1.1/"
   xmlns:cc="http://creativecommons.org/ns#"
   xmlns:rdf="http://www.w3.org/1999/02/22-rdf-syntax-ns#"
   xmlns:svg="http://www.w3.org/2000/svg"
   xmlns="http://www.w3.org/2000/svg"
   xmlns:sodipodi="http://sodipodi.sourceforge.net/DTD/sodipodi-0.dtd"
   xmlns:inkscape="http://www.inkscape.org/namespaces/inkscape"
   version="1.1"
   id="Vrstva_1"
   x="0px"
   y="0px"
   viewBox="0 0 30 30"
   style="enable-background:new 0 0 30 30;"
   xml:space="preserve"
   sodipodi:docname="confirm.svg"
   inkscape:version="0.92.4 (5da689c313, 2019-01-14)"><metadata
   id="metadata17"><rdf:RDF><cc:Work
       rdf:about=""><dc:format>image/svg+xml</dc:format><dc:type
         rdf:resource="http://purl.org/dc/dcmitype/StillImage" /><dc:title /></cc:Work></rdf:RDF></metadata><defs
   id="defs15" /><sodipodi:namedview
   pagecolor="#ffffff"
   bordercolor="#666666"
   borderopacity="1"
   objecttolerance="10"
   gridtolerance="10"
   guidetolerance="10"
   inkscape:pageopacity="0"
   inkscape:pageshadow="2"
   inkscape:window-width="1920"
   inkscape:window-height="1017"
   id="namedview13"
   showgrid="false"
   inkscape:zoom="7.8666667"
   inkscape:cx="-6.1536819"
   inkscape:cy="19.053763"
   inkscape:window-x="-8"
   inkscape:window-y="-8"
   inkscape:window-maximized="1"
   inkscape:current-layer="Vrstva_1" />
<style
   type="text/css"
   id="style2">
	.st0{fill:#E10F1A;}
</style>

<style
   id="style824"
   type="text/css">
	.st0{fill:#E10F1A;}
</style><style
   id="style851"
   type="text/css">
	.st0{fill:#E10F1A;}
</style><style
   id="style899"
   type="text/css">
	.st0{fill:#E10F1A;}
</style><style
   id="style921"
   type="text/css">
	.st0{fill:#E10F1A;}
</style><style
   id="style951"
   type="text/css">
	.st0{fill:#E10F1A;}
</style><style
   id="style976"
   type="text/css">
	.st0{fill:#E10F1A;}
</style><style
   id="style998"
   type="text/css">
	.st0{fill:#E10F1A;}
</style><style
   id="style1022"
   type="text/css">
	.st0{fill:#E10F1A;}
</style><style
   id="style1041"
   type="text/css">
	.st0{fill:#E10F1A;}
</style><path
   style="fill:#e30013;stroke-width:0.31763479;fill-opacity:1"
   d="m 14.882837,23.245797 c 0,-0.156219 0.357239,-0.263421 0.793863,-0.238227 1.034839,0.05971 1.035038,0.52226 2.24e-4,0.52226 -0.436747,0 -0.794087,-0.127815 -0.794087,-0.284033 z m -1.554881,-0.378194 c -0.418435,-0.167379 -0.698065,-0.367053 -0.621397,-0.443721 0.22856,-0.228559 1.541009,0.203859 1.541009,0.507724 0,0.154323 -0.03573,0.271529 -0.07941,0.260455 -0.04368,-0.01108 -0.421764,-0.15708 -0.840202,-0.324458 z m 3.619507,-0.290677 c -0.3162,-0.349399 -0.418257,-0.63527 -0.226792,-0.63527 0.191464,0 0.442212,0.152247 0.557214,0.338327 0.136878,0.22147 0.417625,0.149612 0.812834,-0.208048 0.723754,-0.654988 0.818703,-0.07299 0.104596,0.641119 -0.619244,0.619245 -0.558223,0.625901 -1.247852,-0.136128 z m 2.541079,0 c 0.349398,-0.150142 0.849673,-0.280842 1.111722,-0.290446 0.423512,-0.01553 0.423512,0.01675 0,0.290446 -0.262049,0.169348 -0.762324,0.300049 -1.111722,0.290446 l -0.63527,-0.01745 z m 4.288069,-0.317636 c 0.262049,-0.169349 0.690856,-0.307906 0.952904,-0.307906 0.423513,0 0.423513,0.03422 0,0.307906 -0.262048,0.169349 -0.690855,0.307907 -0.952904,0.307907 -0.423513,0 -0.423513,-0.03422 0,-0.307907 z m -2.455553,-0.659279 c -0.03851,-0.511406 0.04416,-0.581421 0.3686,-0.312155 0.230042,0.19092 0.652402,0.257277 0.938573,0.147463 0.385147,-0.147795 0.469293,-0.06671 0.323912,0.312154 -0.296272,0.772072 -1.570495,0.656873 -1.631085,-0.147462 z M 11.064849,21.139893 c -0.613788,-0.739571 -0.175829,-0.878944 0.481062,-0.153088 0.317169,0.350468 0.429085,0.637216 0.248701,0.637216 -0.180384,0 -0.508778,-0.217858 -0.729763,-0.484128 z m 15.075324,-0.0024 c 0.339113,-0.256505 0.759506,-0.466362 0.934205,-0.466362 0.174699,0 0.04017,0.209857 -0.298936,0.46635 -0.339114,0.256492 -0.759506,0.46635 -0.934205,0.46635 -0.174699,0 -0.04018,-0.209858 0.298936,-0.46635 z m -10.304432,-0.088 c 0,-0.141309 0.226072,-0.534382 0.502383,-0.873496 0.459717,-0.564207 0.486693,-0.567157 0.317635,-0.03473 -0.101611,0.320012 -0.184748,0.713084 -0.184748,0.873496 0,0.16041 -0.142935,0.291656 -0.317634,0.291656 -0.174699,0 -0.317636,-0.115617 -0.317636,-0.256926 z M 18.1329,20.353509 c -0.219765,-0.351901 -0.258833,-0.635271 -0.08759,-0.635271 0.170033,0 0.462145,0.285871 0.649136,0.635271 0.186993,0.349398 0.226404,0.635269 0.08759,0.635269 -0.138823,0 -0.430934,-0.285871 -0.649136,-0.635269 z m 6.121925,-0.0019 c 0.317171,-0.350469 0.645564,-0.568326 0.729763,-0.484128 0.213429,0.21342 -0.5788,1.121335 -0.978464,1.121335 -0.180385,0 -0.06847,-0.286748 0.248701,-0.637217 z m -4.232036,-0.474566 c -0.198995,-0.436749 -0.244883,-0.794088 -0.10197,-0.794088 0.142912,0 0.422654,0.357339 0.62165,0.794088 0.198995,0.436748 0.244882,0.794086 0.10197,0.794086 -0.142912,0 -0.422654,-0.357338 -0.62165,-0.794086 z m 8.20071,0.476451 c 0.624306,-0.403459 1.588172,-0.403459 1.588172,0 0,0.174699 -0.46454,0.315446 -1.032312,0.312771 -0.783358,-0.0037 -0.91741,-0.07912 -0.55586,-0.312771 z M 2.5271847,15.038101 C 1.1355512,12.289341 0.03761474,9.9996819 0.08732425,9.9499688 0.13703634,9.9002562 3.4372438,11.005757 7.4211181,12.406637 c 3.9838719,1.40088 7.2925259,2.547055 7.3525619,2.547055 0.06004,0 0.109157,0.124251 0.109157,0.276115 0,0.151864 -0.855096,0.646961 -1.900215,1.100216 -1.78619,0.774648 -1.912516,0.90103 -2.105221,2.106145 -0.112754,0.705125 -0.383642,1.282044 -0.601971,1.282044 -0.6094173,0 -1.1073356,-0.760935 -0.8113237,-1.239892 0.2070382,-0.334996 0.3351148,-0.299264 0.6074407,0.16947 0.300415,0.517081 0.346337,0.461399 0.354746,-0.43015 0.0088,-0.938593 -0.228065,-1.183964 -2.8368704,-2.938121 -1.5655904,-1.052701 -2.9280467,-1.914002 -3.0276785,-1.914002 -0.1376221,0 4.4184552,4.043206 4.8493708,4.303482 0.3280666,0.198156 -0.4318793,1.09631 -0.9276097,1.09631 -0.3376669,0 -1.1742947,0.28587 -1.8591713,0.635268 -0.6848776,0.349399 -1.3176096,0.63527 -1.406068,0.63527 -0.088461,0 -1.2994468,-2.248985 -2.6910812,-4.997746 z m 4.5703578,3.817995 C 8.0643441,18.381932 8.8179229,17.901928 8.7721613,17.78942 8.7264013,17.676911 7.6522934,16.693947 6.3852561,15.605053 5.118218,14.516159 4.1557334,13.505217 4.2464023,13.358512 4.3370713,13.211808 4.2438797,12.98835 4.0393582,12.861936 3.8070974,12.71839 3.7525596,12.769779 3.894107,12.998805 c 0.4218863,0.682629 -0.3305624,0.371869 -1.1054321,-0.45654 -1.91252687,-2.044676 -1.85136979,-1.345204 0.2512619,2.87373 1.1792761,2.366219 2.1791583,4.302217 2.22196,4.302217 0.042808,0 0.8688424,-0.387952 1.8356457,-0.862116 z M 12.49208,16.160937 c 0.790819,-0.38421 1.437853,-0.779557 1.437853,-0.878549 0,-0.20817 -11.166574,-4.196835 -11.3199565,-4.043452 -0.1256465,0.125646 7.8946725,5.608343 8.2145215,5.615455 0.12635,0.0028 0.876762,-0.309244 1.667582,-0.693454 z M 11.494628,15.015353 C 10.28219,14.522426 9.0126156,13.673892 10.118317,14.09548 c 0.262048,0.09992 1.01246,0.356512 1.667582,0.570215 0.655121,0.213703 1.19113,0.508863 1.19113,0.655908 0,0.322162 0.128673,0.348745 -1.482401,-0.30625 z M 8.2125073,13.683152 C 7.9504588,13.513804 7.878991,13.375245 8.0536903,13.375245 c 0.1746994,0 0.5320383,0.138559 0.7940868,0.307907 0.2620485,0.169349 0.3335163,0.307907 0.1588178,0.307907 -0.1746992,0 -0.532039,-0.138558 -0.7940876,-0.307907 z m 16.8346437,4.605703 c 0,-0.473502 0.136772,-0.747047 0.317634,-0.635269 0.409621,0.253159 0.409621,1.017379 0,1.270539 -0.180862,0.111779 -0.317634,-0.161767 -0.317634,-0.63527 z m -5.388537,-0.177516 c -0.0062,-0.272332 0.198603,-0.772608 0.455095,-1.111721 0.597228,-0.789607 0.604227,-0.226528 0.0101,0.812786 -0.290964,0.508987 -0.457983,0.616313 -0.465199,0.298935 z m 4.435632,-1.887109 c -0.436748,-0.34163 -0.637571,-0.624323 -0.446274,-0.628206 0.191298,-0.0039 0.606525,0.278808 0.922726,0.628206 0.724258,0.800296 0.546668,0.800296 -0.476452,0 z M 21.01966,15.998914 c 0.271355,-0.439063 1.486412,-0.749867 1.486412,-0.380216 0,0.158343 -0.131245,0.287897 -0.291656,0.287897 -0.16041,0 -0.541198,0.09576 -0.846194,0.212796 -0.348708,0.133812 -0.478084,0.08909 -0.348562,-0.120477 z"
   id="path835"
   inkscape:connector-curvature="0" /></svg>