<?xml version="1.0" encoding="utf-8"?>
<!-- Generator: Adobe Illustrator 24.2.0, SVG Export Plug-In . SVG Version: 6.00 Build 0)  -->
<svg version="1.1" id="Vrstva_1" xmlns="http://www.w3.org/2000/svg" xmlns:xlink="http://www.w3.org/1999/xlink" x="0px" y="0px"
	 viewBox="0 0 70 70" style="enable-background:new 0 0 70 70;" xml:space="preserve">
<style type="text/css">
	.st0{fill:#E10F1A;}
</style>
<path id="Path_3376" class="st0" d="M61.5,56.1l-3.9,3.9L39.8,42.3l3.9-3.9L61.5,56.1z M39.8,10.5c-7.4,0-14.5,2.9-19.7,8.1l0,0
	C9.2,29.5,9.2,47.2,20.1,58l39.4-39.4C54.2,13.4,47.1,10.5,39.8,10.5z M20.5,49.8c-2.1-3.5-3.1-7.4-3.1-11.4c0-2.5,0.4-5,1.3-7.4
	c0.6,5.4,2.5,10.6,5.7,15L20.5,49.8z M28.3,42c-3.7-5.5-5.1-12.3-3.8-18.8c1.6-0.3,3.2-0.5,4.8-0.5c5,0,9.9,1.5,14,4.3L28.3,42z
	 M32.4,17.2c2.4-0.8,4.9-1.3,7.4-1.3c4,0,8,1.1,11.4,3.1l-3.8,3.8C43,19.8,37.8,17.8,32.4,17.2L32.4,17.2z"/>
</svg>
