<?xml version="1.0" encoding="UTF-8" standalone="no"?>
<svg
   xmlns:dc="http://purl.org/dc/elements/1.1/"
   xmlns:cc="http://creativecommons.org/ns#"
   xmlns:rdf="http://www.w3.org/1999/02/22-rdf-syntax-ns#"
   xmlns:svg="http://www.w3.org/2000/svg"
   xmlns="http://www.w3.org/2000/svg"
   xmlns:sodipodi="http://sodipodi.sourceforge.net/DTD/sodipodi-0.dtd"
   xmlns:inkscape="http://www.inkscape.org/namespaces/inkscape"
   version="1.1"
   id="svg2"
   xml:space="preserve"
   width="109.6"
   height="109.64"
   viewBox="0 0 109.6 109.64"
   sodipodi:docname="facebook.eps"><metadata
     id="metadata8"><rdf:RDF><cc:Work
         rdf:about=""><dc:format>image/svg+xml</dc:format><dc:type
           rdf:resource="http://purl.org/dc/dcmitype/StillImage" /></cc:Work></rdf:RDF></metadata><defs
     id="defs6" /><sodipodi:namedview
     pagecolor="#ffffff"
     bordercolor="#666666"
     borderopacity="1"
     objecttolerance="10"
     gridtolerance="10"
     guidetolerance="10"
     inkscape:pageopacity="0"
     inkscape:pageshadow="2"
     inkscape:window-width="640"
     inkscape:window-height="480"
     id="namedview4" /><g
     id="g10"
     inkscape:groupmode="layer"
     inkscape:label="ink_ext_XXXXXX"
     transform="matrix(1.3333333,0,0,-1.3333333,0,109.64)"><g
       id="g12"
       transform="scale(0.1)"><path
         d="m 560.293,90.3672 c 0,107.7848 0,215.0708 0,323.2778 29.988,0 58.984,0 88.582,0 3.926,37.543 7.766,74.234 11.719,112.082 -34.434,0 -67.09,0 -100.399,0 0.371,25.718 -0.761,50.492 1.602,75.156 1.101,11.453 7.84,19.164 19.355,22.269 12.125,3.27 24.508,2.86 36.875,2.899 13.789,0.051 27.578,0.015 41.59,0.015 0,37.649 0,74.075 0,111.661 -44.504,-1.485 -89.012,4.437 -132.597,-4.473 -59.082,-12.078 -85.774,-41.363 -96.075,-101.07 -5.41,-31.325 -2.531,-63.012 -3.222,-94.539 -0.086,-3.907 0.937,-7.965 -1.387,-12.79 -21.156,0 -42.641,0 -64.297,0 0,-37.445 0,-73.82 0,-111.242 22.051,0 43.527,0 65.859,0 0,-108.343 0,-215.629 0,-323.2458 44.383,0 87.872,0 132.395,0 z M 411,0.171875 c -96.301,0 -192.598,-0.351563 -288.891,0.136719 C 64.543,0.59375 16.8008,39.3633 3.17188,95.3086 0.886719,104.676 0.0195313,114.188 0.0234375,123.836 0.0507813,315.211 -0.09375,506.594 0.117188,697.977 0.1875,767.809 53.6445,821.875 123.48,822.012 c 191.665,0.379 383.336,0.379 574.997,0 69.882,-0.137 123.289,-54.051 123.378,-124.016 0.254,-191.383 0.274,-382.766 -0.011,-574.141 C 821.738,54.4492 768.32,0.671875 698.965,0.28125 602.977,-0.257813 506.988,0.144531 411,0.144531 c 0,0.007813 0,0.019532 0,0.027344"
         style="fill:#989ba0;fill-opacity:1;fill-rule:nonzero;stroke:none"
         id="path14" /><path
         d="m 560.293,90.3672 c -44.523,0 -88.012,0 -132.395,0 0,107.6168 0,214.9028 0,323.2458 -22.332,0 -43.808,0 -65.859,0 0,37.422 0,73.797 0,111.242 21.656,0 43.141,0 64.297,0 2.324,4.825 1.301,8.883 1.387,12.79 0.691,31.527 -2.188,63.214 3.222,94.539 10.301,59.707 36.993,88.992 96.075,101.07 43.585,8.91 88.093,2.988 132.597,4.473 0,-37.586 0,-74.012 0,-111.661 -14.012,0 -27.801,0.036 -41.59,-0.015 -12.367,-0.039 -24.75,0.371 -36.875,-2.899 -11.515,-3.105 -18.254,-10.816 -19.355,-22.269 -2.363,-24.664 -1.231,-49.438 -1.602,-75.156 33.309,0 65.965,0 100.399,0 -3.953,-37.848 -7.793,-74.539 -11.719,-112.082 -29.598,0 -58.594,0 -88.582,0 0,-108.207 0,-215.493 0,-323.2778"
         style="fill:#fdfcfe;fill-opacity:1;fill-rule:nonzero;stroke:none"
         id="path16" /></g></g></svg>
