<?xml version="1.0" encoding="utf-8"?>
<!-- Generator: Adobe Illustrator 23.0.6, SVG Export Plug-In . SVG Version: 6.00 Build 0)  -->
<svg version="1.1" id="Vrstva_1" xmlns="http://www.w3.org/2000/svg" xmlns:xlink="http://www.w3.org/1999/xlink" x="0px" y="0px"
	 viewBox="0 0 30 30" style="enable-background:new 0 0 30 30;" xml:space="preserve">
<style type="text/css">
	.st0{fill:#E10F1A;}
</style>
<path class="st0" d="M21,7.3h-12C8,7.3,7.2,8,7.2,9v12c0,0.9,0.8,1.7,1.7,1.7h12c0.9,0,1.7-0.8,1.7-1.7V9C22.7,8,21.9,7.3,21,7.3z
	 M21.6,21c0,0.3-0.3,0.6-0.6,0.6h-12c-0.3,0-0.6-0.3-0.6-0.6V9c0-0.3,0.3-0.6,0.6-0.6h12c0.3,0,0.6,0.3,0.6,0.6V21z"/>
<rect x="9.6" y="17.7" transform="matrix(6.123234e-17 -1 1 6.123234e-17 -6.8713 29.713)" class="st0" width="3.7" height="1.2"/>
<rect x="9.9" y="15.4" transform="matrix(6.123234e-17 -1 1 6.123234e-17 -1.9597 30.0466)" class="st0" width="8.3" height="1.2"/>
<rect x="13.6" y="16.5" transform="matrix(6.123234e-17 -1 1 6.123234e-17 -0.4177 33.7499)" class="st0" width="6.1" height="1.2"/>
<rect x="18.2" y="18.5" transform="matrix(6.123234e-17 -1 1 6.123234e-17 0.2211 38.3564)" class="st0" width="2.2" height="1.2"/>
</svg>
