<?xml version="1.0" encoding="UTF-8" standalone="no"?>
<svg
   xmlns:dc="http://purl.org/dc/elements/1.1/"
   xmlns:cc="http://creativecommons.org/ns#"
   xmlns:rdf="http://www.w3.org/1999/02/22-rdf-syntax-ns#"
   xmlns:svg="http://www.w3.org/2000/svg"
   xmlns="http://www.w3.org/2000/svg"
   xmlns:sodipodi="http://sodipodi.sourceforge.net/DTD/sodipodi-0.dtd"
   xmlns:inkscape="http://www.inkscape.org/namespaces/inkscape"
   version="1.1"
   id="svg2"
   xml:space="preserve"
   width="109.6"
   height="109.6"
   viewBox="0 0 109.6 109.6"
   sodipodi:docname="instagram.eps"><metadata
     id="metadata8"><rdf:RDF><cc:Work
         rdf:about=""><dc:format>image/svg+xml</dc:format><dc:type
           rdf:resource="http://purl.org/dc/dcmitype/StillImage" /></cc:Work></rdf:RDF></metadata><defs
     id="defs6" /><sodipodi:namedview
     pagecolor="#ffffff"
     bordercolor="#666666"
     borderopacity="1"
     objecttolerance="10"
     gridtolerance="10"
     guidetolerance="10"
     inkscape:pageopacity="0"
     inkscape:pageshadow="2"
     inkscape:window-width="640"
     inkscape:window-height="480"
     id="namedview4" /><g
     id="g10"
     inkscape:groupmode="layer"
     inkscape:label="ink_ext_XXXXXX"
     transform="matrix(1.3333333,0,0,-1.3333333,0,109.6)"><g
       id="g12"
       transform="scale(0.1)"><path
         d="M 143.891,0 H 678.16 c 79.465,0 143.891,64.4219 143.891,143.887 V 678.16 c 0,79.465 -64.426,143.887 -143.891,143.887 H 138.02 C 61.7969,822.047 0,760.254 0,684.027 V 143.887 C 0,64.4219 64.4219,0 143.891,0"
         style="fill:#989ba0;fill-opacity:1;fill-rule:nonzero;stroke:none"
         id="path14" /><path
         d="m 268.617,661.891 c -59.121,0 -107.222,-48.102 -107.222,-107.223 V 275.469 c 0,-59.121 48.101,-107.219 107.222,-107.219 h 283.852 c 59.121,0 107.219,48.098 107.219,107.219 v 279.199 c 0,59.121 -48.098,107.223 -107.219,107.223 z M 552.469,108.145 H 268.617 c -92.265,0 -167.332,75.058 -167.332,167.324 v 279.199 c 0,92.266 75.067,167.324 167.332,167.324 h 283.852 c 92.265,0 167.324,-75.058 167.324,-167.324 V 275.469 c 0,-92.266 -75.059,-167.324 -167.324,-167.324"
         style="fill:#ffffff;fill-opacity:1;fill-rule:nonzero;stroke:none"
         id="path16" /><path
         d="m 410.539,530.59 c -63.699,0 -115.519,-51.82 -115.519,-115.524 0,-63.699 51.82,-115.523 115.519,-115.523 63.707,0 115.524,51.824 115.524,115.523 0,63.704 -51.817,115.524 -115.524,115.524 z m 0,-277.133 c -89.105,0 -161.605,72.5 -161.605,161.609 0,89.11 72.5,161.61 161.605,161.61 89.109,0 161.609,-72.5 161.609,-161.61 0,-89.109 -72.5,-161.609 -161.609,-161.609"
         style="fill:#ffffff;fill-opacity:1;fill-rule:nonzero;stroke:none"
         id="path18" /><path
         d="m 606.758,590.34 c 0,-14.848 -12.043,-26.883 -26.887,-26.883 -14.851,0 -26.883,12.035 -26.883,26.883 0,14.851 12.032,26.887 26.883,26.887 14.844,0 26.887,-12.036 26.887,-26.887"
         style="fill:#ffffff;fill-opacity:1;fill-rule:nonzero;stroke:none"
         id="path20" /></g></g></svg>
