<?xml version="1.0" encoding="utf-8"?>
<!-- Generator: Adobe Illustrator 23.0.6, SVG Export Plug-In . SVG Version: 6.00 Build 0)  -->
<svg version="1.1" id="Vrstva_1" xmlns="http://www.w3.org/2000/svg" xmlns:xlink="http://www.w3.org/1999/xlink" x="0px" y="0px"
	 viewBox="0 0 30 30" style="enable-background:new 0 0 30 30;" xml:space="preserve">
<style type="text/css">
	.st0{fill:#E10F1A;}
</style>
<rect x="13" y="14.1" class="st0" width="3.7" height="0.9"/>
<rect x="7.5" y="11.6" class="st0" width="2.7" height="0.9"/>
<rect x="7.5" y="15.4" class="st0" width="2.7" height="0.9"/>
<rect x="7.5" y="19" class="st0" width="2.7" height="0.9"/>
<rect x="10.7" y="7.8" transform="matrix(0.7071 0.7071 -0.7071 0.7071 9.3784 -6.0934)" class="st0" width="2.7" height="0.9"/>
<g>
	
		<rect x="19.6" y="11.6" transform="matrix(-1 -4.567603e-11 4.567603e-11 -1 42.032 24.1739)" class="st0" width="2.7" height="0.9"/>
	
		<rect x="19.6" y="15.4" transform="matrix(-1 -4.501389e-11 4.501389e-11 -1 42.032 31.695)" class="st0" width="2.7" height="0.9"/>
	
		<rect x="19.6" y="19" transform="matrix(-1 -4.501389e-11 4.501389e-11 -1 42.032 38.8563)" class="st0" width="2.7" height="0.9"/>
	<rect x="16.5" y="7.8" transform="matrix(-0.7071 0.7071 -0.7071 -0.7071 36.3648 1.4853)" class="st0" width="2.7" height="0.9"/>
</g>
<rect x="13" y="17.3" class="st0" width="3.7" height="0.9"/>
<path class="st0" d="M15,23c-2.9,0-5.2-2.3-5.2-5.2v-4.1c0-2.9,2.3-5.2,5.2-5.2s5.2,2.3,5.2,5.2v4.1C20.2,20.7,17.8,23,15,23z
	 M15,9.6c-2.3,0-4.1,1.8-4.1,4.1v4c0,2.3,1.8,4.1,4.1,4.1s4.1-1.8,4.1-4.1v-4C19.1,11.5,17.2,9.6,15,9.6z"/>
</svg>
