<svg id="Component_15_35" data-name="Component 15 – 35" xmlns="http://www.w3.org/2000/svg" width="26.772" height="28" viewBox="0 0 26.772 28">
  <g id="Group_1004" data-name="Group 1004">
    <path id="Path_1755" data-name="Path 1755" d="M32.86,10.5H31.219V8.586a1.228,1.228,0,0,0-2.455,0V10.5H26.917V8.586a1.228,1.228,0,0,0-2.455,0V10.5H22.614V8.586a1.228,1.228,0,0,0-2.455,0V10.5H18.311V8.586a1.228,1.228,0,0,0-2.455,0V10.5H14.008V8.586a1.228,1.228,0,0,0-2.455,0V10.5H9.912A1.913,1.913,0,0,0,8,12.41V33.446a1.913,1.913,0,0,0,1.912,1.912H32.86a1.913,1.913,0,0,0,1.912-1.912V12.41A1.913,1.913,0,0,0,32.86,10.5ZM32.319,32.9H10.453V20.17H32.319ZM10.453,17.717V12.952H32.319v4.765Z" transform="translate(-8 -7.358)" fill="#e10b17"/>
    <rect id="Rectangle_1037" data-name="Rectangle 1037" width="3.06" height="3.06" transform="translate(3.825 14.614)" fill="#e10b17"/>
    <rect id="Rectangle_1038" data-name="Rectangle 1038" width="3.06" height="3.06" transform="translate(8.414 14.614)" fill="#e10b17"/>
    <rect id="Rectangle_1039" data-name="Rectangle 1039" width="3.059" height="3.06" transform="translate(13.004 14.614)" fill="#e10b17"/>
    <rect id="Rectangle_1040" data-name="Rectangle 1040" width="3.06" height="3.06" transform="translate(17.593 14.614)" fill="#e10b17"/>
    <rect id="Rectangle_1041" data-name="Rectangle 1041" width="3.06" height="3.06" transform="translate(3.825 19.203)" fill="#e10b17"/>
    <rect id="Rectangle_1042" data-name="Rectangle 1042" width="3.06" height="3.06" transform="translate(8.414 19.203)" fill="#e10b17"/>
    <rect id="Rectangle_1043" data-name="Rectangle 1043" width="3.059" height="3.06" transform="translate(13.004 19.203)" fill="#e10b17"/>
  </g>
</svg>
