<svg xmlns="http://www.w3.org/2000/svg" width="12.393" height="12.961" viewBox="0 0 12.393 12.961">
  <g id="Group_1281" data-name="Group 1281" transform="translate(-8 -7.358)">
    <path id="Path_1755" data-name="Path 1755" d="M19.508,8.812h-.76V7.926a.568.568,0,1,0-1.137,0v.885h-.855V7.926a.568.568,0,1,0-1.137,0v.885h-.855V7.926a.568.568,0,0,0-1.137,0v.885h-.855V7.926a.568.568,0,0,0-1.137,0v.885h-.855V7.926a.568.568,0,0,0-1.137,0v.885h-.76A.886.886,0,0,0,8,9.7v9.737a.886.886,0,0,0,.885.885H19.508a.886.886,0,0,0,.885-.885V9.7A.886.886,0,0,0,19.508,8.812Zm-.251,10.372H9.136V13.289H19.257ZM9.136,12.153V9.947H19.257v2.206Z" transform="translate(0 0)" fill="#e10b17"/>
    <rect id="Rectangle_1037" data-name="Rectangle 1037" width="1.416" height="1.416" transform="translate(9.77 14.123)" fill="#e10b17"/>
    <rect id="Rectangle_1038" data-name="Rectangle 1038" width="1.416" height="1.416" transform="translate(11.895 14.123)" fill="#e10b17"/>
    <rect id="Rectangle_1039" data-name="Rectangle 1039" width="1.416" height="1.416" transform="translate(14.019 14.123)" fill="#e10b17"/>
    <rect id="Rectangle_1040" data-name="Rectangle 1040" width="1.416" height="1.416" transform="translate(16.144 14.123)" fill="#e10b17"/>
    <rect id="Rectangle_1041" data-name="Rectangle 1041" width="1.416" height="1.416" transform="translate(9.77 16.247)" fill="#e10b17"/>
    <rect id="Rectangle_1042" data-name="Rectangle 1042" width="1.416" height="1.416" transform="translate(11.895 16.247)" fill="#e10b17"/>
    <rect id="Rectangle_1043" data-name="Rectangle 1043" width="1.416" height="1.416" transform="translate(14.019 16.247)" fill="#e10b17"/>
  </g>
</svg>
