<?xml version="1.0" encoding="utf-8"?>
<!-- Generator: Adobe Illustrator 25.4.1, SVG Export Plug-In . SVG Version: 6.00 Build 0)  -->
<svg version="1.1" id="Vrstva_1" xmlns="http://www.w3.org/2000/svg" xmlns:xlink="http://www.w3.org/1999/xlink" x="0px" y="0px"
	 viewBox="0 0 30 30" style="enable-background:new 0 0 30 30;" xml:space="preserve">
<style type="text/css">
	.st0{fill:#E10F1A;}
	.st1{fill:#E10B17;}
</style>
<g>
	<path class="st0" d="M8.1,21.1"/>
	<g>
		<circle class="st1" cx="16.1" cy="19.1" r="0.8"/>
		<circle class="st1" cx="19.6" cy="19.1" r="0.8"/>
		<path class="st1" d="M21.9,13.9c0-0.5-0.4-0.9-0.9-0.9h-6.3c-0.5,0-0.9,0.4-0.9,0.9h0c0,0,0,0.1,0,0.1v5.8c0,0.4,0.2,0.8,0.5,1.1
			v0.9c0,0.3,0.2,0.5,0.5,0.5h0.5c0.3,0,0.5-0.2,0.5-0.5v-0.5h4.1v0.5c0,0.3,0.2,0.5,0.5,0.5h0.5c0.3,0,0.5-0.2,0.5-0.5v-0.9
			c0.3-0.3,0.5-0.7,0.5-1.1V14C21.9,14,21.9,13.9,21.9,13.9z M20.9,19.8c0,0.2-0.1,0.3-0.2,0.4l-0.1,0.1h-5.4L15,20.2
			c-0.1-0.1-0.2-0.2-0.2-0.4v-2h6.1V19.8z M20.9,16v0.8h-6.1V16v-1v-1h6.1v1V16z"/>
	</g>
	<g>
		<polygon class="st1" points="9.6,22.4 8.5,22.4 8.5,10.5 14.2,7.7 19.9,10.5 19.9,12.3 18.8,12.3 18.8,11.2 14.2,8.9 9.6,11.2 		
			"/>
	</g>
</g>
</svg>
