<?xml version="1.0" encoding="utf-8"?>
<!-- Generator: Adobe Illustrator 25.2.1, SVG Export Plug-In . SVG Version: 6.00 Build 0)  -->
<svg version="1.1" id="Vrstva_1" xmlns="http://www.w3.org/2000/svg" xmlns:xlink="http://www.w3.org/1999/xlink" x="0px" y="0px"
	 viewBox="0 0 30 30" style="enable-background:new 0 0 30 30;" xml:space="preserve">
<style type="text/css">
	.st0{fill:#E10B17;}
	.st1{fill:none;stroke:#E10B17;stroke-width:1.2;stroke-miterlimit:10;}
</style>
<g>
	<path class="st0" d="M15,7.7c0.8,0,1.4,0.6,1.4,1.4s-0.6,1.4-1.4,1.4s-1.4-0.6-1.4-1.4S14.2,7.7,15,7.7 M15,6.7
		c-1.3,0-2.4,1.1-2.4,2.4s1.1,2.4,2.4,2.4s2.4-1.1,2.4-2.4S16.3,6.7,15,6.7L15,6.7z"/>
</g>
<g>
	<path class="st0" d="M10.3,19.7v2.7H7.6v-2.7H10.3 M11.3,18.7H6.6v4.7h4.7V18.7L11.3,18.7z"/>
</g>
<g>
	<path class="st0" d="M22.4,19.7v2.7h-2.7v-2.7H22.4 M23.4,18.7h-4.7v4.7h4.7V18.7L23.4,18.7z"/>
</g>
<polyline class="st1" points="10.3,19.7 15,15.5 19.7,19.7 "/>
<line class="st1" x1="15" y1="15.8" x2="15" y2="11.2"/>
</svg>
