<?xml version="1.0" encoding="utf-8"?>
<!-- Generator: Adobe Illustrator 25.4.1, SVG Export Plug-In . SVG Version: 6.00 Build 0)  -->
<svg version="1.1" id="Vrstva_1" xmlns="http://www.w3.org/2000/svg" xmlns:xlink="http://www.w3.org/1999/xlink" x="0px" y="0px"
	 viewBox="0 0 30 30" style="enable-background:new 0 0 30 30;" xml:space="preserve">
<style type="text/css">
	.st0{fill:#E10F1A;}
</style>
<g>
	<g>
		<path class="st0" d="M18.6,15.9c1.1,0.7,1.8,1.7,1.8,3v2.3h3.1v-2.3C23.5,17.2,20.7,16.2,18.6,15.9z"/>
		<path class="st0" d="M17.3,15c1.7,0,3.1-1.4,3.1-3.1S19,8.8,17.3,8.8c-0.4,0-0.7,0.1-1,0.2c0.6,0.8,1,1.8,1,2.9s-0.4,2.1-1,2.9
			C16.6,14.9,17,15,17.3,15z"/>
		<path class="st0" d="M12.7,15c1.7,0,3.1-1.4,3.1-3.1s-1.4-3.1-3.1-3.1s-3.1,1.4-3.1,3.1S11,15,12.7,15z M12.7,10c1.1,0,2,0.9,2,2
			s-0.9,2-2,2s-2-0.9-2-2S11.6,10,12.7,10z"/>
		<path class="st0" d="M12.7,15.8c-2.1,0-6.2,1-6.2,3.1v2.3h12.4v-2.3C18.9,16.8,14.7,15.8,12.7,15.8z M17.5,20H7.9v-1
			c0.2-0.7,1.6-2,4.8-2c3.8,0,4.7,1.3,4.8,2V20z"/>
	</g>
</g>
</svg>
