<?xml version="1.0" encoding="utf-8"?>
<!-- Generator: Adobe Illustrator 23.0.6, SVG Export Plug-In . SVG Version: 6.00 Build 0)  -->
<svg version="1.1" id="Vrstva_1" xmlns="http://www.w3.org/2000/svg" xmlns:xlink="http://www.w3.org/1999/xlink" x="0px" y="0px"
	 viewBox="0 0 30 30" style="enable-background:new 0 0 30 30;" xml:space="preserve">
<style type="text/css">
	.st0{fill:#E10F1A;}
</style>
<g id="Group_727" transform="translate(-1783.249 70.613)">
	<path class="st0" d="M1797.7-51.6c-1.3,0-2.4,0-2.8,0c-0.8,0-1.1-0.4-1.3-0.7c-0.2-0.4-0.2-0.9,0.1-1.5c0.2-0.4,0.7-1.3,1-1.8
		l-2.7-5.9h-1.5v-1.3h2.4l3.4,7.2l-0.1,0.3c0,0-0.8,1.6-1.2,2.2c0,0.1-0.1,0.1-0.1,0.2c0,0,0.1,0,0.2,0c0.7,0,6,0,8.8,0l0,1.3
		C1803.6-51.7,1800.3-51.6,1797.7-51.6z"/>
	<path class="st0" d="M1795.4-55v-1.3h6c0.1,0,0.2-0.1,0.3-0.2c0.1-0.2,1.1-2.1,1.7-3.4h-10v-1.3h11.1c0.2,0,0.4,0.1,0.6,0.3
		c0.1,0.2,0.1,0.4,0,0.6c-0.1,0.2-2.1,4.2-2.2,4.4c-0.3,0.5-0.8,0.8-1.4,0.9L1795.4-55z"/>
	<circle id="Ellipse_34" class="st0" cx="1794.5" cy="-49.7" r="1.3"/>
	<circle id="Ellipse_35" class="st0" cx="1803" cy="-49.7" r="1.3"/>
</g>
</svg>
