<svg xmlns="http://www.w3.org/2000/svg" width="15" height="12" viewBox="0 0 15 12">
  <g id="Group_1282" data-name="Group 1282" transform="translate(-748 -579)">
    <g id="Rectangle_1087" data-name="Rectangle 1087" transform="translate(748 579)" fill="#f8f8f8" stroke="#e10b17" stroke-linejoin="round" stroke-width="1">
      <rect width="14" height="12" stroke="none"/>
      <rect x="0.5" y="0.5" width="13" height="11" fill="none"/>
    </g>
    <g id="Rectangle_1088" data-name="Rectangle 1088" transform="translate(755 582)" fill="#f8f8f8" stroke="#e10b17" stroke-linejoin="round" stroke-width="1">
      <path d="M3,0H8A0,0,0,0,1,8,0V6A0,0,0,0,1,8,6H3A3,3,0,0,1,0,3V3A3,3,0,0,1,3,0Z" stroke="none"/>
      <path d="M3,.5H7a.5.5,0,0,1,.5.5V5a.5.5,0,0,1-.5.5H3A2.5,2.5,0,0,1,.5,3V3A2.5,2.5,0,0,1,3,.5Z" fill="none"/>
    </g>
    <circle id="Ellipse_40" data-name="Ellipse 40" cx="1" cy="1" r="1" transform="translate(757 584)" fill="#e10b17"/>
  </g>
</svg>
