<?xml version="1.0" encoding="utf-8"?>
<!-- Generator: Adobe Illustrator 23.0.6, SVG Export Plug-In . SVG Version: 6.00 Build 0)  -->
<svg version="1.1" id="Vrstva_1" xmlns="http://www.w3.org/2000/svg" xmlns:xlink="http://www.w3.org/1999/xlink" x="0px" y="0px"
	 viewBox="0 0 30 30" style="enable-background:new 0 0 30 30;" xml:space="preserve">
<style type="text/css">
	.st0{fill:#E10F1A;}
</style>
<g>
	<path class="st0" d="M13.8,14.2c1.7,0,3.2-1.4,3.2-3.2s-1.4-3.2-3.2-3.2s-3.2,1.4-3.2,3.2S12.1,14.2,13.8,14.2z M13.8,9.1
		c1.1,0,2,0.9,2,2c0,1.1-0.9,2-2,2s-2-0.9-2-2C11.8,10,12.7,9.1,13.8,9.1z"/>
	<path class="st0" d="M8.8,19.4v-0.8c0.2-0.5,2.1-1.6,4.6-1.6l1.2-1.2c-0.3,0-0.5,0-0.8,0c-2.1,0-6.3,1.1-6.3,3.2v1.6h7.1l-1.1-1.1
		L8.8,19.4z"/>
</g>
<polygon class="st0" points="21.5,14.8 17,19.3 14.8,17.2 13.8,18.1 16,20.3 17,21.3 22.4,15.8 "/>
</svg>
