<?xml version="1.0" encoding="utf-8"?>
<!-- Generator: Adobe Illustrator 25.4.1, SVG Export Plug-In . SVG Version: 6.00 Build 0)  -->
<svg version="1.1" id="Vrstva_1" xmlns="http://www.w3.org/2000/svg" xmlns:xlink="http://www.w3.org/1999/xlink" x="0px" y="0px"
	 viewBox="0 0 30 30" style="enable-background:new 0 0 30 30;" xml:space="preserve">
<style type="text/css">
	.st0{fill:#E10B17;}
</style>
<g>
	<g>
		<g>
			<path class="st0" d="M20.1,21.9H9.9c-0.8,0-1.5-0.7-1.5-1.5v-5.1h1.2v5.1c0,0.2,0.1,0.3,0.3,0.3h10.1c0.2,0,0.3-0.1,0.3-0.3v-5.1
				h1.2v5.1C21.6,21.2,20.9,21.9,20.1,21.9z"/>
		</g>
		<g>
			<path class="st0" d="M17.6,10.7h-1.2V9.3h-2.8v1.4h-1.2V9c0-0.5,0.4-0.9,0.9-0.9h3.4c0.5,0,0.9,0.4,0.9,0.9V10.7z"/>
		</g>
		<path class="st0" d="M21.1,10.3H8.9c-0.5,0-0.9,0.4-0.9,0.9v4.1c0,0.5,0.4,0.9,0.9,0.9H13v-1.2H9.2v-3.6h11.6v3.6H17v1.2h4.1
			c0.5,0,0.9-0.4,0.9-0.9v-4.1C22,10.7,21.6,10.3,21.1,10.3z"/>
	</g>
	<g>
		<path class="st0" d="M17,17.9h-4c-0.3,0-0.6-0.3-0.6-0.6v-3c0-0.3,0.3-0.6,0.6-0.6h4c0.3,0,0.6,0.3,0.6,0.6v3
			C17.6,17.6,17.3,17.9,17,17.9z M13.6,16.7h2.8v-1.8h-2.8V16.7z"/>
	</g>
</g>
</svg>
