<?xml version="1.0" encoding="utf-8"?>
<!-- Generator: Adobe Illustrator 25.2.1, SVG Export Plug-In . SVG Version: 6.00 Build 0)  -->
<svg version="1.1" id="Vrstva_1" xmlns="http://www.w3.org/2000/svg" xmlns:xlink="http://www.w3.org/1999/xlink" x="0px" y="0px"
	 viewBox="0 0 30 30" style="enable-background:new 0 0 30 30;" xml:space="preserve">
<style type="text/css">
	.st0{fill:#E10B17;}
	.st1{fill:none;stroke:#E10B17;stroke-miterlimit:10;}
	.st2{fill:#FFFFFF;}
</style>
<path class="st0" d="M15.8,6.6c0-0.1,0-0.2,0-0.4c0-1-0.9-1.8-1.8-1.8s-1.8,0.9-1.8,1.8c0,0.1,0,0.2,0,0.4H15.8z"/>
<g id="Vrstva_2_1_">
	<g id="Vrstva_8">
		<path class="st0" d="M22.9,19.8l-1-0.8c0-0.1,0-0.3,0-0.4s0-0.3,0-0.4l0.9-0.8c0.1-0.1,0.1-0.2,0.1-0.3L22,15.6
			c-0.1-0.1-0.2-0.1-0.3-0.1l-1,0.5c-0.2-0.2-0.5-0.3-0.8-0.4l-0.2-1.2c0-0.1-0.1-0.2-0.2-0.2h-1.8c-0.1,0-0.2,0.1-0.2,0.2l-0.2,1.2
			c-0.3,0.1-0.5,0.3-0.8,0.4l-1.1-0.4c-0.1,0-0.2,0-0.3,0.1l-0.9,1.5c-0.1,0.1,0,0.2,0.1,0.3l0.9,0.8c0,0.1,0,0.3,0,0.4s0,0.3,0,0.4
			l-0.9,0.8c-0.1,0.1-0.1,0.2-0.1,0.3l0.9,1.5c0.1,0.1,0.2,0.1,0.3,0.1l1.1-0.4c0.2,0.2,0.5,0.3,0.8,0.4l0.2,1.2
			c0,0.1,0.1,0.2,0.2,0.2h1.8c0.1,0,0.2-0.1,0.2-0.2l0.2-1.2c0.3-0.1,0.5-0.3,0.8-0.4l1.1,0.4c0.1,0,0.2,0,0.3-0.1l0.9-1.5
			C23,20,23,19.9,22.9,19.8z M18.6,21.5c-1.6,0-2.9-1.3-2.9-2.9s1.3-2.9,2.9-2.9s2.9,1.3,2.9,2.9l0,0C21.5,20.3,20.2,21.5,18.6,21.5
			L18.6,21.5z"/>
		<path class="st0" d="M19.8,6.5H8.4C7.5,6.5,7,7,7,8v14c0,1,0.5,1.4,1.4,1.4h0.3h5.4c-0.5-0.5-0.5-0.6-0.8-1.1H8.1V7.6h2.5h7.1h2.5
			v5.2c0.6,0.2,0.6,0.2,1.1,0.5V8C21.2,7.1,20.8,6.5,19.8,6.5z"/>
	</g>
</g>
<polyline class="st1" points="17.8,6.5 17.8,10.5 10.5,10.5 10.5,6.5 "/>
<circle class="st2" cx="14" cy="6.2" r="0.9"/>
</svg>
