<?xml version="1.0" encoding="utf-8"?>
<!-- Generator: Adobe Illustrator 24.2.0, SVG Export Plug-In . SVG Version: 6.00 Build 0)  -->
<svg version="1.1" id="Vrstva_1" xmlns="http://www.w3.org/2000/svg" xmlns:xlink="http://www.w3.org/1999/xlink" x="0px" y="0px"
	 viewBox="0 0 70 70" style="enable-background:new 0 0 70 70;" xml:space="preserve">
<style type="text/css">
	.st0{fill:#E10D1A;}
	.st1{fill:#E31518;}
</style>
<g id="Group_1216" transform="translate(-1780.655 -255.325)">
	<path id="Path_3377" class="st0" d="M1791.4,314.4V273h49.2v41.4h6.2V273c0-3.4-2.8-6.1-6.2-6.2h-49.2c-3.4,0-6.1,2.8-6.1,6.2
		l0,41.4H1791.4z"/>
	<g id="Group_1215" transform="translate(1792.476 274.281)">
		<path id="Path_3378" class="st1" d="M30.2,24.4h4.1v-3.9l1.1-1.2l3.1,5h4.6l-4.9-7.9l4.9-5h-4.9l-3.9,4v-4h-4.1L30.2,24.4
			L30.2,24.4z"/>
		<path id="Path_3379" class="st1" d="M18.1,24.4h10.6v-3.1h-6.4v-2h5.2v-3h-5.2v-1.7h6.2v-3.1H18.1L18.1,24.4L18.1,24.4z"/>
		<path id="Path_3380" class="st1" d="M8.7,21.1v-6.4h1.2c2,0,2.7,0.9,2.7,3.2c0,2.4-0.7,3.2-2.8,3.2L8.7,21.1z M4.5,24.4h4.2
			c1.6,0.1,3.1-0.1,4.6-0.5c2.2-1,3.3-3,3.3-5.9c0-2.8-0.9-4.7-2.7-5.7c-1.4-0.6-2.9-0.9-4.5-0.7h-5L4.5,24.4L4.5,24.4z"/>
	</g>
</g>
</svg>
