<?xml version="1.0" encoding="utf-8"?>
<!-- Generator: Adobe Illustrator 24.2.0, SVG Export Plug-In . SVG Version: 6.00 Build 0)  -->
<svg version="1.1" id="Vrstva_1" xmlns="http://www.w3.org/2000/svg" xmlns:xlink="http://www.w3.org/1999/xlink" x="0px" y="0px"
	 viewBox="0 0 70 70" style="enable-background:new 0 0 70 70;" xml:space="preserve">
<style type="text/css">
	.st0{fill:#E10F1A;}
</style>
<g id="Group_1205" transform="translate(-1744.957 -258.83)">
	<path class="st0" d="M1802.6,316H1758c-3.9,0-7.1-3.2-7.1-7.1v-29.7c0-3.9,3.2-7.1,7.1-7.1h44.6c3.9,0,7.1,3.2,7.1,7.1v29.7
		C1809.7,312.8,1806.5,316,1802.6,316z M1758,278.1c-0.6,0-1.1,0.5-1.1,1.1v29.7c0,0.6,0.5,1.1,1.1,1.1h44.6c0.6,0,1.1-0.5,1.1-1.1
		v-29.7c0-0.6-0.5-1.1-1.1-1.1H1758z"/>
	<path id="Path_3374" class="st0" d="M1772.4,306.3l8.1-5.2l8.1,5.2l-2.5-9.3l7.4-6.1l-9.6-0.6l-3.5-8.9l-3.5,8.9l-9.6,0.6l7.4,6.1
		L1772.4,306.3z"/>
</g>
</svg>
