<?xml version="1.0" encoding="utf-8"?>
<!-- Generator: Adobe Illustrator 23.0.6, SVG Export Plug-In . SVG Version: 6.00 Build 0)  -->
<svg version="1.1" id="Vrstva_1" xmlns="http://www.w3.org/2000/svg" xmlns:xlink="http://www.w3.org/1999/xlink" x="0px" y="0px"
	 viewBox="0 0 30 30" style="enable-background:new 0 0 30 30;" xml:space="preserve">
<style type="text/css">
	.st0{fill:#E10F1A;}
</style>
<g>
	<path class="st0" d="M15,12.6c1.9,0,3.4-1.5,3.4-3.4c0-1.9-1.5-3.4-3.4-3.4c-1.9,0-3.4,1.5-3.4,3.4C11.6,11.1,13.1,12.6,15,12.6z
		 M15,6.7c1.3,0,2.5,1.1,2.5,2.5c0,1.3-1.1,2.5-2.5,2.5s-2.5-1.1-2.5-2.5C12.5,7.8,13.7,6.7,15,6.7z"/>
	<path class="st0" d="M15,14.8c-2-1.9-4.7-3.1-7.7-3.1v9.5c3,0,5.7,1.2,7.7,3.1c2-1.9,4.7-3.1,7.7-3.1v-9.5
		C19.7,11.7,17,12.9,15,14.8z M21.6,20.1c-2.4,0.2-4.7,1.1-6.6,2.6c-1.9-1.5-4.2-2.4-6.6-2.6v-7.2c2.2,0.2,4.2,1.2,5.8,2.7l0.8,0.7
		l0.8-0.7c1.6-1.5,3.7-2.4,5.8-2.7V20.1z"/>
</g>
</svg>
