<?xml version="1.0" encoding="UTF-8" standalone="no"?>
<!-- Generator: Adobe Illustrator 23.0.6, SVG Export Plug-In . SVG Version: 6.00 Build 0)  -->

<svg
   xmlns:dc="http://purl.org/dc/elements/1.1/"
   xmlns:cc="http://creativecommons.org/ns#"
   xmlns:rdf="http://www.w3.org/1999/02/22-rdf-syntax-ns#"
   xmlns:svg="http://www.w3.org/2000/svg"
   xmlns="http://www.w3.org/2000/svg"
   xmlns:sodipodi="http://sodipodi.sourceforge.net/DTD/sodipodi-0.dtd"
   xmlns:inkscape="http://www.inkscape.org/namespaces/inkscape"
   version="1.1"
   id="Vrstva_1"
   x="0px"
   y="0px"
   viewBox="0 0 30 30"
   style="enable-background:new 0 0 30 30;"
   xml:space="preserve"
   sodipodi:docname="Vyroba.svg"
   inkscape:version="0.92.4 (5da689c313, 2019-01-14)"><metadata
   id="metadata11"><rdf:RDF><cc:Work
       rdf:about=""><dc:format>image/svg+xml</dc:format><dc:type
         rdf:resource="http://purl.org/dc/dcmitype/StillImage" /></cc:Work></rdf:RDF></metadata><defs
   id="defs9" /><sodipodi:namedview
   pagecolor="#ffffff"
   bordercolor="#666666"
   borderopacity="1"
   objecttolerance="10"
   gridtolerance="10"
   guidetolerance="10"
   inkscape:pageopacity="0"
   inkscape:pageshadow="2"
   inkscape:window-width="723"
   inkscape:window-height="480"
   id="namedview7"
   showgrid="false"
   inkscape:zoom="1.3906433"
   inkscape:cx="-0.73912036"
   inkscape:cy="-30.178402"
   inkscape:window-x="0"
   inkscape:window-y="0"
   inkscape:window-maximized="0"
   inkscape:current-layer="Vrstva_1" />
<style
   type="text/css"
   id="style2">
	.st0{fill:#E10F1A;}
</style>
<path
   class="st0"
   d="M21.2,15c0-1,0.6-1.9,1.5-2.4c-0.2-0.5-0.3-1-0.6-1.4c-0.9,0.3-2,0.1-2.7-0.6c-0.7-0.7-0.9-1.8-0.6-2.7  c-0.4-0.2-0.9-0.4-1.4-0.6C16.9,8.2,16,8.8,15,8.8s-1.9-0.6-2.4-1.5c-0.5,0.2-1,0.3-1.4,0.6c0.3,0.9,0.1,2-0.6,2.7  c-0.7,0.7-1.8,0.9-2.7,0.6c-0.2,0.4-0.4,0.9-0.6,1.4C8.2,13.1,8.8,14,8.8,15c0,1-0.6,1.9-1.5,2.4c0.2,0.5,0.3,1,0.6,1.4  c0.9-0.3,2-0.1,2.7,0.6c0.7,0.7,0.9,1.8,0.6,2.7c0.4,0.2,0.9,0.4,1.4,0.6c0.4-0.9,1.3-1.5,2.4-1.5s1.9,0.6,2.4,1.5  c0.5-0.2,1-0.3,1.4-0.6c-0.3-0.9-0.1-2,0.6-2.7s1.8-0.9,2.7-0.6c0.2-0.4,0.4-0.9,0.6-1.4C21.8,17,21.2,16.1,21.2,15z M15,20.4  c-3,0-5.4-2.4-5.4-5.4S12,9.6,15,9.6s5.4,2.4,5.4,5.4S18,20.4,15,20.4z"
   id="path4" />
</svg>