<?xml version="1.0" encoding="utf-8"?>
<!-- Generator: Adobe Illustrator 25.2.1, SVG Export Plug-In . SVG Version: 6.00 Build 0)  -->
<svg version="1.1" id="Vrstva_1" xmlns="http://www.w3.org/2000/svg" xmlns:xlink="http://www.w3.org/1999/xlink" x="0px" y="0px"
	 viewBox="0 0 30 30" style="enable-background:new 0 0 30 30;" xml:space="preserve">
<style type="text/css">
	.st0{fill:#E10B17;}
</style>
<g id="Vrstva_2_1_">
	<g id="Vrstva_8">
		<path class="st0" d="M19.7,15.3h1.5v1.5h-1.5V15.3z M19.7,18.3h1.5v1.5h-1.5V18.3z M19.7,12.3h1.5v1.5h-1.5V12.3z M19.7,9.3h1.5
			v1.5h-1.5V9.3z"/>
		<path class="st0" d="M13.9,6.6v2.8l1.1,0.8V7.7h8.4v14.5h-3.8v1.2h4.9V6.6H13.9z"/>
		<path class="st0" d="M9,23.4l-4.2,0v-9.8l6.6-4.5l6.4,4.3v10 M13.6,23.4v-1.1h3.1v-8.4l-5.2-3.5l-5.6,3.8v8.1H9v1.1"/>
	</g>
</g>
<g>
	<path class="st0" d="M12.5,17.1v6.3h1.1V16l0,0H9v7.4h1.1v-6.3L12.5,17.1"/>
</g>
</svg>
