<?xml version="1.0" encoding="UTF-8" standalone="no"?>
<svg
   xmlns:dc="http://purl.org/dc/elements/1.1/"
   xmlns:cc="http://creativecommons.org/ns#"
   xmlns:rdf="http://www.w3.org/1999/02/22-rdf-syntax-ns#"
   xmlns:svg="http://www.w3.org/2000/svg"
   xmlns="http://www.w3.org/2000/svg"
   xmlns:sodipodi="http://sodipodi.sourceforge.net/DTD/sodipodi-0.dtd"
   xmlns:inkscape="http://www.inkscape.org/namespaces/inkscape"
   version="1.1"
   id="svg2"
   xml:space="preserve"
   width="109.6"
   height="109.6"
   viewBox="0 0 109.6 109.6"
   sodipodi:docname="youtube.eps"><metadata
     id="metadata8"><rdf:RDF><cc:Work
         rdf:about=""><dc:format>image/svg+xml</dc:format><dc:type
           rdf:resource="http://purl.org/dc/dcmitype/StillImage" /></cc:Work></rdf:RDF></metadata><defs
     id="defs6" /><sodipodi:namedview
     pagecolor="#ffffff"
     bordercolor="#666666"
     borderopacity="1"
     objecttolerance="10"
     gridtolerance="10"
     guidetolerance="10"
     inkscape:pageopacity="0"
     inkscape:pageshadow="2"
     inkscape:window-width="640"
     inkscape:window-height="480"
     id="namedview4" /><g
     id="g10"
     inkscape:groupmode="layer"
     inkscape:label="ink_ext_XXXXXX"
     transform="matrix(1.3333333,0,0,-1.3333333,0,109.6)"><g
       id="g12"
       transform="scale(0.1)"><path
         d="m 125.188,-0.00390625 h 571.667 c 69.137,0 125.196,56.05470625 125.196,125.19490625 v 571.664 c 0,69.141 -56.059,125.192 -125.196,125.192 H 142.551 C 63.8203,822.047 0,758.227 0,679.5 V 125.191 C 0,56.0508 56.0469,-0.00390625 125.188,-0.00390625"
         style="fill:#989ba0;fill-opacity:1;fill-rule:nonzero;stroke:none"
         id="path14" /><path
         d="m 684.258,588.531 c -6.27,9.59 -15.422,17.301 -26.313,22.008 0.024,0.066 0.09,0.141 0.09,0.211 0,8.148 -110.273,10.785 -244.644,10.785 -110.754,0 -202.821,-0.523 -232.254,-6.664 -17.461,-2.683 -32.434,-12.558 -41.457,-26.34 -24.797,-33.203 -37.989,-100.687 -37.989,-178.269 0,-81.797 15.079,-151.828 42.094,-182.852 0.32,-0.383 0.633,-0.762 0.965,-1.133 0.281,-0.312 0.574,-0.605 0.863,-0.91 1.547,-1.668 3.196,-3.25 4.934,-4.734 0.516,-0.449 1.027,-0.93 1.547,-1.348 0.765,-0.605 1.57,-1.172 2.367,-1.75 0.461,-0.32 0.914,-0.672 1.379,-0.984 5.242,-3.574 11.078,-6.387 17.371,-8.223 21.262,-6.711 121.891,-7.453 241.129,-7.453 119.937,0 215.914,0.43 235.07,7.129 6.789,1.816 13.09,4.726 18.695,8.547 0.458,0.312 0.918,0.664 1.375,0.984 0.801,0.578 1.602,1.145 2.364,1.75 0.527,0.418 1.035,0.899 1.554,1.348 1.739,1.484 3.387,3.066 4.93,4.734 0.285,0.305 0.574,0.598 0.867,0.91 0.325,0.371 0.637,0.75 0.957,1.133 27.024,31.024 40.207,102 40.207,183.797 0,77.586 -11.296,144.121 -36.101,177.324"
         style="fill:#ffffff;fill-opacity:1;fill-rule:nonzero;stroke:none"
         id="path16" /><path
         d="m 353.656,303.668 v 199.41 l 163.785,-99.707 z"
         style="fill:#989ba0;fill-opacity:1;fill-rule:nonzero;stroke:none"
         id="path18" /></g></g></svg>
