<?xml version="1.0" encoding="utf-8"?>
<!-- Generator: Adobe Illustrator 23.1.0, SVG Export Plug-In . SVG Version: 6.00 Build 0)  -->
<svg version="1.1" id="Vrstva_1" xmlns="http://www.w3.org/2000/svg" xmlns:xlink="http://www.w3.org/1999/xlink" x="0px" y="0px"
	 viewBox="0 0 81 28" style="enable-background:new 0 0 81 28;" xml:space="preserve">
<style type="text/css">
	.st0{fill:#FFFFFF;}
</style>
<polygon class="st0" points="53.8,27.3 62.3,27.3 62.3,19.4 64.6,17 71,27.3 80.5,27.3 70.4,10.9 80.5,0.6 70.4,0.6 62.3,8.9 
	62.3,0.6 53.8,0.6 53.8,27.3 "/>
<polygon class="st0" points="28.7,27.3 50.6,27.3 50.6,20.8 37.3,20.8 37.3,16.7 48.1,16.7 48.1,10.6 37.3,10.6 37.3,7 50.1,7 
	50.1,0.6 28.7,0.6 28.7,27.3 "/>
<path class="st0" d="M9.3,20.6V7.4h2.4c4.1,0,5.6,1.8,5.6,6.6c0,5-1.5,6.6-5.7,6.6H9.3L9.3,20.6z M0.7,27.3h8.8
	c4.2,0,7.3-0.1,9.6-1.1C23.6,24.2,26,20,26,14c0-5.8-1.9-9.7-5.6-11.9c-2.5-1.4-5.4-1.5-9.3-1.5H0.7V27.3L0.7,27.3z"/>
</svg>
