<svg id="Vrstva_1" data-name="Vrstva 1" xmlns="http://www.w3.org/2000/svg" viewBox="0 0 300 250"><defs><style>.cls-1{fill:#1a171c;}.cls-1,.cls-2{fill-rule:evenodd;}.cls-2{fill:#006b47;}</style></defs><path class="cls-1" d="M79.65,144.45a7.24,7.24,0,0,1-10.24-10.24L87.2,116.44l-6.94-6.94L63.07,126.67h0l-.61.62h0l-.6.6,0,0A17.05,17.05,0,0,0,86.59,151.4l.61-.6-6.94-6.94-.61.59Z"/><path class="cls-1" d="M115.87,122.09a17.06,17.06,0,0,0-24.71-23.5l-.61.61,6.94,6.94.61-.59a7.22,7.22,0,0,1,10.18.06,7.25,7.25,0,0,1,.06,10.16L90.55,133.55l6.94,6.95,17.19-17.18h0l.61-.62h0l.61-.6,0,0Z"/><path class="cls-2" d="M115.29,127.27l-.61-.61-6.94,6.94.6.6a7.27,7.27,0,0,1-.06,10.18,7.24,7.24,0,0,1-10.18.06L80.31,126.66l-6.94,6.94,17.18,17.17h0l.59.58.63.63v0a17.06,17.06,0,0,0,23.51-24.7Z"/><path class="cls-2" d="M104.43,116.42,87.25,99.25h0l-.6-.59L86,98l0,0a17.05,17.05,0,0,0-23.5,24.7l.61.61,6.94-6.94-.6-.6a7.24,7.24,0,0,1,5.18-12.3,7.2,7.2,0,0,1,5.06,2.06l17.79,17.78,6.94-6.94Z"/><polygon class="cls-1" points="215.76 108.71 215.76 116.49 225.01 116.49 225.01 142.44 233.21 142.44 233.21 116.49 242.46 116.49 242.46 108.71 215.76 108.71 215.76 108.71"/><path class="cls-1" d="M142.38,134.88h-5.75V128.7h5.93c3.66,0,4.08,1.87,4.08,3.28,0,2.52-2.67,2.9-4.26,2.9Zm-5.75-18.78h5.75c3.6,0,3.6,2,3.6,2.71s0,2.63-3.47,2.63h-5.88V116.1ZM151.5,125a9,9,0,0,0,2.75-6.57,9.4,9.4,0,0,0-4.18-7.83,14.2,14.2,0,0,0-7.9-1.92H128.49v33.77h13.68c3.1,0,6.35-.28,9.08-2.37a9.6,9.6,0,0,0,3.66-8A8.94,8.94,0,0,0,151.5,125Z"/><polygon class="cls-1" points="159.29 142.44 184.04 142.44 184.04 134.79 167.48 134.79 167.48 128.74 182.06 128.74 182.06 121.13 167.48 121.13 167.48 116.36 184.04 116.36 184.04 108.71 159.29 108.71 159.29 142.44 159.29 142.44"/><path class="cls-1" d="M205.15,121.62c-.86-.11-1.84-.21-2.85-.32-1.37-.14-2.77-.29-3.88-.46-1.91-.32-2.13-1.38-2.13-2.16a2.37,2.37,0,0,1,.7-1.78c1.13-1.16,3.09-1.33,4.17-1.33a6,6,0,0,1,3.84,1.28,3.8,3.8,0,0,1,1,2.27l.05,1.21h8.29l0-1.27a10.64,10.64,0,0,0-3.57-7.55,14.08,14.08,0,0,0-9.58-3.37,14.55,14.55,0,0,0-10,3.67,9.88,9.88,0,0,0-3.09,7c0,5.24,3.44,9.06,9,10,1,.17,2.16.28,3.32.4s2.51.23,3.58.43c2.67.49,2.67,2,2.67,2.48a2.62,2.62,0,0,1-.88,2.12c-.8.84-2.41,1.29-4.52,1.29-1.39,0-3.28-.22-4.36-1.3a4.25,4.25,0,0,1-1.26-2.95V130h-8.32v1.25a11.25,11.25,0,0,0,3.67,8.19A15,15,0,0,0,201.12,143c3.21,0,7.68-.64,10.74-3.71a10.09,10.09,0,0,0,3-7.41c0-5.4-3.79-9.43-9.68-10.27Z"/></svg>