<svg id="Vrstva_1" data-name="Vrstva 1" xmlns="http://www.w3.org/2000/svg" viewBox="0 0 300 250"><defs><style>.cls-1{fill:#1d1d1b;}.cls-2{fill:#e20614;}.cls-3{font-size:16px;font-family:Roboto-Regular, Roboto;}.cls-4{letter-spacing:-0.03em;}.cls-5{letter-spacing:-0.01em;}</style></defs><path class="cls-1" d="M84.68,153.82c.12,2.85,1.86,4.42,4.87,4.42s4.77-1.55,4.77-3.92a3,3,0,0,0-1-2.37,6.82,6.82,0,0,0-2.85-1.08c-2.61-.63-3.77-.73-3.77-2.32,0-1.17,1-2,2.73-2a2.63,2.63,0,0,1,2.94,2.58H94c0-2.47-1.7-4-4.44-4s-4.44,1.51-4.44,3.68,1.41,2.79,4.16,3.44c2.25.54,3.4.75,3.4,2.23s-1.14,2.26-3.11,2.26a2.93,2.93,0,0,1-3.23-3Zm16.89,4.09h1.7V147h3.92v-1.51H97.65V147h3.92v10.91Zm7.52,0h1.74l1.34-3.71h4.88l1.32,3.71h1.83l-4.63-12.42H113.7l-4.61,12.42Zm3.59-5.16,2-5.48,1.91,5.48Zm14.5,5.16h1.76l4.37-12.42h-1.76l-3.47,10.4-3.58-10.4h-1.74l4.42,12.42Zm10.83,0h9v-1.55h-7.32V152.2h6.63v-1.45h-6.63V147h7.18v-1.54H138v12.42Zm16.1-1.5v-4.32h3.23c1.9,0,2.82.62,2.82,2.09s-.9,2.23-2.63,2.23Zm0-5.7v-3.8h3.09c1.63,0,2.41.59,2.41,1.85s-.83,2-2.54,2Zm-1.69,7.2h5.27c2.64,0,4.2-1.48,4.2-3.71a2.81,2.81,0,0,0-2.37-3,2.7,2.7,0,0,0,1.78-2.69c0-2-1.3-3-3.87-3h-5v12.42Zm14.79,0h1.6V147.84a4.63,4.63,0,0,0,.47.92l5.93,9.15H177V145.49h-1.61v10.08a6.86,6.86,0,0,0-.57-1.06l-5.8-9h-1.85v12.42Zm15.87,0h1.7V145.49h-1.7v12.42Zm7.76,0h1.61V147.84a4.64,4.64,0,0,0,.46.92l5.93,9.15h1.83V145.49h-1.61v10.08a5.49,5.49,0,0,0-.57-1.06l-5.8-9h-1.85v12.42Zm20.06,0v-5.09l4.42-7.33h-2l-3.3,5.88-3.31-5.88h-2.13l4.62,7.45v5Z"/><polygon class="cls-2" points="171.6 135.49 185.53 135.49 185.53 122.44 189.31 118.52 199.7 135.49 215.23 135.49 198.79 108.66 215.23 91.76 198.77 91.76 185.53 105.43 185.53 91.76 171.6 91.76 171.6 135.49 171.6 135.49"/><polygon class="cls-2" points="130.6 135.49 166.42 135.49 166.42 124.84 144.65 124.84 144.65 118.09 162.35 118.09 162.35 108.06 144.65 108.06 144.65 102.22 165.57 102.22 165.57 91.76 130.6 91.76 130.6 135.49 130.6 135.49"/><path class="cls-2" d="M99,124.42V102.83h4c6.63,0,9.13,2.91,9.13,10.82,0,8.15-2.38,10.77-9.31,10.77Zm-14,11.07H99.27c6.82,0,12-.13,15.69-1.83,7.36-3.28,11.2-10.1,11.2-20,0-9.43-3-15.87-9.13-19.4-4-2.31-8.88-2.49-15.14-2.49h-17v43.73Z"/><text class="cls-3" transform="translate(62.09 194.05)">S<tspan class="cls-4" x="9.49" y="0">L</tspan><tspan class="cls-5" x="17.59" y="0">O</tspan><tspan x="28.42" y="0">VENSKÁ REPUBLIKA</tspan></text></svg>