<svg width="190" height="110" viewBox="0 0 190 110" fill="none" xmlns="http://www.w3.org/2000/svg">
<path d="M35.7937 48.396L39.0476 55.3801H32.5397L35.7937 48.396ZM31.5079 41.8087L20 64.5071H28.254L30.0794 60.6182H41.4286L43.254 64.5071H51.5873L40.0794 41.8087H31.5079Z" fill="#E1001A"/>
<path d="M68.4127 52.523C70.4762 52.523 71.9048 51.9674 71.9048 49.9833C71.9048 48.0786 70.4762 47.4436 68.4127 47.4436H60.7937V52.523H68.4127V52.523ZM71.6667 64.5071L66.1905 57.8405H60.873V64.5071H52.9365V41.8087H69.0476C75.1587 41.8087 79.9206 44.3484 79.9206 49.8246C79.9206 53.5547 77.619 55.9357 74.2857 57.0468L80.6349 64.4278H71.6667V64.5071Z" fill="#E1001A"/>
<path d="M110 60.4595C107.381 63.4754 102.937 65.2214 96.9048 65.2214C87.381 65.2214 81.5079 60.9357 81.5079 53.1579C81.5079 45.3801 87.4603 41.0944 96.9048 41.0944C102.54 41.0944 106.667 42.9198 109.127 45.1421L103.651 49.269C101.667 47.6817 99.9206 47.0468 97.1429 47.0468C92.0635 47.0468 89.4444 49.3484 89.4444 53.2373C89.4444 57.1262 92.1429 59.5071 97.2222 59.5071C99.3651 59.5071 101.111 59.1103 102.698 58.0786V56.1738H96.1111V51.1738H110V60.4595Z" fill="#E1001A"/>
<path d="M134.127 53.1579C134.127 49.4278 131.429 47.2849 127.063 47.2849C122.698 47.2849 120 49.4278 120 53.1579C120 56.8881 122.698 59.0309 127.063 59.0309C131.429 59.0309 134.127 56.8881 134.127 53.1579ZM111.905 53.1579C111.905 45.3801 117.937 41.0944 126.984 41.0944C136.111 41.0944 142.143 45.4595 142.143 53.1579C142.143 60.8563 136.111 65.2214 126.984 65.2214C117.937 65.2214 111.905 60.8563 111.905 53.1579Z" fill="#E1001A"/>
<path d="M170 57.1262C170 62.0468 165.635 65.2214 157.222 65.2214C151.349 65.2214 146.19 63.6341 142.54 60.9357L146.429 56.4119C149.048 58.3167 152.857 59.6659 157.302 59.6659C160.556 59.6659 162.143 59.1103 162.143 57.9992C162.143 56.8881 160.873 56.4913 156.667 56.1738C149.683 55.5389 143.492 53.9516 143.492 48.7928C143.492 43.8722 148.889 41.0944 156.27 41.0944C161.032 41.0944 165.714 42.2055 168.968 44.3484L165.238 48.9516C162.698 47.2849 159.683 46.5706 156.27 46.5706C153.968 46.5706 151.349 46.8881 151.349 48.0786C151.349 49.1897 153.413 49.4278 157.063 49.6659C164.603 50.3008 170 51.7294 170 57.1262Z" fill="#E1001A"/>
<path d="M77.6984 71.7294V77.1262H81.6667V76.2532H78.5714V74.6659H81.2698V73.9516H78.5714V72.523H81.5079V71.7294H77.6984Z" fill="#1A171B"/>
<path d="M90.3968 71.7294V77.1262H93.9682V76.2532H91.2698V71.7294H90.3968Z" fill="#1A171B"/>
<path d="M102.54 71.7294V77.1262H106.508V76.2532H103.413V74.6659H106.19V73.9516H103.413V72.523H106.429V71.7294H102.54Z" fill="#1A171B"/>
<path d="M118.571 71.7294L116.19 74.1897V71.7294H115.238V77.1262H116.19V75.2214L116.905 74.5071L118.73 77.1262H119.762L117.54 73.8722L119.683 71.7294H118.571Z" fill="#1A171B"/>
<path d="M128.016 71.7294V72.523H129.683V77.1262H130.556V72.523H132.222V71.7294H128.016Z" fill="#1A171B"/>
<path d="M143.016 74.1103C143.333 74.1103 143.651 74.0309 143.81 73.9516C143.968 73.7928 144.048 73.6341 144.048 73.3167C144.048 72.9992 143.968 72.7611 143.81 72.6817C143.651 72.6024 143.413 72.523 143.016 72.523H141.746V74.1103H143.016ZM140.794 71.7294H143.095C143.175 71.7294 143.254 71.7294 143.254 71.7294C143.333 71.7294 143.333 71.7294 143.333 71.7294C143.81 71.7294 144.206 71.8881 144.444 72.1262C144.683 72.3643 144.841 72.7611 144.841 73.2373C144.841 73.5548 144.762 73.7928 144.683 74.0309C144.524 74.269 144.365 74.4278 144.127 74.5071C144.286 74.5865 144.365 74.5865 144.444 74.6659C144.524 74.7452 144.603 74.8246 144.603 74.904C144.683 74.9833 144.683 75.0627 144.683 75.2214C144.683 75.3008 144.683 75.4595 144.762 75.6182L144.841 76.4119C144.841 76.5706 144.841 76.7294 144.921 76.8087C144.921 76.8881 145 76.9674 145.079 77.0468V77.2055H144.048C143.968 77.1262 143.968 76.9674 143.968 76.8881C143.968 76.8087 143.968 76.65 143.968 76.4913V75.8563C143.968 75.6976 143.968 75.6182 143.889 75.4595C143.889 75.3801 143.81 75.3008 143.73 75.2214C143.651 75.1421 143.571 75.0627 143.492 75.0627C143.413 75.0627 143.254 74.9833 143.095 74.9833H141.746V77.2055H140.873V71.7294H140.794Z" fill="#1A171B"/>
<path d="M156.19 72.3643C155.714 72.3643 155.238 72.523 155 72.9198C154.683 73.2373 154.524 73.7928 154.524 74.4278C154.524 75.0627 154.683 75.6182 155 75.9357C155.317 76.2532 155.714 76.4912 156.19 76.4912C156.667 76.4912 157.143 76.3325 157.381 75.9357C157.698 75.6182 157.857 75.0627 157.857 74.4278C157.857 73.7928 157.698 73.2373 157.381 72.9198C157.143 72.523 156.746 72.3643 156.19 72.3643ZM156.19 71.5706C156.587 71.5706 156.984 71.65 157.302 71.7293C157.619 71.8881 157.857 72.0468 158.095 72.2849C158.333 72.523 158.492 72.8405 158.571 73.1579C158.73 73.4754 158.73 73.8722 158.73 74.3484C158.73 74.8246 158.651 75.2214 158.571 75.5389C158.413 75.8563 158.254 76.1738 158.095 76.4119C157.857 76.65 157.619 76.8087 157.302 76.9674C156.984 77.1262 156.587 77.1262 156.19 77.1262C155.794 77.1262 155.397 77.0468 155.079 76.9674C154.762 76.8087 154.524 76.65 154.286 76.4119C154.048 76.1738 153.889 75.8563 153.81 75.5389C153.651 75.2214 153.651 74.8246 153.651 74.3484C153.651 73.8722 153.73 73.4754 153.81 73.1579C153.968 72.8405 154.127 72.523 154.286 72.2849C154.524 72.0468 154.762 71.8881 155.079 71.7293C155.476 71.65 155.794 71.5706 156.19 71.5706Z" fill="#1A171B"/>
</svg>
