<svg width="190" height="110" viewBox="0 0 190 110" fill="none" xmlns="http://www.w3.org/2000/svg">
<path d="M29.1 73.6C29.3 76.4 31 78 34 78C37 78 38.8 76.4 38.8 74.1C38.8 73.1 38.4 72.3 37.8 71.7C37.1 71.1 36.1 70.9 34.9 70.6C32.3 70 31.1 69.9 31.1 68.3C31.1 67.1 32.1 66.3 33.8 66.3C35.6 66.3 36.6 67.2 36.8 68.9H38.4C38.4 66.4 36.7 64.9 33.9 64.9C31.2 64.9 29.4 66.4 29.4 68.6C29.4 70.8 30.8 71.4 33.6 72.1C35.9 72.6 37 72.8 37 74.3C37 75.7 35.9 76.6 33.9 76.6C32 76.6 30.7 75.5 30.7 73.6H29.1ZM46.1 77.7H47.8V66.7H51.7V65.2H42.1V66.7H46V77.7H46.1ZM53.7 77.7H55.5L56.8 74H61.7L63 77.7H64.8L60.1 65.2H58.2L53.7 77.7ZM57.3 72.5L59.3 67L61.2 72.5H57.3ZM71.9 77.7H73.7L78 65.2H76.2L72.7 75.7L69.1 65.2H67.3L71.9 77.7ZM82.8 77.7H91.9V76.1H84.5V71.9H91.2V70.4H84.5V66.7H91.7V65.2H82.8V77.7V77.7ZM99 76.2V71.9H102.2C104.1 71.9 105 72.5 105 74C105 75.5 104.1 76.2 102.4 76.2H99ZM99 70.5V66.7H102.1C103.7 66.7 104.5 67.3 104.5 68.6C104.5 70 103.7 70.6 101.9 70.6H99V70.5ZM97.3 77.7H102.6C105.3 77.7 106.8 76.2 106.8 74C106.8 72.4 105.9 71.3 104.4 71C105.6 70.5 106.2 69.6 106.2 68.3C106.2 66.3 104.9 65.3 102.3 65.3H97.3V77.7V77.7ZM112.1 77.7H113.7V67.6C113.8 68 114 68.3 114.2 68.5L120.2 77.7H122V65.2H120.4V75.3C120.3 75 120.1 74.6 119.8 74.2L114 65.1H112.1V77.7ZM128.1 77.7H129.8V65.2H128.1V77.7ZM135.9 77.7H137.5V67.6C137.6 68 137.8 68.3 138 68.5L144 77.7H145.8V65.2H144.2V75.3C144.1 75 143.9 74.6 143.6 74.2L137.8 65.1H135.9V77.7ZM156.1 77.7V72.6L160.5 65.2H158.5L155.2 71.1L151.9 65.2H149.8L154.4 72.7V77.7H156.1Z" fill="#1D1D1C"/>
<path d="M116.5 55.1H130.6V42L134.4 38.1L144.8 55.1H160.4L143.9 28.2L160.4 11.2H143.9L130.6 24.9V11.2H116.5V55.1Z" fill="#D31D1C"/>
<path d="M75.3 55.1H111.3V44.4H89.4V37.7H107.2V27.6H89.4V21.7H110.5V11.2H75.3V55.1Z" fill="#D31D1C"/>
<path d="M43.5 44V22.3H47.5C54.2 22.3 56.7 25.2 56.7 33.2C56.7 41.4 54.3 44 47.3 44H43.5ZM29.4 55.1H43.8C50.6 55.1 55.8 55 59.6 53.3C67 50 70.9 43.2 70.9 33.2C70.9 23.7 67.8 17.2 61.7 13.7C57.7 11.4 52.8 11.2 46.5 11.2H29.4V55.1Z" fill="#D31D1C"/>
<path d="M88.955 97.393C88.9697 97.9723 89.1604 98.4307 89.527 98.768C89.8937 99.1053 90.3887 99.274 91.012 99.274C91.6427 99.274 92.1304 99.1457 92.475 98.889C92.8197 98.625 92.992 98.273 92.992 97.833C92.992 97.5983 92.9444 97.4077 92.849 97.261C92.761 97.1143 92.6254 96.9933 92.442 96.898C92.2587 96.8027 92.0314 96.722 91.76 96.656C91.496 96.5827 91.1844 96.502 90.825 96.414C90.385 96.3113 90 96.205 89.67 96.095C89.34 95.9777 89.065 95.842 88.845 95.688C88.625 95.5267 88.4564 95.3287 88.339 95.094C88.229 94.8593 88.174 94.5697 88.174 94.225C88.174 93.8803 88.24 93.565 88.372 93.279C88.504 92.9857 88.691 92.7363 88.933 92.531C89.1824 92.3257 89.4794 92.168 89.824 92.058C90.176 91.9407 90.5684 91.882 91.001 91.882C91.881 91.882 92.5704 92.1057 93.069 92.553C93.5677 93.0003 93.8207 93.62 93.828 94.412H92.805C92.7684 93.884 92.5887 93.4807 92.266 93.202C91.9434 92.916 91.4997 92.773 90.935 92.773C90.3924 92.773 89.967 92.8903 89.659 93.125C89.351 93.3597 89.197 93.664 89.197 94.038C89.197 94.2947 89.2447 94.4963 89.34 94.643C89.4354 94.7897 89.5784 94.9107 89.769 95.006C89.967 95.1013 90.2164 95.1857 90.517 95.259C90.8177 95.3323 91.177 95.4167 91.595 95.512C91.9837 95.6073 92.3284 95.699 92.629 95.787C92.9297 95.875 93.19 96.0143 93.41 96.205C93.8427 96.5717 94.059 97.074 94.059 97.712C94.059 98.086 93.9894 98.427 93.85 98.735C93.7107 99.043 93.509 99.307 93.245 99.527C92.9884 99.747 92.6694 99.9157 92.288 100.033C91.914 100.15 91.4924 100.209 91.023 100.209C90.0624 100.209 89.3144 99.9707 88.779 99.494C88.2437 99.01 87.9577 98.3097 87.921 97.393H88.955Z" fill="black"/>
<path d="M95.3953 92.091H96.4623V95.908L100.268 92.091H101.698L98.4643 95.259L101.786 100H100.455L97.6833 96.029L96.4623 97.228V100H95.3953V92.091Z" fill="black"/>
</svg>
