<svg width="190" height="110" viewBox="0 0 190 110" fill="none" xmlns="http://www.w3.org/2000/svg">
<path d="M167.764 45.0183C168.084 45.0183 168.403 45.0981 168.643 45.178C168.882 45.2578 169.202 45.4974 169.361 45.657C169.601 45.8966 169.761 46.1361 169.84 46.3756C169.92 46.6151 170 46.9345 170 47.2538C170 47.5732 169.92 47.8926 169.84 48.1321C169.761 48.3716 169.521 48.691 169.361 48.8507C169.122 49.0902 168.882 49.2499 168.643 49.3297C168.403 49.4096 168.084 49.4894 167.764 49.4894C167.445 49.4894 167.206 49.4096 166.886 49.3297C166.647 49.2499 166.327 49.0103 166.168 48.8507C165.928 48.6111 165.768 48.3716 165.689 48.1321C165.609 47.8926 165.529 47.5732 165.529 47.2538C165.529 47.0143 165.529 46.8546 165.609 46.6151C165.689 46.4554 165.768 46.2159 165.848 46.0562C166.088 45.7369 166.327 45.4175 166.647 45.2578C166.966 45.0981 167.285 45.0183 167.764 45.0183ZM167.764 45.4175C167.525 45.4175 167.285 45.4974 167.046 45.5772C166.806 45.657 166.647 45.8167 166.487 45.9764C166.327 46.1361 166.168 46.3756 166.088 46.6151C166.008 46.8546 165.928 47.0942 165.928 47.3337C165.928 47.5732 166.008 47.8127 166.088 48.0523C166.168 48.2918 166.327 48.4515 166.487 48.691C166.647 48.8507 166.886 49.0103 167.126 49.0902C167.365 49.17 167.605 49.2499 167.844 49.2499C168.084 49.2499 168.323 49.17 168.563 49.0902C168.802 49.0103 169.042 48.8507 169.202 48.691C169.361 48.5313 169.521 48.2918 169.601 48.1321C169.681 47.8926 169.76 47.6531 169.76 47.4135C169.76 47.174 169.681 46.8546 169.601 46.695C169.521 46.4554 169.361 46.2958 169.202 46.0562C169.042 45.8966 168.802 45.7369 168.563 45.657C168.244 45.4175 168.004 45.4175 167.764 45.4175ZM166.806 45.9764H167.764C168.084 45.9764 168.403 46.0562 168.563 46.1361C168.723 46.2958 168.802 46.4554 168.802 46.695C168.802 46.8546 168.723 47.0143 168.643 47.0942C168.563 47.174 168.403 47.2538 168.244 47.3337L168.802 48.4515H168.084L167.605 47.4135H167.285V48.4515H166.806V45.9764ZM167.365 46.3756V47.0942H167.685C167.844 47.0942 168.004 47.0942 168.084 47.0143C168.164 46.9345 168.244 46.8546 168.244 46.7748C168.244 46.6151 168.164 46.5353 168.084 46.4554C168.004 46.3756 167.844 46.3756 167.685 46.3756H167.365Z" fill="#00305B"/>
<path d="M19.5 63.4615H25.5679C28.4422 63.4615 30.5979 63.3817 32.1947 62.6631C35.3085 61.3058 36.9053 58.4316 36.9053 54.2C36.9053 50.208 35.6279 47.4934 33.073 45.9764C31.3963 45.0183 29.3205 44.9385 26.6857 44.9385H19.5V63.4615V63.4615ZM25.4083 58.7509V49.6491H27.0849C29.8793 49.6491 30.9173 50.8467 30.9173 54.2C30.9173 57.6332 29.8793 58.7509 27.0051 58.7509H25.4083V58.7509ZM38.8215 63.4615H53.9114V58.9905H44.7297V56.1162H52.2348V51.8846H44.7297V49.4096H53.5921V45.0183H38.8215V63.4615ZM55.8276 63.4615H61.7358V57.5533L63.173 56.0363L67.7239 63.4615H74.7499L67.3247 51.8048L73.9515 45.0183H67.0053L61.656 51.1661V45.0183H55.8276V63.4615Z" fill="#00305B"/>
<path fill-rule="evenodd" clip-rule="evenodd" d="M153.633 45.7369L153.712 45.0183H159.621L159.461 45.7369H153.633Z" fill="#00305B"/>
<path fill-rule="evenodd" clip-rule="evenodd" d="M153.313 47.4934L153.473 46.2958H159.381L159.221 47.4934H153.313Z" fill="#00305B"/>
<path fill-rule="evenodd" clip-rule="evenodd" d="M152.994 49.2499L153.154 48.1321H159.062L158.902 49.2499H152.994Z" fill="#00305B"/>
<path fill-rule="evenodd" clip-rule="evenodd" d="M152.674 51.0862L152.834 49.8886H158.742L158.583 51.0862H152.674Z" fill="#00305B"/>
<path fill-rule="evenodd" clip-rule="evenodd" d="M152.355 52.8427L152.515 51.7249H158.423L158.184 52.8427H152.355Z" fill="#00305B"/>
<path fill-rule="evenodd" clip-rule="evenodd" d="M152.036 54.679L152.195 53.4814H158.104L157.864 54.679H152.036Z" fill="#00305B"/>
<path fill-rule="evenodd" clip-rule="evenodd" d="M151.716 56.4355L151.876 55.3178H157.784L157.545 56.4355H151.716Z" fill="#00305B"/>
<path fill-rule="evenodd" clip-rule="evenodd" d="M151.397 58.192L151.557 57.0743H157.465L157.225 58.192H151.397Z" fill="#00305B"/>
<path fill-rule="evenodd" clip-rule="evenodd" d="M151.078 60.0284L151.237 58.9106H165.529L165.289 60.0284H151.078Z" fill="#00305B"/>
<path fill-rule="evenodd" clip-rule="evenodd" d="M150.758 61.7849L150.918 60.6671H165.21L165.05 61.7849H150.758Z" fill="#00305B"/>
<path fill-rule="evenodd" clip-rule="evenodd" d="M150.439 63.4615L150.599 62.4236H164.89L164.73 63.4615H150.439Z" fill="#00305B"/>
<path fill-rule="evenodd" clip-rule="evenodd" d="M139.581 45.7369L139.9 45.0183H145.888L145.968 45.7369H139.581Z" fill="#00305B"/>
<path fill-rule="evenodd" clip-rule="evenodd" d="M138.623 47.4934L139.181 46.2958H146.048L146.287 47.4934H138.623Z" fill="#00305B"/>
<path fill-rule="evenodd" clip-rule="evenodd" d="M137.744 49.2499L138.303 48.1321H146.447L146.607 49.2499H137.744Z" fill="#00305B"/>
<path fill-rule="evenodd" clip-rule="evenodd" d="M147.006 51.7249L147.245 52.8427H142.215L142.056 51.7249H147.006Z" fill="#00305B"/>
<path fill-rule="evenodd" clip-rule="evenodd" d="M136.786 51.0862L137.425 49.8886H146.686L146.926 51.0862H141.976V50.687L141.816 51.0862H136.786Z" fill="#00305B"/>
<path fill-rule="evenodd" clip-rule="evenodd" d="M135.828 52.8427L136.467 51.7249H141.497L141.018 52.8427H135.828Z" fill="#00305B"/>
<path fill-rule="evenodd" clip-rule="evenodd" d="M142.375 54.679L142.295 53.4814H147.325L147.485 54.679H142.375Z" fill="#00305B"/>
<path fill-rule="evenodd" clip-rule="evenodd" d="M134.95 54.679L135.589 53.4814H140.698L140.219 54.679H134.95Z" fill="#00305B"/>
<path fill-rule="evenodd" clip-rule="evenodd" d="M142.615 56.4355L142.455 55.3178H147.645L147.804 56.4355H142.615Z" fill="#00305B"/>
<path fill-rule="evenodd" clip-rule="evenodd" d="M133.992 56.4355L134.63 55.3178H139.9L139.421 56.4355H133.992Z" fill="#00305B"/>
<path fill-rule="evenodd" clip-rule="evenodd" d="M133.114 58.192L133.672 57.0743H139.102L138.942 57.4735H142.774L142.694 57.0743H147.964L148.203 58.192H133.114Z" fill="#00305B"/>
<path fill-rule="evenodd" clip-rule="evenodd" d="M132.155 60.0284L132.794 58.9106H148.283L148.443 60.0284H132.155Z" fill="#00305B"/>
<path fill-rule="evenodd" clip-rule="evenodd" d="M148.922 62.4236L149.082 63.4615H143.493L143.413 62.4236H148.922Z" fill="#00305B"/>
<path fill-rule="evenodd" clip-rule="evenodd" d="M131.277 61.7849L131.836 60.6671H148.603L148.762 61.7849H143.333L143.253 61.226H137.345L137.106 61.7849H131.277Z" fill="#00305B"/>
<path fill-rule="evenodd" clip-rule="evenodd" d="M130.399 63.4615L130.958 62.4236H136.866L136.387 63.4615H130.399Z" fill="#00305B"/>
<path fill-rule="evenodd" clip-rule="evenodd" d="M118.103 45.7369L118.263 45.0183H134.391L134.231 45.7369H118.103Z" fill="#00305B"/>
<path fill-rule="evenodd" clip-rule="evenodd" d="M117.784 47.4934L118.024 46.2958H134.072L133.832 47.4934H117.784Z" fill="#00305B"/>
<path fill-rule="evenodd" clip-rule="evenodd" d="M117.465 49.2499L117.624 48.1321H133.752L133.513 49.2499H117.465Z" fill="#00305B"/>
<path fill-rule="evenodd" clip-rule="evenodd" d="M122.335 51.0862L122.495 49.8886H128.403L128.243 51.0862H122.335Z" fill="#00305B"/>
<path fill-rule="evenodd" clip-rule="evenodd" d="M122.016 52.8427L122.255 51.7249H128.084L127.924 52.8427H122.016Z" fill="#00305B"/>
<path fill-rule="evenodd" clip-rule="evenodd" d="M121.696 54.679L121.936 53.4814H127.764L127.605 54.679H121.696Z" fill="#00305B"/>
<path fill-rule="evenodd" clip-rule="evenodd" d="M121.457 56.4355L121.616 55.3178H127.445L127.285 56.4355H121.457Z" fill="#00305B"/>
<path fill-rule="evenodd" clip-rule="evenodd" d="M121.137 58.192L121.297 57.0743H127.125L126.966 58.192H121.137Z" fill="#00305B"/>
<path fill-rule="evenodd" clip-rule="evenodd" d="M120.738 60.0284L120.978 58.9106H126.886L126.646 60.0284H120.738Z" fill="#00305B"/>
<path fill-rule="evenodd" clip-rule="evenodd" d="M120.499 61.7849L120.658 60.6671H126.567L126.407 61.7849H120.499Z" fill="#00305B"/>
<path fill-rule="evenodd" clip-rule="evenodd" d="M120.179 63.4615L120.339 62.4236H126.247L126.088 63.4615H120.179Z" fill="#00305B"/>
<path fill-rule="evenodd" clip-rule="evenodd" d="M103.093 45.7369L103.173 45.0183H117.465L117.305 45.7369H103.093Z" fill="#00305B"/>
<path fill-rule="evenodd" clip-rule="evenodd" d="M102.774 47.4934L102.934 46.2958H117.225L116.986 47.4934H102.774Z" fill="#00305B"/>
<path fill-rule="evenodd" clip-rule="evenodd" d="M102.375 49.2499L102.614 48.1321H116.906L116.666 49.2499H102.375Z" fill="#00305B"/>
<path fill-rule="evenodd" clip-rule="evenodd" d="M102.055 51.0862L102.295 49.8886H108.043L107.884 51.0862H102.055Z" fill="#00305B"/>
<path fill-rule="evenodd" clip-rule="evenodd" d="M101.736 52.8427L101.976 51.7249H107.724V51.8846H115.229L115.069 52.8427H101.736Z" fill="#00305B"/>
<path fill-rule="evenodd" clip-rule="evenodd" d="M101.417 54.679L101.656 53.4814H114.99L114.75 54.679H101.417Z" fill="#00305B"/>
<path fill-rule="evenodd" clip-rule="evenodd" d="M101.097 56.4355L101.337 55.3178H114.59L114.511 56.0363H106.926L106.846 56.4355H101.097Z" fill="#00305B"/>
<path fill-rule="evenodd" clip-rule="evenodd" d="M100.778 58.192L101.018 57.0743H106.766L106.606 58.192H100.778Z" fill="#00305B"/>
<path fill-rule="evenodd" clip-rule="evenodd" d="M100.459 60.0284L100.698 58.9106H106.447V58.9905H115.549L115.309 60.0284H100.459Z" fill="#00305B"/>
<path fill-rule="evenodd" clip-rule="evenodd" d="M100.139 61.7849L100.379 60.6671H115.229L115.069 61.7849H100.139Z" fill="#00305B"/>
<path fill-rule="evenodd" clip-rule="evenodd" d="M99.8997 63.4615L100.059 62.4236H114.91L114.75 63.4615H99.8997Z" fill="#00305B"/>
<path fill-rule="evenodd" clip-rule="evenodd" d="M91.9156 45.7369L92.3149 45.0183H99.5804L99.4207 45.7369H91.9156Z" fill="#00305B"/>
<path fill-rule="evenodd" clip-rule="evenodd" d="M78.6621 45.7369L78.8218 45.0183H86.0074L86.0873 45.7369H78.6621Z" fill="#00305B"/>
<path fill-rule="evenodd" clip-rule="evenodd" d="M96.5464 62.4236L96.3867 63.4615H91.1172L91.3568 62.4236H96.5464Z" fill="#00305B"/>
<path fill-rule="evenodd" clip-rule="evenodd" d="M96.8658 60.6671L96.6263 61.7849H91.4366L91.6761 60.6671H96.8658Z" fill="#00305B"/>
<path fill-rule="evenodd" clip-rule="evenodd" d="M97.1053 58.9106L96.9456 60.0284H91.8358L92.0753 58.9106H97.1053Z" fill="#00305B"/>
<path fill-rule="evenodd" clip-rule="evenodd" d="M97.4247 57.0743L97.265 58.192H92.235L92.3947 57.0743H97.4247Z" fill="#00305B"/>
<path fill-rule="evenodd" clip-rule="evenodd" d="M97.744 55.3178L97.5844 56.4355H92.5544L92.7939 55.3178H97.744Z" fill="#00305B"/>
<path fill-rule="evenodd" clip-rule="evenodd" d="M98.0634 53.4814L97.9037 54.679H92.9536L93.1931 53.4814H98.0634Z" fill="#00305B"/>
<path fill-rule="evenodd" clip-rule="evenodd" d="M98.3828 51.7249L98.1432 52.8427H93.3528L93.5125 51.7249H98.3828Z" fill="#00305B"/>
<path fill-rule="evenodd" clip-rule="evenodd" d="M98.7021 49.8886L98.4626 51.0862H93.6721L93.9117 49.8886H98.7021Z" fill="#00305B"/>
<path fill-rule="evenodd" clip-rule="evenodd" d="M91.1172 47.4934L91.6761 46.2958H99.3409L99.1013 47.4934H91.1172Z" fill="#00305B"/>
<path fill-rule="evenodd" clip-rule="evenodd" d="M90.239 49.2499L90.7979 48.1321H99.0215L98.782 49.2499H90.239Z" fill="#00305B"/>
<path fill-rule="evenodd" clip-rule="evenodd" d="M89.4406 51.0862L89.9196 49.9684H93.8318C93.6721 50.3676 93.5923 50.7668 93.4326 51.0862H89.4406Z" fill="#00305B"/>
<path fill-rule="evenodd" clip-rule="evenodd" d="M88.5623 52.8427L89.1212 51.7249H93.273C93.1931 51.9645 93.1133 52.204 93.0334 52.3637L92.7939 52.8427H88.5623Z" fill="#00305B"/>
<path fill-rule="evenodd" clip-rule="evenodd" d="M88.4825 62.4236L88.0035 63.4615H83.9316L83.8517 62.4236H88.4825Z" fill="#00305B"/>
<path fill-rule="evenodd" clip-rule="evenodd" d="M89.2809 60.6671L88.722 61.7849H83.7719L83.692 60.6671H89.2809Z" fill="#00305B"/>
<path fill-rule="evenodd" clip-rule="evenodd" d="M90.0793 58.9106L89.6003 60.0284H83.6122L83.5324 58.9106H90.0793Z" fill="#00305B"/>
<path fill-rule="evenodd" clip-rule="evenodd" d="M87.7639 54.679L88.3228 53.4814H92.5544L91.9955 54.679H87.7639Z" fill="#00305B"/>
<path fill-rule="evenodd" clip-rule="evenodd" d="M87.1252 56.4355C87.2051 56.2759 87.2051 56.1162 87.2051 55.9565C87.2849 55.717 87.3647 55.4775 87.4446 55.3178H91.6761L91.1971 56.4355H87.1252Z" fill="#00305B"/>
<path fill-rule="evenodd" clip-rule="evenodd" d="M86.9655 57.0743C86.9655 57.1541 86.9655 57.1541 86.9655 57.1541C86.9655 57.1541 86.9655 57.1541 86.9655 57.0743H90.8777L90.3188 58.192H83.3727L83.213 57.0743H86.9655Z" fill="#00305B"/>
<path fill-rule="evenodd" clip-rule="evenodd" d="M86.9655 55.3178C86.9655 55.3976 86.9655 55.5573 86.9655 55.6371C86.9655 55.8767 86.9655 56.1162 86.9655 56.3557C86.9655 56.3557 86.9655 56.3557 86.9655 56.4355H83.213L83.0533 55.3178H86.9655Z" fill="#00305B"/>
<path fill-rule="evenodd" clip-rule="evenodd" d="M86.8058 53.4814L86.9655 54.679H83.0533L82.9735 53.4814H86.8058Z" fill="#00305B"/>
<path fill-rule="evenodd" clip-rule="evenodd" d="M86.6462 51.7249L86.726 52.8427H82.8937L82.8138 52.2838C82.8138 52.1241 82.8138 51.9645 82.734 51.7249H86.6462V51.7249Z" fill="#00305B"/>
<path fill-rule="evenodd" clip-rule="evenodd" d="M86.4865 49.8886L86.5663 51.0064H82.734C82.734 50.6072 82.734 50.2878 82.734 49.8886H86.4865Z" fill="#00305B"/>
<path fill-rule="evenodd" clip-rule="evenodd" d="M78.3427 47.4934L78.5822 46.2958H86.1671L86.247 47.4934H78.3427Z" fill="#00305B"/>
<path fill-rule="evenodd" clip-rule="evenodd" d="M78.0233 49.2499L78.2629 48.1321H86.3268L86.4066 49.2499H78.0233Z" fill="#00305B"/>
<path fill-rule="evenodd" clip-rule="evenodd" d="M77.7838 51.0862L77.9435 49.8886H82.8138L82.6541 51.0862H77.7838Z" fill="#00305B"/>
<path fill-rule="evenodd" clip-rule="evenodd" d="M77.4645 52.8427L77.6242 51.7249H82.4945L82.3348 52.8427H77.4645Z" fill="#00305B"/>
<path fill-rule="evenodd" clip-rule="evenodd" d="M77.1451 54.679L77.3048 53.4814H82.2549L82.0952 54.679H77.1451Z" fill="#00305B"/>
<path fill-rule="evenodd" clip-rule="evenodd" d="M76.8257 56.4355L76.9854 55.3178H82.0154L81.8557 56.4355H76.8257Z" fill="#00305B"/>
<path fill-rule="evenodd" clip-rule="evenodd" d="M76.5064 58.192L76.6661 57.0743H81.7759L81.6162 58.192H76.5064Z" fill="#00305B"/>
<path fill-rule="evenodd" clip-rule="evenodd" d="M76.187 60.0284L76.4265 58.9106H81.5363L81.3767 60.0284H76.187Z" fill="#00305B"/>
<path fill-rule="evenodd" clip-rule="evenodd" d="M75.8676 61.7849L76.1072 60.6671H81.2968L81.1371 61.7849H75.8676Z" fill="#00305B"/>
<path fill-rule="evenodd" clip-rule="evenodd" d="M75.5483 63.4615L75.7878 62.4236H81.0573L80.8976 63.4615H75.5483Z" fill="#00305B"/>
</svg>
