<svg width="190" height="110" viewBox="0 0 190 110" fill="none" xmlns="http://www.w3.org/2000/svg">
<path d="M151.33 61.4707V47.2498H154.429C156.415 47.2498 157.924 47.2498 159.036 48.0443C160.625 49.0771 161.499 51.2222 161.499 54.4C161.499 57.6573 160.705 59.8023 158.957 60.8351C157.924 61.4707 156.494 61.4707 154.667 61.4707H151.33ZM153.714 45.8993H149.741V62.8213H154.429C156.653 62.8213 158.321 62.7419 159.513 62.1063C161.817 60.8351 163.088 58.2134 163.088 54.3206C163.088 50.666 161.896 48.1237 159.91 46.7732C158.56 45.8993 156.971 45.8198 154.985 45.8198H153.714V45.8993ZM132.422 54.4C132.422 59.9612 135.52 63.3774 140.208 63.3774C144.974 63.3774 147.993 59.9612 147.993 54.4C147.993 48.8388 144.895 45.4226 140.208 45.4226C135.52 45.4226 132.422 48.7593 132.422 54.4ZM134.011 54.4C134.011 49.6332 136.553 46.8526 140.208 46.8526C143.942 46.8526 146.404 49.6332 146.404 54.4C146.404 59.1668 143.942 61.9474 140.208 61.9474C136.553 61.9474 134.011 59.1668 134.011 54.4ZM116.533 54.4C116.533 49.6332 119.075 46.8526 122.729 46.8526C126.463 46.8526 128.926 49.6332 128.926 54.4C128.926 59.1668 126.463 61.9474 122.729 61.9474C118.996 61.9474 116.533 59.1668 116.533 54.4ZM114.944 54.4C114.944 59.9612 118.042 63.3774 122.729 63.3774C127.496 63.3774 130.515 59.9612 130.515 54.4C130.515 48.8388 127.417 45.4226 122.729 45.4226C117.963 45.4226 114.944 48.7593 114.944 54.4ZM98.7367 62.8213H100.405L104.298 47.7265L108.191 62.8213H109.859L114.308 45.8198H112.799L108.985 60.4379L105.251 45.8198H103.345L99.6106 60.4379L95.8767 45.8993H94.3672L98.7367 62.8213Z" fill="#D06F00"/>
<path fill-rule="evenodd" clip-rule="evenodd" d="M20.8 45.8993H37.8015V48.8388H20.8V45.8993ZM37.722 53.5261H20.8V50.5866H37.8015V53.5261H37.722ZM37.722 58.2134H20.8V55.2739H37.8015V58.2134H37.722ZM37.722 62.9007H20.8V59.9612H37.8015V62.9007H37.722Z" fill="#D06F00"/>
<path d="M42.0121 62.9007H47.5734C50.1951 62.9007 52.2607 62.8213 53.6907 62.1857C56.5508 60.9146 58.0603 58.2929 58.0603 54.4C58.0603 50.7455 56.8686 48.2032 54.4852 46.8526C52.8963 45.9787 51.069 45.8993 48.6062 45.8993H42.0121V62.9007V62.9007ZM47.4145 58.5312V50.1894H49.0034C51.5457 50.1894 52.5785 51.3016 52.5785 54.4C52.5785 57.5779 51.6251 58.6107 49.0034 58.6107H47.4145V58.5312ZM59.7287 62.9007H73.6317V58.7695H65.2104V56.1478H72.0428V52.255H65.2104V49.951H73.314V45.8993H59.7287V62.9007ZM75.3796 62.9007H80.7819V57.4984L82.1325 56.0684L86.2637 62.9007H92.7783L85.9459 52.1755L91.9838 45.8993H85.6281L80.7819 51.5399V45.8993H75.3796V62.9007Z" fill="#1D1D1B"/>
<path d="M167.855 45.9787C168.173 45.9787 168.411 46.0581 168.649 46.1376C168.888 46.217 169.126 46.3759 169.364 46.6143C169.523 46.7732 169.682 47.0115 169.841 47.2498C169.921 47.4882 170 47.806 170 48.0443C170 48.3621 169.921 48.6004 169.841 48.8388C169.762 49.0771 169.603 49.3154 169.364 49.4743C169.126 49.6332 168.967 49.7921 168.649 49.951C168.411 50.0305 168.093 50.1099 167.855 50.1099C167.537 50.1099 167.299 50.0305 167.06 49.951C166.822 49.8716 166.584 49.7127 166.345 49.4743C166.187 49.3154 166.028 49.0771 165.869 48.8388C165.789 48.6004 165.71 48.3621 165.71 48.0443C165.71 47.8854 165.71 47.6471 165.789 47.4882C165.869 47.3293 165.948 47.1704 166.028 46.9321C166.187 46.6143 166.504 46.3759 166.743 46.217C167.14 46.0581 167.458 45.9787 167.855 45.9787ZM167.855 46.2965C167.617 46.2965 167.378 46.3759 167.219 46.4554C166.981 46.5348 166.822 46.6937 166.663 46.8526C166.504 47.0115 166.345 47.2498 166.266 47.4087C166.187 47.6471 166.107 47.8854 166.107 48.0443C166.107 48.2826 166.187 48.521 166.266 48.6799C166.345 48.9182 166.504 49.0771 166.663 49.236C166.822 49.3949 166.981 49.5538 167.219 49.6332C167.458 49.7127 167.617 49.7921 167.855 49.7921C168.093 49.7921 168.332 49.7127 168.491 49.6332C168.729 49.5538 168.888 49.3949 169.047 49.236C169.206 49.0771 169.364 48.9182 169.444 48.6799C169.523 48.4415 169.603 48.2826 169.603 48.0443C169.603 47.806 169.523 47.5676 169.444 47.3293C169.364 47.0909 169.206 46.9321 169.047 46.7732C168.888 46.6143 168.649 46.4554 168.491 46.3759C168.332 46.3759 168.093 46.2965 167.855 46.2965ZM166.981 46.8526H167.855C168.173 46.8526 168.411 46.9321 168.57 47.0115C168.729 47.0909 168.808 47.2498 168.808 47.4882C168.808 47.6471 168.729 47.806 168.649 47.8854C168.57 47.9649 168.411 48.0443 168.252 48.1237L168.808 49.1565H168.173L167.696 48.2032H167.378V49.1565H166.822V46.8526H166.981ZM167.537 47.2498V47.8854H167.855C168.014 47.8854 168.173 47.8854 168.252 47.806C168.332 47.7265 168.332 47.6471 168.332 47.5676C168.332 47.4882 168.252 47.3293 168.173 47.3293C168.093 47.2498 167.934 47.2498 167.776 47.2498H167.537Z" fill="#1D1D1B"/>
</svg>
