<svg width="260" height="150" viewBox="0 0 260 150" fill="none" xmlns="http://www.w3.org/2000/svg">
<path d="M203.742 82.058C206.34 82.8845 208.937 83.2387 211.535 83.2387C218.384 83.2387 221.808 80.641 221.808 75.5637C221.808 71.6672 219.919 69.6599 215.786 68.5972C212.716 67.7707 211.299 67.7707 211.299 66.4718C211.299 65.4091 212.48 64.7007 214.605 64.7007C216.258 64.7007 218.265 65.0549 220.509 65.9995V60.2138C218.147 59.7415 215.786 59.3872 213.424 59.3872C206.93 59.3872 203.506 62.2211 203.506 66.9441C203.506 70.6045 205.395 72.7299 209.292 73.7926C212.244 74.501 214.015 74.501 214.015 76.036C214.015 77.0987 212.952 77.6891 210.827 77.6891C208.701 77.6891 206.34 77.2168 203.624 76.036V82.058H203.742ZM192.879 82.6483H200.554V59.9776H192.879V82.6483ZM175.167 82.6483H184.496L191.698 60.0957H183.787L180.009 75.4457L176.23 60.0957H167.965L175.167 82.6483ZM147.301 82.6483H154.976V74.9734H156.511C158.873 74.9734 159.109 76.036 159.463 78.5157L160.054 82.7664H168.083L166.902 76.7445C166.312 73.9107 165.131 72.6118 162.415 72.2576C165.839 71.5491 167.492 69.5418 167.492 66.3538C167.492 61.9849 164.895 60.2138 159.699 60.2138H147.419V82.6483H147.301ZM154.74 64.9368H156.275C158.637 64.9368 159.936 65.4091 159.936 67.4164C159.936 69.4238 158.755 69.8961 156.275 69.8961H154.74V64.9368ZM126.638 82.6483H144.113V77.2168H134.077V73.9107H143.523V68.5972H134.077V65.4091H143.995V59.9776H126.638V82.6483ZM105.856 82.058C108.454 82.8845 111.052 83.2387 113.65 83.2387C120.498 83.2387 123.922 80.641 123.922 75.5637C123.922 71.6672 122.033 69.6599 117.9 68.5972C114.83 67.7707 113.413 67.7707 113.413 66.4718C113.413 65.4091 114.594 64.7007 116.719 64.7007C118.373 64.7007 120.38 65.0549 122.623 65.9995V60.2138C120.262 59.7415 117.9 59.3872 115.539 59.3872C109.045 59.3872 105.62 62.2211 105.62 66.9441C105.62 70.6045 107.51 72.7299 111.406 73.7926C114.358 74.501 116.129 74.501 116.129 76.036C116.129 77.0987 115.066 77.6891 112.941 77.6891C110.816 77.6891 108.454 77.2168 105.738 76.036V82.058H105.856ZM103.023 81.9399V71.313H96.4103V77.453C95.938 77.453 95.5838 77.571 95.3476 77.571C92.2776 77.571 90.6245 75.2095 90.6245 71.4311C90.6245 67.2984 92.7499 65.0549 96.6465 65.0549C98.5357 65.0549 100.425 65.4091 102.314 66.1176V60.0957C100.307 59.6234 98.1815 59.3872 96.1742 59.3872C87.3184 59.3872 82.8315 63.4018 82.8315 71.0768C82.8315 78.5157 87.6726 83.1206 95.938 83.1206C98.2995 83.1206 100.661 82.7664 103.023 81.9399Z" fill="#1D1D1B"/>
<path d="M212.598 88.0799L215.314 92.921V96.1091H216.73V92.921L219.446 88.0799H217.911L216.14 91.7402L214.369 88.0799H212.598ZM200.554 88.0799V96.1091H201.853V90.2053C201.853 89.9691 201.853 89.4968 201.735 88.7883C201.853 89.2606 201.853 89.7329 201.971 89.9691L203.978 96.1091H205.277L207.402 89.9691C207.402 89.851 207.521 89.3787 207.639 88.7883C207.521 89.2606 207.521 89.7329 207.521 90.2053V96.1091H208.937V88.0799H206.694L204.805 93.6295C204.687 93.9837 204.687 94.456 204.569 94.9283C204.569 94.3379 204.451 93.8656 204.332 93.6295L202.561 88.0799H200.554ZM192.997 89.1426C194.178 89.1426 195.004 90.3233 195.004 92.0945C195.004 93.9837 194.178 95.0464 192.997 95.0464C191.816 95.0464 190.99 93.8656 190.99 92.0945C190.872 90.3233 191.816 89.1426 192.997 89.1426ZM192.997 87.9618C190.872 87.9618 189.455 89.4968 189.455 92.0945C189.455 94.6922 190.754 96.2272 192.997 96.2272C195.241 96.2272 196.539 94.6922 196.539 92.0945C196.539 89.4968 195.122 87.9618 192.997 87.9618ZM180.717 89.3787H181.544C183.315 89.3787 184.141 90.3233 184.141 92.2126C184.141 93.9837 183.197 95.0464 181.544 95.0464H180.717V89.3787ZM179.3 88.0799V96.1091H181.307C182.606 96.1091 183.433 95.991 184.141 95.5187C185.204 94.8102 185.794 93.6295 185.794 92.0945C185.794 90.5595 185.204 89.3787 184.141 88.6703C183.551 88.316 182.606 88.0799 181.426 88.0799H179.3V88.0799ZM166.43 89.4968L167.611 93.1572H165.131L166.43 89.4968ZM165.603 88.0799L162.651 96.1091H164.068L164.659 94.2199H167.965L168.555 96.1091H170.09L167.256 88.0799H165.603ZM147.774 88.0799L150.489 92.921V96.1091H151.906V92.921L154.622 88.0799H153.087L151.316 91.7402L149.545 88.0799H147.774ZM139.154 88.0799V89.2606H141.161V95.991H142.578V89.2606H144.586V88.0799H139.154ZM129.944 88.0799V96.1091H131.361V92.2126L134.195 96.1091H136.084L132.778 91.8583L135.848 88.0799H134.195L131.479 91.6222V88.0799H129.944ZM121.206 88.0799V96.1091H125.93V94.9283H122.741V92.5668H125.693V91.386H122.741V89.2606H125.811V88.0799H121.206ZM115.303 88.0799V92.921C115.303 94.2199 115.066 94.9283 114.122 94.9283C113.886 94.9283 113.65 94.9283 113.413 94.8102V96.1091C113.768 96.2272 114.122 96.2272 114.476 96.2272C116.129 96.2272 116.72 95.2826 116.72 93.2752V88.0799H115.303ZM106.683 89.1426C107.864 89.1426 108.69 90.3233 108.69 92.0945C108.69 93.9837 107.864 95.0464 106.683 95.0464C105.502 95.0464 104.676 93.8656 104.676 92.0945C104.676 90.3233 105.502 89.1426 106.683 89.1426ZM106.683 87.9618C104.558 87.9618 103.141 89.4968 103.141 92.0945C103.141 94.6922 104.44 96.2272 106.683 96.2272C108.808 96.2272 110.225 94.6922 110.225 92.0945C110.225 89.4968 108.926 87.9618 106.683 87.9618ZM95.7019 89.2606H96.4103C97.473 89.2606 98.0634 89.6149 98.0634 90.4414C98.0634 91.1499 97.5911 91.6222 96.5284 91.6222H95.8199V89.2606H95.7019ZM94.2849 88.0799V96.1091H95.7019V92.8029H96.1742C96.8826 92.8029 97.2369 93.0391 97.473 93.7476L98.2995 96.2272H99.9526L98.8899 93.3933C98.6538 92.8029 98.5357 92.3306 97.9453 92.2126C99.008 91.9764 99.4803 91.2679 99.4803 90.2053C99.4803 88.7883 98.5357 88.0799 96.7646 88.0799H94.2849V88.0799ZM86.9642 89.2606H87.6726C88.6173 89.2606 89.0896 89.7329 89.0896 90.6776C89.0896 91.5041 88.6173 91.9764 87.5546 91.9764H86.9642V89.2606ZM85.4292 88.0799V96.1091H86.9642V93.0391H87.7907C89.5619 93.0391 90.6246 92.0945 90.6246 90.5595C90.6246 88.9064 89.68 88.0799 87.7907 88.0799H85.4292V88.0799Z" fill="#1D1D1B"/>
<path d="M72.3636 53.1818H26V98.1818H72.3636V53.1818Z" fill="#E20613"/>
<path d="M43.42 82.1053V90H54.9437V82.1053L49.4123 76.2753L43.42 82.1053ZM41.5762 67.7733L32.8182 76.8826V90H41.8067V81.6194L48.3752 75.0607L41.5762 67.7733ZM49.1818 60L42.7286 66.6802L56.557 81.6194V90H65.5455V76.8826L49.1818 60Z" fill="white"/>
<path d="M226.649 63.1657H227.357C227.83 63.1657 228.184 63.0476 228.184 62.5753C228.184 62.103 227.83 61.9849 227.357 61.9849H226.649V63.1657ZM226.059 61.5126H227.475C228.302 61.5126 228.774 61.8668 228.774 62.5753C228.774 63.1657 228.42 63.638 227.83 63.638L228.892 65.2911H228.184L227.121 63.638H226.649V65.2911H226.059V61.5126V61.5126ZM227.239 66.2357C228.774 66.2357 229.837 65.0549 229.837 63.4018C229.837 61.8668 228.656 60.568 227.239 60.568C225.704 60.568 224.642 61.7488 224.642 63.4018C224.642 64.9368 225.822 66.2357 227.239 66.2357ZM227.239 60.0957C229.01 60.0957 230.545 61.5126 230.545 63.4018C230.545 65.173 229.129 66.708 227.239 66.708C225.468 66.708 223.933 65.2911 223.933 63.4018C224.051 61.6307 225.468 60.0957 227.239 60.0957Z" fill="#1D1D1B"/>
</svg>
