<svg width="190" height="110" viewBox="0 0 190 110" fill="none" xmlns="http://www.w3.org/2000/svg">
<path d="M149.344 60.1758C151.249 60.782 153.154 61.0417 155.059 61.0417C160.081 61.0417 162.592 59.1368 162.592 55.4134C162.592 52.556 161.207 51.0839 158.176 50.3046C155.925 49.6985 154.886 49.6985 154.886 48.746C154.886 47.9667 155.752 47.4472 157.31 47.4472C158.523 47.4472 159.995 47.7069 161.64 48.3997V44.1568C159.908 43.8104 158.176 43.5506 156.445 43.5506C151.682 43.5506 149.171 45.6288 149.171 49.0924C149.171 51.7766 150.556 53.3353 153.414 54.1146C155.579 54.6341 156.877 54.6341 156.877 55.7598C156.877 56.5391 156.098 56.972 154.54 56.972C152.981 56.972 151.249 56.6257 149.258 55.7598V60.1758H149.344ZM141.378 60.6088H147.006V43.9836H141.378V60.6088ZM128.389 60.6088H135.23L140.512 44.0702H134.711L131.94 55.3268L129.169 44.0702H123.108L128.389 60.6088ZM107.954 60.6088H113.583V54.9805H114.708C116.44 54.9805 116.613 55.7598 116.873 57.5782L117.306 60.6954H123.194L122.328 56.2793C121.895 54.2012 121.029 53.2487 119.038 52.9889C121.549 52.4694 122.761 50.9973 122.761 48.6594C122.761 45.4556 120.856 44.1568 117.046 44.1568H108.041V60.6088H107.954ZM113.409 47.6203H114.535C116.267 47.6203 117.219 47.9667 117.219 49.4387C117.219 50.9108 116.354 51.2571 114.535 51.2571H113.409V47.6203ZM92.8012 60.6088H105.616V56.6257H98.2563V54.2012H105.183V50.3046H98.2563V47.9667H105.53V43.9836H92.8012V60.6088ZM77.5614 60.1758C79.4664 60.782 81.3713 61.0417 83.2763 61.0417C88.2985 61.0417 90.8096 59.1368 90.8096 55.4134C90.8096 52.556 89.4242 51.0839 86.3935 50.3046C84.1422 49.6985 83.1031 49.6985 83.1031 48.746C83.1031 47.9667 83.969 47.4472 85.5276 47.4472C86.7399 47.4472 88.2119 47.7069 89.8571 48.3997V44.1568C88.1253 43.8104 86.3935 43.5506 84.6617 43.5506C79.8993 43.5506 77.3882 45.6288 77.3882 49.0924C77.3882 51.7766 78.7736 53.3353 81.6311 54.1146C83.7958 54.6341 85.0947 54.6341 85.0947 55.7598C85.0947 56.5391 84.3154 56.972 82.7568 56.972C81.1982 56.972 79.4664 56.6257 77.4748 55.7598V60.1758H77.5614ZM75.4832 60.0892V52.2962H70.6342V56.7988C70.2879 56.7988 70.0281 56.8854 69.8549 56.8854C67.6036 56.8854 66.3913 55.1536 66.3913 52.3828C66.3913 49.3521 67.9499 47.7069 70.8074 47.7069C72.1928 47.7069 73.5783 47.9667 74.9637 48.4862V44.0702C73.4917 43.7238 71.9331 43.5506 70.461 43.5506C63.9668 43.5506 60.6764 46.4947 60.6764 52.123C60.6764 57.5781 64.2266 60.9551 70.2879 60.9551C72.0197 60.9551 73.7514 60.6954 75.4832 60.0892Z" fill="#1D1D1B"/>
<path d="M155.838 64.5919L157.83 68.1421V70.48H158.869V68.1421L160.861 64.5919H159.735L158.436 67.2762L157.137 64.5919H155.838ZM147.006 64.5919V70.48H147.959V66.1505C147.959 65.9773 147.959 65.631 147.872 65.1114C147.959 65.4578 147.959 65.8042 148.045 65.9773L149.517 70.48H150.47L152.028 65.9773C152.028 65.8907 152.115 65.5444 152.202 65.1114C152.115 65.4578 152.115 65.8042 152.115 66.1505V70.48H153.154V64.5919H151.509L150.123 68.6616C150.037 68.9214 150.037 69.2677 149.95 69.6141C149.95 69.1812 149.864 68.8348 149.777 68.6616L148.478 64.5919H147.006ZM141.465 65.3712C142.33 65.3712 142.937 66.2371 142.937 67.536C142.937 68.9214 142.33 69.7007 141.465 69.7007C140.599 69.7007 139.992 68.8348 139.992 67.536C139.906 66.2371 140.599 65.3712 141.465 65.3712ZM141.465 64.5053C139.906 64.5053 138.867 65.631 138.867 67.536C138.867 69.4409 139.819 70.5666 141.465 70.5666C143.11 70.5666 144.062 69.4409 144.062 67.536C144.062 65.631 143.023 64.5053 141.465 64.5053ZM132.459 65.5444H133.065C134.364 65.5444 134.97 66.2371 134.97 67.6225C134.97 68.9214 134.278 69.7007 133.065 69.7007H132.459V65.5444ZM131.42 64.5919V70.48H132.892C133.845 70.48 134.451 70.3934 134.97 70.0471C135.75 69.5275 136.183 68.6616 136.183 67.536C136.183 66.4103 135.75 65.5444 134.97 65.0249C134.537 64.7651 133.845 64.5919 132.979 64.5919H131.42V64.5919ZM121.982 65.631L122.848 68.3153H121.029L121.982 65.631ZM121.376 64.5919L119.211 70.48H120.25L120.683 69.0946H123.108L123.54 70.48H124.666L122.588 64.5919H121.376ZM108.301 64.5919L110.292 68.1421V70.48H111.331V68.1421L113.323 64.5919H112.197L110.898 67.2762L109.6 64.5919H108.301ZM101.98 64.5919V65.4578H103.452V70.3934H104.491V65.4578H105.963V64.5919H101.98ZM95.2257 64.5919V70.48H96.2647V67.6225L98.3429 70.48H99.7283L97.3038 67.3628L99.5551 64.5919H98.3429L96.3513 67.1896V64.5919H95.2257ZM88.818 64.5919V70.48H92.2816V69.6141H89.9437V67.8823H92.1084V67.0164H89.9437V65.4578H92.195V64.5919H88.818ZM84.4886 64.5919V68.1421C84.4886 69.0946 84.3154 69.6141 83.6227 69.6141C83.4495 69.6141 83.2763 69.6141 83.1031 69.5275V70.48C83.3629 70.5666 83.6227 70.5666 83.8824 70.5666C85.0947 70.5666 85.5276 69.8739 85.5276 68.4018V64.5919H84.4886ZM78.1675 65.3712C79.0334 65.3712 79.6395 66.2371 79.6395 67.536C79.6395 68.9214 79.0334 69.7007 78.1675 69.7007C77.3016 69.7007 76.6955 68.8348 76.6955 67.536C76.6955 66.2371 77.3016 65.3712 78.1675 65.3712ZM78.1675 64.5053C76.6089 64.5053 75.5698 65.631 75.5698 67.536C75.5698 69.4409 76.5223 70.5666 78.1675 70.5666C79.7261 70.5666 80.7652 69.4409 80.7652 67.536C80.7652 65.631 79.8127 64.5053 78.1675 64.5053ZM70.1147 65.4578H70.6342C71.4135 65.4578 71.8465 65.7176 71.8465 66.3237C71.8465 66.8432 71.5001 67.1896 70.7208 67.1896H70.2013V65.4578H70.1147ZM69.0756 64.5919V70.48H70.1147V68.0555H70.461C70.9806 68.0555 71.2403 68.2287 71.4135 68.7482L72.0197 70.5666H73.2319L72.4526 68.4884C72.2794 68.0555 72.1928 67.7091 71.7599 67.6225C72.5392 67.4494 72.8855 66.9298 72.8855 66.1505C72.8855 65.1114 72.1928 64.5919 70.894 64.5919H69.0756V64.5919ZM63.7071 65.4578H64.2266C64.9193 65.4578 65.2657 65.8042 65.2657 66.4969C65.2657 67.103 64.9193 67.4494 64.14 67.4494H63.7071V65.4578ZM62.5814 64.5919V70.48H63.7071V68.2287H64.3132C65.612 68.2287 66.3913 67.5359 66.3913 66.4103C66.3913 65.198 65.6986 64.5919 64.3132 64.5919H62.5814V64.5919Z" fill="#1D1D1B"/>
<path d="M53 39H19V72H53V39Z" fill="#E20613"/>
<path d="M31.7746 60.2105V66H40.2254V60.2105L36.169 55.9352L31.7746 60.2105ZM30.4225 49.7004L24 56.3806V66H30.5915V59.8543L35.4084 55.0445L30.4225 49.7004ZM36 44L31.2676 48.8988L41.4084 59.8543V66H48V56.3806L36 44Z" fill="white"/>
<path d="M166.143 46.3215H166.662C167.008 46.3215 167.268 46.2349 167.268 45.8886C167.268 45.5422 167.008 45.4556 166.662 45.4556H166.143V46.3215ZM165.71 45.1093H166.749C167.355 45.1093 167.701 45.369 167.701 45.8886C167.701 46.3215 167.441 46.6679 167.008 46.6679L167.788 47.8801H167.268L166.489 46.6679H166.143V47.8801H165.71V45.1093V45.1093ZM166.575 48.5728C167.701 48.5728 168.48 47.7069 168.48 46.4947C168.48 45.369 167.615 44.4165 166.575 44.4165C165.45 44.4165 164.671 45.2824 164.671 46.4947C164.671 47.6203 165.536 48.5728 166.575 48.5728ZM166.575 44.0702C167.874 44.0702 169 45.1092 169 46.4947C169 47.7935 167.961 48.9192 166.575 48.9192C165.277 48.9192 164.151 47.8801 164.151 46.4947C164.238 45.1958 165.277 44.0702 166.575 44.0702Z" fill="#1D1D1B"/>
</svg>
