<?xml version="1.0" encoding="utf-8"?>
<!-- Generator: Adobe Illustrator 25.4.1, SVG Export Plug-In . SVG Version: 6.00 Build 0)  -->
<svg version="1.1" id="Vrstva_1" xmlns="http://www.w3.org/2000/svg" xmlns:xlink="http://www.w3.org/1999/xlink" x="0px" y="0px"
	 viewBox="0 0 190 110" style="enable-background:new 0 0 190 110;" xml:space="preserve">
<style type="text/css">
	.st0{fill:#1A171C;}
	.st1{fill:#E1001A;}
	.st2{fill:none;stroke:#1D1D1B;stroke-width:0.1892;stroke-miterlimit:10;}
</style>
<g>
	<g>
		<g>
			<path class="st0" d="M34.9,69.9V40.1H53c6.1,0,8.9,4.1,8.9,7.6c0,3.7-2.2,6.2-5.1,6.8c3.2,0.5,5.7,3.4,5.7,7.3
				c0,4.2-2.8,8.1-8.8,8.1H34.9z M43.9,51.2h6.9c0.9,0,1.8-0.9,1.8-2s-0.9-1.9-1.8-1.9h-6.9V51.2z M43.9,62.6h7.2
				c1.3,0,2.2-0.9,2.2-2.1c0-1.1-0.8-2.1-2.2-2.1h-7.2V62.6z"/>
		</g>
		<g>
			<path class="st0" d="M64.9,69.9V40.1h22.6v7.5H73.9v3.5h13.3v7.5H73.9v3.8h13.6V70L64.9,69.9L64.9,69.9z"/>
		</g>
		<g>
			<path class="st0" d="M93.6,59c2.2,2.2,5.6,3.9,9.6,3.9c1.7,0,3.3-0.6,3.3-1.8c0-1.1-1.3-1.8-4.2-2.3c-4.9-0.9-12.4-2-12.4-9.5
				c0-5.1,4.2-9.7,12.4-9.7c4.9,0,9.2,1.4,12.7,4.2l-4.8,6.4c-2.6-2-5.9-3-8.3-3c-2.2,0-2.7,0.8-2.7,1.6c0,1.1,1.2,1.6,4.4,2.1
				c4.9,0.8,12.2,2.3,12.2,9.2c0,6.6-4.9,10.4-12.8,10.4c-6.3,0-10.7-1.9-13.9-4.7L93.6,59z"/>
		</g>
		<g>
			<path class="st0" d="M124.1,69.9v-22h-8v-7.8h25v7.8h-8v22H124.1z"/>
		</g>
	</g>
	<g>
		<g>
			<rect x="139.7" y="54.5" class="st1" width="15.4" height="15.4"/>
		</g>
	</g>
</g>
<line class="st2" x1="228.6" y1="666.7" x2="228.6" y2="666.7"/>
</svg>
