<?xml version="1.0" encoding="utf-8"?>
<!-- Generator: Adobe Illustrator 25.4.1, SVG Export Plug-In . SVG Version: 6.00 Build 0)  -->
<svg version="1.1" id="Vrstva_1" xmlns="http://www.w3.org/2000/svg" xmlns:xlink="http://www.w3.org/1999/xlink" x="0px" y="0px"
	 viewBox="0 0 190 110" style="enable-background:new 0 0 190 110;" xml:space="preserve">
<style type="text/css">
	.st0{fill:#1A171C;}
	.st1{fill:#E1001A;}
</style>
<g>
	<g>
		<g>
			<path class="st0" d="M0,78.5V31.4h28.6c9.7,0,14,6.5,14,12c0,5.9-3.5,9.8-8.1,10.8c5.1,0.8,9,5.4,9,11.5
				c0,6.6-4.4,12.8-13.9,12.8H0z M14.3,49h10.9c1.5,0,2.9-1.4,2.9-3.1c0-1.7-1.4-3-2.9-3H14.3V49z M14.2,67h11.4
				c2.1,0,3.4-1.5,3.4-3.3c0-1.7-1.3-3.3-3.4-3.3H14.2V67z"/>
		</g>
		<g>
			<path class="st0" d="M47.4,78.5V31.4h35.7v11.9H61.7v5.5h21v11.9h-21v6h21.5v11.9H47.4z"/>
		</g>
		<g>
			<path class="st0" d="M92.8,61.2c3.5,3.4,8.8,6.1,15.2,6.1c2.7,0,5.2-0.9,5.2-2.8c0-1.8-2-2.8-6.6-3.6c-7.8-1.4-19.6-3.2-19.6-15
				c0-8,6.6-15.3,19.6-15.3c7.7,0,14.6,2.2,20,6.6l-7.6,10.1c-4.1-3.1-9.4-4.7-13.1-4.7c-3.5,0-4.3,1.3-4.3,2.5
				c0,1.8,1.9,2.5,6.9,3.3c7.8,1.3,19.3,3.6,19.3,14.5c0,10.4-7.7,16.4-20.3,16.4c-10,0-16.9-3-21.9-7.5L92.8,61.2z"/>
		</g>
		<g>
			<path class="st0" d="M141,78.5V43.8h-12.6V31.4h39.5v12.4h-12.6v34.7H141z"/>
		</g>
	</g>
	<g>
		<g>
			<rect x="165.7" y="54.1" class="st1" width="24.3" height="24.3"/>
		</g>
	</g>
</g>
</svg>
