<?xml version="1.0" encoding="utf-8"?>
<!-- Generator: Adobe Illustrator 24.3.0, SVG Export Plug-In . SVG Version: 6.00 Build 0)  -->
<svg version="1.1" id="Vrstva_1" xmlns="http://www.w3.org/2000/svg" xmlns:xlink="http://www.w3.org/1999/xlink" x="0px" y="0px"
	 viewBox="0 0 190 110" style="enable-background:new 0 0 190 110;" xml:space="preserve">
<style type="text/css">
	.st0{fill:#FAB900;}
	.st1{fill:#1D1D1B;stroke:#1D1D1B;stroke-width:0.25;stroke-miterlimit:10;}
</style>
<path d="M32.3,33.3h2l2.4-6.5h9.5l2.4,6.5h2l-8-21.2h-2.3L32.3,33.3L32.3,33.3z M37.4,25.1l4.1-10.9l4.1,10.9H37.4L37.4,25.1z
	 M59.4,33.3h1.9V13.9h6.6v-1.7H52.8v1.7h6.6V33.3L59.4,33.3z M73.3,33.3h14.2v-1.7H75.3v-8.3h10.9v-1.7H75.3v-7.7h11.9v-1.7H73.3
	V33.3L73.3,33.3z M94,33.3h12.8v-1.7H95.9V12.1H94V33.3L94,33.3z M112,33.3h1.9V12.1H112V33.3L112,33.3z M121.6,33.3h14.2v-1.7
	h-12.3v-8.3h10.9v-1.7h-10.9v-7.7h11.9v-1.7h-13.9V33.3L121.6,33.3z M142.3,33.3h1.9v-9.5h6.2c3.5,0,4.1,0.9,4.3,4.5l0.2,2.8
	c0.1,1,0.2,1.7,0.5,2.2h2.2V33c-0.4-0.3-0.6-0.9-0.7-1.9l-0.3-3.2c-0.2-2.7-0.4-4.2-2.7-4.9c2.2-0.8,3.4-2.6,3.4-5.2
	c0-2.1-0.9-3.8-2.6-4.8c-1.5-0.8-3.2-0.9-5.5-0.9h-7.1V33.3L142.3,33.3z M144.3,22.1v-8.2h5.5c1.7,0,3.1,0,4.1,0.7
	c1,0.7,1.6,1.8,1.6,3.2c0,3.1-1.7,4.3-5.6,4.3H144.3L144.3,22.1z"/>
<rect x="32.3" y="42" class="st0" width="125.4" height="3.9"/>
<g>
	<polygon points="115.7,96.7 129.1,96.7 129.1,84.1 132.8,80.3 142.8,96.7 157.7,96.7 141.9,70.9 157.7,54.6 141.9,54.6 129.1,67.7 
		129.1,54.6 115.7,54.6 115.7,96.7 	"/>
	<polygon points="76.3,96.7 110.7,96.7 110.7,86.4 89.8,86.4 89.8,79.9 106.8,79.9 106.8,70.3 89.8,70.3 89.8,64.7 109.9,64.7 
		109.9,54.6 76.3,54.6 76.3,96.7 	"/>
	<path d="M45.8,86V65.2h3.8c6.4,0,8.8,2.8,8.8,10.4c0,7.8-2.3,10.4-9,10.4H45.8L45.8,86z M32.3,96.7h13.8c6.6,0,11.5-0.1,15.1-1.8
		C68.3,91.8,72,85.2,72,75.7c0-9.1-2.9-15.3-8.8-18.7c-3.9-2.2-8.5-2.4-14.6-2.4H32.3V96.7L32.3,96.7z"/>
</g>
<line class="st1" x1="32.3" y1="54.6" x2="32.3" y2="54.6"/>
</svg>
