<svg id="Group_1573" data-name="Group 1573" xmlns="http://www.w3.org/2000/svg" xmlns:xlink="http://www.w3.org/1999/xlink" width="53" height="53" viewBox="0 0 53 53">
  <defs>
    <clipPath id="clip-path">
      <rect id="Rectangle_1162" data-name="Rectangle 1162" width="53" height="53" fill="#e10b17"/>
    </clipPath>
  </defs>
  <g id="Group_1572" data-name="Group 1572" clip-path="url(#clip-path)">
    <path id="Path_1919" data-name="Path 1919" d="M51.318,21.611h-7.1a1.681,1.681,0,0,0-1.682,1.678V49.644H40.945V34.4a1.68,1.68,0,0,0-1.682-1.678h-7.1A1.68,1.68,0,0,0,30.48,34.4V49.644H28.517V1.678a1.682,1.682,0,0,0-3.364,0V4.161H10.248a1.615,1.615,0,0,0-.234.023,1.556,1.556,0,0,0-.205-.023A1.685,1.685,0,0,0,8.387,5L.225,19.094c-.016.028-.025.057-.038.086a1.468,1.468,0,0,0-.075.166,1.309,1.309,0,0,0-.048.156,1.444,1.444,0,0,0-.036.157,1.676,1.676,0,0,0-.019.182c0,.031-.009.062-.009.093s0,.065,0,.1v.029c.059,6.495,4.629,11.76,10.243,11.76,5.633,0,10.216-5.3,10.246-11.822v-.065c0-.038-.008-.074-.011-.112a1.674,1.674,0,0,0-.02-.2,1.494,1.494,0,0,0-.041-.154,1.035,1.035,0,0,0-.133-.326c-.019-.037-.033-.075-.055-.111L12.9,7.517H25.153V42.558H10.248a1.68,1.68,0,0,0-1.682,1.678v7.085A1.68,1.68,0,0,0,10.248,53h41.07A1.68,1.68,0,0,0,53,51.322V23.289a1.681,1.681,0,0,0-1.682-1.678M9.912,9.076l5.842,9.179H4.6Zm.336,19.388c-3.333,0-6.119-2.949-6.751-6.853H17c-.63,3.9-3.419,6.853-6.751,6.853m23.6,7.615h3.737V49.644H33.844ZM11.93,45.915H25.153v3.729H11.93Zm37.706,3.729H45.9V24.967h3.737Z" transform="translate(0 0)" fill="#e10b17"/>
    <path id="Path_1920" data-name="Path 1920" d="M48.019,5h-8.41a1.678,1.678,0,1,0,0,3.356h4.436l-9.513,9.491h-5.67a1.678,1.678,0,1,0,0,3.356h6.366a1.681,1.681,0,0,0,1.189-.492l9.92-9.9v4.254a1.682,1.682,0,0,0,3.364,0V6.678A1.68,1.68,0,0,0,48.019,5" transform="translate(3.299 0.594)" fill="#e10b17"/>
  </g>
</svg>
