<svg id="Group_1569" data-name="Group 1569" xmlns="http://www.w3.org/2000/svg" xmlns:xlink="http://www.w3.org/1999/xlink" width="53" height="53" viewBox="0 0 53 53">
  <defs>
    <clipPath id="clip-path">
      <rect id="Rectangle_1160" data-name="Rectangle 1160" width="53" height="53" fill="#e10b17"/>
    </clipPath>
  </defs>
  <g id="Group_1568" data-name="Group 1568" clip-path="url(#clip-path)">
    <path id="Path_1914" data-name="Path 1914" d="M26.84,34.408a1.635,1.635,0,0,0-2.075-1.025,13.885,13.885,0,0,1-3.259.685,1.634,1.634,0,0,0-1.4,1.077l-.861,2.4c-.183-.012-.368-.026-.552-.045l-.469-2.515A1.637,1.637,0,0,0,17,33.7a13.825,13.825,0,0,1-3.113-1.174,1.636,1.636,0,0,0-1.764.147l-2.02,1.551c-.148-.109-.3-.221-.44-.335l.969-2.38a1.632,1.632,0,0,0-.324-1.735A13.816,13.816,0,0,1,8.345,27.1a1.648,1.648,0,0,0-1.564-.826l-2.561.216q-.1-.257-.188-.519L6.13,24.5A1.635,1.635,0,0,0,6.8,22.867a13.8,13.8,0,0,1-.2-3.307,1.633,1.633,0,0,0-.868-1.539L3.455,16.815c.038-.179.079-.359.123-.538l2.556-.107a1.634,1.634,0,0,0,1.447-1.017,13.748,13.748,0,0,1,1.63-2.881,1.635,1.635,0,0,0,.1-1.765L8.049,8.259c.031-.032.06-.062.092-.093.1-.1.2-.2.3-.294l2.226,1.3A1.637,1.637,0,0,0,12.437,9.1a13.673,13.673,0,0,1,2.915-1.567A1.636,1.636,0,0,0,16.394,6.1l.15-2.561c.18-.04.361-.077.542-.111l1.168,2.295a1.638,1.638,0,0,0,1.527.892,13.952,13.952,0,0,1,3.308.251,1.642,1.642,0,0,0,1.648-.64l1.51-2.069c.172.064.344.13.516.2L26.5,6.913a1.633,1.633,0,0,0,.8,1.576,13.837,13.837,0,0,1,2.646,2,1.635,1.635,0,0,0,1.732.352l2.386-.923q.169.221.33.446L32.811,12.36a1.633,1.633,0,0,0-.179,1.759,13.645,13.645,0,0,1,1.13,3.125,1.635,1.635,0,0,0,1.267,1.234l2.508.511c.014.184.025.368.034.554l-2.408.816a1.635,1.635,0,0,0-1.1,1.384,13.689,13.689,0,0,1-.745,3.244,1.637,1.637,0,0,0,3.083,1.1,17.344,17.344,0,0,0,.778-2.957l2.573-.872a1.637,1.637,0,0,0,1.11-1.517,20.552,20.552,0,0,0-.205-3.35,1.636,1.636,0,0,0-1.292-1.367l-2.681-.547A16.891,16.891,0,0,0,36,13.6l1.7-2.132A1.635,1.635,0,0,0,37.815,9.6a20.555,20.555,0,0,0-2-2.7,1.638,1.638,0,0,0-1.826-.449l-2.549.985a17.4,17.4,0,0,0-1.58-1.2l.276-2.728a1.635,1.635,0,0,0-.921-1.639,20.6,20.6,0,0,0-3.138-1.2,1.636,1.636,0,0,0-1.78.607L22.687,3.487a17.312,17.312,0,0,0-1.973-.148L19.469.893A1.644,1.644,0,0,0,17.808.011a20.617,20.617,0,0,0-3.291.678,1.636,1.636,0,0,0-1.171,1.473L13.184,4.9a17.172,17.172,0,0,0-1.74.936L9.073,4.452A1.639,1.639,0,0,0,7.2,4.608c-.5.42-.953.827-1.372,1.248-.359.358-.7.729-1.023,1.106a1.634,1.634,0,0,0-.188,1.871l1.348,2.392a16.955,16.955,0,0,0-.975,1.721l-2.735.114A1.636,1.636,0,0,0,.758,14.2a20.565,20.565,0,0,0-.742,3.272,1.633,1.633,0,0,0,.856,1.672L3.3,20.436a17.062,17.062,0,0,0,.116,1.971L1.177,23.982a1.633,1.633,0,0,0-.637,1.766A20.3,20.3,0,0,0,1.682,28.9a1.647,1.647,0,0,0,1.625.947l2.739-.231A16.937,16.937,0,0,0,7.22,31.212L6.185,33.753A1.636,1.636,0,0,0,6.6,35.584a20.663,20.663,0,0,0,2.674,2.033,1.64,1.64,0,0,0,1.881-.08l2.16-1.658a17.173,17.173,0,0,0,1.868.7l.5,2.683a1.637,1.637,0,0,0,1.347,1.314,20.8,20.8,0,0,0,3.308.27h.04a1.638,1.638,0,0,0,1.538-1.083l.92-2.564a17.271,17.271,0,0,0,2.973-.722,1.634,1.634,0,0,0,1.026-2.072" transform="translate(0 0)" fill="#e10b17"/>
    <path id="Path_1915" data-name="Path 1915" d="M19.358,10.846a8.534,8.534,0,1,0,6.043,2.5,8.492,8.492,0,0,0-6.043-2.5M23.085,23.1A5.258,5.258,0,1,1,24.63,19.38,5.241,5.241,0,0,1,23.085,23.1" transform="translate(0.99 0.976)" fill="#e10b17"/>
    <path id="Path_1916" data-name="Path 1916" d="M50.107,37.7l-.778-.342a11.539,11.539,0,0,0-.3-2.087l.679-.553a1.089,1.089,0,0,0,.339-1.207,13.069,13.069,0,0,0-.878-1.963A1.094,1.094,0,0,0,48.043,31l-.924.145a11.713,11.713,0,0,0-1.327-1.535l.295-.9a1.09,1.09,0,0,0-.368-1.2,13.232,13.232,0,0,0-1.8-1.181,1.089,1.089,0,0,0-1.248.143l-.736.653a11.587,11.587,0,0,0-1.9-.578l-.248-.945a1.089,1.089,0,0,0-.957-.81,13.773,13.773,0,0,0-2.152-.016,1.09,1.09,0,0,0-.971.794l-.266.948a11.5,11.5,0,0,0-1.9.544l-.731-.671a1.092,1.092,0,0,0-1.244-.164,13.109,13.109,0,0,0-1.821,1.146,1.09,1.09,0,0,0-.386,1.191l.285.927a11.874,11.874,0,0,0-1.34,1.5l-.938-.164a1.094,1.094,0,0,0-1.135.533,13.114,13.114,0,0,0-.914,1.946,1.089,1.089,0,0,0,.319,1.212l.689.581a11.644,11.644,0,0,0-.337,2.06l-.8.339a1.09,1.09,0,0,0-.666,1.061,13.161,13.161,0,0,0,.289,2.129,1.091,1.091,0,0,0,.925.848l.8.1a11.585,11.585,0,0,0,.87,2l-.441.643a1.089,1.089,0,0,0,.014,1.254,13.278,13.278,0,0,0,1.394,1.637,1.1,1.1,0,0,0,1.237.214l.67-.316a11.853,11.853,0,0,0,1.874,1.246l-.022.719a1.09,1.09,0,0,0,.69,1.046,13.132,13.132,0,0,0,2.061.624,1.09,1.09,0,0,0,1.155-.488l.37-.592a11.862,11.862,0,0,0,1.251.069c.349,0,.692-.022,1.034-.051l.361.6a1.093,1.093,0,0,0,.935.528,1.148,1.148,0,0,0,.211-.02,13.124,13.124,0,0,0,2.072-.589,1.091,1.091,0,0,0,.707-1.034l-.009-.718a11.784,11.784,0,0,0,1.9-1.214l.656.324a1.089,1.089,0,0,0,1.24-.193,13.225,13.225,0,0,0,1.426-1.609,1.089,1.089,0,0,0,.037-1.254l-.427-.644a11.673,11.673,0,0,0,.912-2l.788-.089a1.091,1.091,0,0,0,.939-.832,12.977,12.977,0,0,0,.322-2.128,1.09,1.09,0,0,0-.647-1.072M29.213,38a8.437,8.437,0,1,1,8.436,8.425A8.44,8.44,0,0,1,29.213,38" transform="translate(2.243 2.228)" fill="#e10b17"/>
    <path id="Path_1917" data-name="Path 1917" d="M36.685,42.914a5.885,5.885,0,0,0,5.882-5.874,1.637,1.637,0,0,0-3.275,0,2.609,2.609,0,0,1-2.608,2.6,1.635,1.635,0,1,0,0,3.27" transform="translate(3.207 3.187)" fill="#e10b17"/>
  </g>
</svg>
