<svg id="Group_1579" data-name="Group 1579" xmlns="http://www.w3.org/2000/svg" xmlns:xlink="http://www.w3.org/1999/xlink" width="53" height="53" viewBox="0 0 53 53">
  <defs>
    <clipPath id="clip-path">
      <rect id="Rectangle_1165" data-name="Rectangle 1165" width="53" height="53" fill="#e10b17"/>
    </clipPath>
  </defs>
  <g id="Group_1578" data-name="Group 1578" clip-path="url(#clip-path)">
    <path id="Path_1923" data-name="Path 1923" d="M37.34,20.79a13.184,13.184,0,0,0-5.3-.644,8.847,8.847,0,0,0,.45-2.727c0-5.281-5.168-9.345-5.388-9.515a1.518,1.518,0,0,0-1.865,0c-.22.17-5.388,4.234-5.388,9.515a8.846,8.846,0,0,0,.45,2.726,13.144,13.144,0,0,0-5.3.645,1.557,1.557,0,0,0-1.011,1.589,12.886,12.886,0,0,0,2.291,6.18A11.567,11.567,0,0,0,15,28.922a1.555,1.555,0,0,0-1.011,1.588c.017.222.471,5.465,3.981,7.757a8,8,0,0,0,4.413,1.178,12.942,12.942,0,0,0,2.251-.207v4.037a1.535,1.535,0,1,0,3.071,0V39.238a12.951,12.951,0,0,0,2.251.207,8.006,8.006,0,0,0,4.413-1.178c3.51-2.292,3.963-7.535,3.981-7.758a1.555,1.555,0,0,0-1.01-1.587,11.706,11.706,0,0,0-1.28-.362,12.882,12.882,0,0,0,2.291-6.181,1.557,1.557,0,0,0-1.01-1.588m-2.263,2.6c-.321,1.378-1.028,3.251-2.371,4.129a6.677,6.677,0,0,1-4.685.484c.295-1.282.955-3.206,2.366-4.129a6.682,6.682,0,0,1,4.689-.484M26.167,11.221c1.232,1.219,3.253,3.614,3.253,6.2,0,2.606-2.017,4.99-3.25,6.2-1.233-1.215-3.25-3.6-3.25-6.2s2.014-4.985,3.247-6.2M21.953,23.877A6.871,6.871,0,0,1,24.325,28a6.674,6.674,0,0,1-4.689-.483h0a6.877,6.877,0,0,1-2.371-4.129,6.681,6.681,0,0,1,4.689.484M19.636,35.652h0a6.875,6.875,0,0,1-2.371-4.128,6.687,6.687,0,0,1,4.689.483c1.343.878,2.05,2.752,2.372,4.129a6.675,6.675,0,0,1-4.689-.484m13.07,0a6.677,6.677,0,0,1-4.685.485c.295-1.283.955-3.207,2.366-4.13a6.682,6.682,0,0,1,4.689-.483c-.321,1.378-1.028,3.251-2.371,4.128" transform="translate(0.33 0.283)" fill="#e10b17"/>
    <path id="Path_1924" data-name="Path 1924" d="M7.2,13.045A22.749,22.749,0,0,1,35.916,5.4a4.581,4.581,0,0,0,1.838,4.558,4.457,4.457,0,0,0,6.255-1.131,4.6,4.6,0,0,0-1.116-6.339,4.393,4.393,0,0,0-5.4.227A25.8,25.8,0,0,0,4.683,11.265a26.612,26.612,0,0,0,.452,30.794,1.525,1.525,0,0,0,2.148.321A1.571,1.571,0,0,0,7.6,40.2a23.466,23.466,0,0,1-.4-27.156M41.137,5.039a1.455,1.455,0,0,1,.353,2.006,1.413,1.413,0,0,1-.917.594A1.392,1.392,0,0,1,39.511,7.4,1.455,1.455,0,0,1,39.157,5.4a1.41,1.41,0,0,1,1.98-.358" transform="translate(0 0)" fill="#e10b17"/>
    <path id="Path_1925" data-name="Path 1925" d="M47.676,10.553a1.523,1.523,0,0,0-2.148-.321,1.569,1.569,0,0,0-.316,2.177,23.47,23.47,0,0,1,.4,27.157,22.751,22.751,0,0,1-28.715,7.645,4.577,4.577,0,0,0-1.837-4.556A4.454,4.454,0,0,0,8.8,43.786a4.593,4.593,0,0,0,1.116,6.338,4.42,4.42,0,0,0,2.56.819,4.524,4.524,0,0,0,.8-.072,4.437,4.437,0,0,0,2.036-.967A25.534,25.534,0,0,0,26.763,52.63,25.938,25.938,0,0,0,48.129,41.347a26.614,26.614,0,0,0-.452-30.794M12.737,47.808a1.4,1.4,0,0,1-1.062-.237,1.433,1.433,0,0,1-.587-.929,1.448,1.448,0,0,1,.233-1.077,1.409,1.409,0,0,1,.917-.593,1.4,1.4,0,0,1,1.062.237,1.455,1.455,0,0,1,.353,2.005,1.415,1.415,0,0,1-.917.594" transform="translate(0.188 0.371)" fill="#e10b17"/>
  </g>
</svg>
