<svg xmlns="http://www.w3.org/2000/svg" xmlns:xlink="http://www.w3.org/1999/xlink" width="46.206" height="50" viewBox="0 0 46.206 50">
  <defs>
    <clipPath id="clip-path">
      <rect id="Rectangle_1204" data-name="Rectangle 1204" width="46.206" height="50" fill="#e10b17"/>
    </clipPath>
  </defs>
  <g id="Group_1617" data-name="Group 1617" transform="translate(0 0)">
    <g id="Group_1616" data-name="Group 1616" transform="translate(0 0)" clip-path="url(#clip-path)">
      <path id="Path_1955" data-name="Path 1955" d="M44.578,15.025H37.705a1.628,1.628,0,0,0-1.628,1.628V45.467H34.541V25.258a1.627,1.627,0,0,0-1.628-1.628H26.041a1.627,1.627,0,0,0-1.628,1.628V45.467h-2.17V25.258a1.627,1.627,0,0,0-1.628-1.628H13.744a1.627,1.627,0,0,0-1.628,1.628V45.467H10.128V36.183A1.628,1.628,0,0,0,8.5,34.556H1.628A1.628,1.628,0,0,0,0,36.183V47.095a1.627,1.627,0,0,0,1.628,1.628h42.95a1.627,1.627,0,0,0,1.628-1.628V16.653a1.628,1.628,0,0,0-1.628-1.628M6.873,45.467H3.255V37.811H6.873Zm20.8-18.581h3.618V45.467H27.669Zm-12.3,0h3.616V45.467H15.372ZM42.95,45.467H39.333V18.28H42.95Z" transform="translate(0 1.278)" fill="#e10b17"/>
      <path id="Path_1956" data-name="Path 1956" d="M44.578,0H36.44a1.628,1.628,0,0,0,0,3.255h4.239l-11.866,11.6-13.7.026a1.628,1.628,0,0,0-1.049.386L.575,26.7a1.627,1.627,0,1,0,2.1,2.483L15.711,18.131,29.481,18.1a1.627,1.627,0,0,0,1.134-.463L42.95,5.586v4.18a1.628,1.628,0,1,0,3.255,0V1.628A1.627,1.627,0,0,0,44.578,0" transform="translate(0 0)" fill="#e10b17"/>
    </g>
  </g>
</svg>
