<svg xmlns="http://www.w3.org/2000/svg" xmlns:xlink="http://www.w3.org/1999/xlink" width="55.42" height="50" viewBox="0 0 55.42 50">
  <defs>
    <clipPath id="clip-path">
      <rect id="Rectangle_1207" data-name="Rectangle 1207" width="55.42" height="50" fill="#e30013"/>
    </clipPath>
  </defs>
  <g id="Group_1623" data-name="Group 1623" transform="translate(0 0)">
    <g id="Group_1622" data-name="Group 1622" transform="translate(0 0)" clip-path="url(#clip-path)">
      <path id="Path_1964" data-name="Path 1964" d="M21.063,21.795a10.9,10.9,0,1,0-10.9-10.9,10.91,10.91,0,0,0,10.9,10.9m0-18.347a7.45,7.45,0,1,1-7.449,7.45,7.458,7.458,0,0,1,7.449-7.45" transform="translate(1.517 0)" fill="#e30013"/>
      <path id="Path_1965" data-name="Path 1965" d="M17.946,9.681A2.181,2.181,0,0,1,20.123,7.5a1.724,1.724,0,1,0,0-3.448A5.631,5.631,0,0,0,14.5,9.681a1.724,1.724,0,1,0,3.448,0" transform="translate(2.163 0.605)" fill="#e30013"/>
      <path id="Path_1966" data-name="Path 1966" d="M22.877,43.409H3.513c.815-10.566,9.055-18.9,19.067-18.9A18.342,18.342,0,0,1,35.1,29.543a1.723,1.723,0,1,0,2.352-2.519A21.776,21.776,0,0,0,22.58,21.066C10.129,21.066,0,31.863,0,45.133a1.724,1.724,0,0,0,1.724,1.724H22.877a1.724,1.724,0,0,0,0-3.448" transform="translate(0 3.144)" fill="#e30013"/>
      <path id="Path_1967" data-name="Path 1967" d="M52.12,21.175a1.724,1.724,0,0,0-2.434-.128L28.713,39.936,22.09,33.313a1.724,1.724,0,1,0-2.437,2.437l7.78,7.78a1.721,1.721,0,0,0,2.372.062L51.994,23.61a1.725,1.725,0,0,0,.126-2.435" transform="translate(2.857 3.075)" fill="#e30013"/>
    </g>
  </g>
</svg>
