<svg xmlns="http://www.w3.org/2000/svg" xmlns:xlink="http://www.w3.org/1999/xlink" width="50.992" height="50" viewBox="0 0 50.992 50">
  <defs>
    <clipPath id="clip-path">
      <rect id="Rectangle_1209" data-name="Rectangle 1209" width="50.992" height="50" fill="#e30013"/>
    </clipPath>
  </defs>
  <g id="Group_1627" data-name="Group 1627" transform="translate(0 0)">
    <g id="Group_1626" data-name="Group 1626" transform="translate(0 0)" clip-path="url(#clip-path)">
      <path id="Path_1971" data-name="Path 1971" d="M50.988,18.9c0-.032,0-.063,0-.1s-.007-.059-.009-.09a1.525,1.525,0,0,0-.017-.169c-.008-.051-.021-.1-.034-.15s-.027-.1-.045-.146a1.478,1.478,0,0,0-.071-.156c-.014-.026-.021-.055-.036-.081L43.1,4.715a1.584,1.584,0,0,0-1.337-.791,1.9,1.9,0,0,0-.19.022,1.575,1.575,0,0,0-.225-.022H26.841V1.583a1.583,1.583,0,0,0-3.166,0V3.924H9.646a1.575,1.575,0,0,0-.225.022,1.867,1.867,0,0,0-.19-.022,1.583,1.583,0,0,0-1.337.791L.212,18.012c-.015.026-.023.055-.037.082a1.579,1.579,0,0,0-.07.155c-.018.049-.033.1-.045.146a1.4,1.4,0,0,0-.034.15,1.5,1.5,0,0,0-.017.169c0,.031-.009.059-.009.09s0,.064,0,.1v.022c.055,6.129,4.356,11.1,9.641,11.1,5.3,0,9.614-5,9.643-11.153V18.8c0-.036-.007-.07-.011-.1a1.4,1.4,0,0,0-.018-.187,1.33,1.33,0,0,0-.04-.145,1.263,1.263,0,0,0-.046-.152,1.445,1.445,0,0,0-.079-.156c-.018-.035-.031-.071-.052-.1l-6.9-10.864H23.674V40.148H9.646a1.583,1.583,0,0,0-1.583,1.583v6.684A1.583,1.583,0,0,0,9.646,50H25.258a1.615,1.615,0,0,0,.36-.044,1.623,1.623,0,0,0,.36.044H41.121A1.583,1.583,0,0,0,42.7,48.416V41.731a1.583,1.583,0,0,0-1.583-1.583H26.841V7.091h12l-6.9,10.864c-.022.034-.035.071-.053.1a1.658,1.658,0,0,0-.078.156,1.512,1.512,0,0,0-.047.153c-.014.047-.03.094-.039.144a1.6,1.6,0,0,0-.019.187c0,.036-.011.069-.011.1l0,.031v.031c.028,6.156,4.342,11.153,9.643,11.153,5.285,0,9.586-4.967,9.641-11.1V18.9M9.328,8.561l5.5,8.659H4.326Zm.318,18.29c-3.137,0-5.76-2.782-6.354-6.465H16c-.593,3.683-3.216,6.465-6.353,6.465M39.538,46.833H25.977a1.563,1.563,0,0,0-.36.045,1.556,1.556,0,0,0-.36-.045H11.229V43.315H24.788a1.559,1.559,0,0,0,.235-.024,1.56,1.56,0,0,0,.234.024c.043,0,.083-.009.126-.013s.082.013.126.013H39.538ZM46.666,17.22h-10.5l5.5-8.659Zm-5.32,9.631c-3.137,0-5.76-2.782-6.354-6.465H47.7c-.594,3.683-3.217,6.465-6.354,6.465" transform="translate(0 0)" fill="#e30013"/>
    </g>
  </g>
</svg>
