<svg xmlns="http://www.w3.org/2000/svg" xmlns:xlink="http://www.w3.org/1999/xlink" width="50.923" height="50" viewBox="0 0 50.923 50">
  <defs>
    <clipPath id="clip-path">
      <rect id="Rectangle_1210" data-name="Rectangle 1210" width="50.923" height="50" fill="#e30013"/>
    </clipPath>
  </defs>
  <g id="Group_1629" data-name="Group 1629" transform="translate(0 0)">
    <g id="Group_1628" data-name="Group 1628" transform="translate(0 0)" clip-path="url(#clip-path)">
      <path id="Path_1972" data-name="Path 1972" d="M37.533,27.559A1.53,1.53,0,0,0,37,25.851L19.724,12.9a1.53,1.53,0,0,0-1.836,0L.612,25.851a1.531,1.531,0,0,0,.918,2.756H4.3v19.6a1.532,1.532,0,0,0,1.531,1.531H31.785a1.532,1.532,0,0,0,1.531-1.531v-19.6h2.765a1.531,1.531,0,0,0,1.452-1.047m-7.28-.484v19.6H7.357v-19.6a1.531,1.531,0,0,0-1.263-1.508l12.711-9.527,12.711,9.527a1.531,1.531,0,0,0-1.263,1.508" transform="translate(0 0.261)" fill="#e30013"/>
      <path id="Path_1973" data-name="Path 1973" d="M48.973,0H21.754a1.531,1.531,0,0,0-1.531,1.531V9.612a1.531,1.531,0,1,0,3.062,0V3.062H47.442V46.938H37.235a1.531,1.531,0,1,0,0,3.062H48.973A1.532,1.532,0,0,0,50.5,48.469V1.531A1.531,1.531,0,0,0,48.973,0" transform="translate(0.419 0)" fill="#e30013"/>
      <path id="Path_1974" data-name="Path 1974" d="M42.529,15.35a1.531,1.531,0,0,0,1.531-1.531V8.475a1.532,1.532,0,0,0-1.531-1.531H37.185a1.531,1.531,0,0,0,0,3.062H41v3.813a1.531,1.531,0,0,0,1.531,1.531" transform="translate(0.738 0.144)" fill="#e30013"/>
      <path id="Path_1975" data-name="Path 1975" d="M32.446,15.35a1.531,1.531,0,0,0,1.531-1.531V8.475a1.532,1.532,0,0,0-1.531-1.531H27.1a1.531,1.531,0,1,0,0,3.062h3.813v3.813a1.531,1.531,0,0,0,1.531,1.531" transform="translate(0.529 0.144)" fill="#e30013"/>
      <path id="Path_1976" data-name="Path 1976" d="M37.185,21.951H41v3.813a1.531,1.531,0,0,0,3.062,0V20.42a1.531,1.531,0,0,0-1.531-1.531H37.185a1.531,1.531,0,0,0,0,3.062" transform="translate(0.738 0.391)" fill="#e30013"/>
      <path id="Path_1977" data-name="Path 1977" d="M42.529,39.239a1.531,1.531,0,0,0,1.531-1.531V32.364a1.531,1.531,0,0,0-1.531-1.531H37.185a1.531,1.531,0,0,0,0,3.062H41v3.813a1.531,1.531,0,0,0,1.531,1.531" transform="translate(0.738 0.638)" fill="#e30013"/>
      <path id="Path_1978" data-name="Path 1978" d="M14.307,32.364A1.531,1.531,0,0,0,15.838,33.9H19.65v9.158a1.531,1.531,0,1,0,3.062,0V32.364a1.53,1.53,0,0,0-1.531-1.531H15.838a1.531,1.531,0,0,0-1.531,1.531" transform="translate(0.296 0.638)" fill="#e30013"/>
    </g>
  </g>
</svg>
