<svg id="Group_1575" data-name="Group 1575" xmlns="http://www.w3.org/2000/svg" xmlns:xlink="http://www.w3.org/1999/xlink" width="53" height="53" viewBox="0 0 53 53">
  <defs>
    <clipPath id="clip-path">
      <rect id="Rectangle_1163" data-name="Rectangle 1163" width="53" height="53" fill="#e10b17"/>
    </clipPath>
  </defs>
  <g id="Group_1574" data-name="Group 1574" clip-path="url(#clip-path)">
    <path id="Path_1921" data-name="Path 1921" d="M42.779,5.6a1.564,1.564,0,0,0-2.178.248L38.587,8.332l1.219-3.225a1.565,1.565,0,0,0-.719-1.93A26.5,26.5,0,0,0,1.418,35.048a1.563,1.563,0,0,0,1.962.985l6.363-2.055,4.365-1.409,4.46-1.44.954-.309-.681.582L15.3,34.421l-3.461,2.954-5.11,4.361a1.566,1.566,0,0,0-.161,2.222,26.493,26.493,0,0,0,44.657-7.933,1.565,1.565,0,0,0-.876-2.015l-3.323-1.335,3.832.24c.033,0,.067,0,.1,0A1.566,1.566,0,0,0,52.5,31.655,26.727,26.727,0,0,0,53,26.5,26.346,26.346,0,0,0,42.779,5.6M41.363,34.1q-.43.433-.885.863c-.119.112-.233.223-.354.335-.411.382-.83.764-1.26,1.152-.558.506-1.118,1.013-1.668,1.531-.71.669-1.389,1.367-2.061,2.058-2.662,2.737-4.961,5.1-8.635,5.1a14.068,14.068,0,0,1-1.568-.091c-.05-.005-.1-.008-.15-.015a12.875,12.875,0,0,1-1.429-.261c-.07-.017-.14-.031-.209-.049a12.2,12.2,0,0,1-1.336-.426c-.074-.028-.149-.056-.223-.087a12.659,12.659,0,0,1-1.273-.595c-.069-.037-.136-.076-.2-.114a13.7,13.7,0,0,1-1.238-.78c-.051-.035-.1-.075-.151-.113a15.4,15.4,0,0,1-1.232-1c-.018-.016-.035-.034-.053-.05q-.607-.552-1.187-1.19c-.027-.029-.053-.055-.079-.084-.381-.422-.752-.877-1.117-1.356-.028-.037-.057-.073-.086-.111l1.082-.923c.023.029.048.054.072.082.13.163.267.307.4.461.256.3.513.595.779.866.16.163.325.309.489.462.25.235.5.464.763.676.177.144.358.276.539.41.259.19.519.371.787.539.188.119.379.233.571.34.273.152.551.292.831.421.2.091.389.182.587.261.3.118.6.217.9.311.193.06.385.126.582.176.338.087.684.148,1.033.205.171.028.338.069.511.09a13.127,13.127,0,0,0,1.607.1c3.876,0,6.259-2.45,8.36-4.612.471-.484.946-.974,1.445-1.444.4-.374.805-.743,1.21-1.109s.82-.746,1.227-1.13c.114-.106.224-.214.337-.322.433-.419.857-.848,1.254-1.3.007-.007.015-.014.021-.021l1.238.5c-.076.078-.15.156-.228.235M19.6,34.869c.136.16.277.3.417.449.082.088.162.182.246.265a10.211,10.211,0,0,0,.846.76c.034.028.072.05.107.077a8.967,8.967,0,0,0,.792.55c.1.065.211.118.315.177.209.117.419.227.635.325.122.055.245.1.369.154.211.082.424.156.64.222.126.039.252.077.381.11.235.059.475.1.717.143.113.019.224.043.339.056a9.017,9.017,0,0,0,1.1.07c2.733,0,4.354-1.668,5.785-3.14.3-.307.6-.616.913-.912.255-.24.515-.476.774-.709.3-.273.609-.557.914-.847l.242-.234c.313-.309.615-.632.9-.974.024-.029.053-.054.077-.083a1.559,1.559,0,0,0,.747.63l.385.154-.048.05c-.21.211-.431.419-.654.629-.07.065-.135.129-.2.194q-.446.413-.913.831c-.421.382-.845.764-1.26,1.155-.53.5-1.038,1.022-1.541,1.539-1.989,2.047-3.56,3.664-6.116,3.664a9.987,9.987,0,0,1-1.235-.079c-.131-.017-.259-.048-.388-.07-.268-.045-.535-.093-.8-.161-.15-.04-.3-.091-.442-.138-.234-.074-.465-.152-.693-.245-.151-.063-.3-.134-.449-.2-.216-.1-.429-.213-.639-.334q-.221-.127-.437-.268c-.205-.134-.407-.277-.607-.429-.139-.105-.279-.212-.415-.327-.2-.168-.4-.35-.592-.537-.127-.123-.257-.241-.382-.371-.205-.215-.407-.449-.606-.685-.106-.127-.216-.245-.321-.378-.021-.027-.041-.058-.063-.086Zm-.9-7.07c-.008-.013-.019-.027-.026-.04a2.388,2.388,0,0,1-.127-.252c-.021-.045-.048-.093-.064-.137a1.1,1.1,0,0,1-.069-.362,8.091,8.091,0,0,1,3.555-6.7c.745-.507,1.7-.493,3.192-.43.439.019.888.037,1.345.037,2.8,0,4.8.294,6.086,1.762a8.081,8.081,0,0,1,2,5.334c0,1.6-1.032,2.616-2.715,4.136-.276.249-.553.5-.824.754-.347.329-.68.67-1.01,1.009-1.361,1.4-2.2,2.192-3.541,2.192a6.074,6.074,0,0,1-.724-.046c-.075-.009-.147-.025-.221-.037-.161-.026-.319-.057-.475-.1-.082-.021-.163-.046-.243-.071-.147-.045-.291-.1-.433-.156-.076-.031-.152-.062-.227-.1a4.958,4.958,0,0,1-.457-.245c-.055-.032-.112-.061-.166-.095a6.145,6.145,0,0,1-.595-.433c-.038-.03-.073-.068-.11-.1-.155-.135-.309-.277-.459-.432-.066-.067-.129-.14-.193-.211s-.142-.164-.213-.247l.854-.729c.009.009.02.015.028.024a5.674,5.674,0,0,0,.685.569c.062.044.123.087.185.127a5.059,5.059,0,0,0,.783.427l.022.007a4.831,4.831,0,0,0,.825.249q.11.025.222.044a5.294,5.294,0,0,0,.91.086,4.7,4.7,0,0,0,3.456-1.809c.141-.145.284-.292.431-.432.124-.117.25-.231.377-.344A5.069,5.069,0,0,0,32.9,27.24a6.393,6.393,0,0,0-1.587-4.217c-1.3-1.478-3.077-1.682-4.81-1.682-.2,0-.386-.008-.575-.017a4.669,4.669,0,0,0-3.014.618,6.4,6.4,0,0,0-2.809,5.3c0,.034,0,.07,0,.1Zm14.922-9.376a1.57,1.57,0,0,0,1.286-.579l.707-.871a.186.186,0,0,0,.018.013,7.357,7.357,0,0,1,.966.918,13.411,13.411,0,0,1,3.33,8.848,6.3,6.3,0,0,1-.048.735c-.008.07-.02.14-.03.209q-.044.274-.113.541c-.016.061-.028.123-.047.184a5.812,5.812,0,0,1-.232.645l-1.92-.12c-.033,0-.067,0-.1,0h0c.055-.176.089-.368.128-.555.024-.108.057-.211.075-.323a6.585,6.585,0,0,0,.086-1.056,11.208,11.208,0,0,0-2.783-7.4,7.374,7.374,0,0,0-.808-.781c-.079-.067-.161-.129-.242-.192s-.177-.149-.27-.214m-9.941,7.194a3.219,3.219,0,0,1,.332-.474c.041-.048.081-.1.125-.143a3.26,3.26,0,0,1,.537-.468,2.51,2.51,0,0,1,1.124-.081c.232.01.466.02.706.02,1.4,0,2.063.167,2.458.615a3.263,3.263,0,0,1,.809,2.154c0,.45-.318.782-1.1,1.489-.143.128-.286.258-.426.39-.183.172-.357.35-.529.528-.607.625-.869.861-1.212.861a1.859,1.859,0,0,1-1.089-.323l2.1-1.8a1.523,1.523,0,0,0,.309-.373c.023-.037.042-.072.061-.11a1.59,1.59,0,0,0,.137-.378c.005-.024.015-.047.019-.071a1.574,1.574,0,0,0,.019-.4,1.646,1.646,0,0,0-.016-.257,1.4,1.4,0,0,0-.009-.162,1.549,1.549,0,0,0-2.014-1.207l-2.629.849a3.3,3.3,0,0,1,.214-.552c.021-.04.048-.076.071-.115M45.089,27.4c-.008.089-.022.176-.033.264-.028.215-.066.427-.111.637-.019.087-.035.173-.056.259a8.577,8.577,0,0,1-.248.835L42.7,29.269c0-.011,0-.024.007-.035.076-.268.124-.542.174-.816.025-.136.065-.268.083-.4a9.3,9.3,0,0,0,.086-1.261,16.547,16.547,0,0,0-4.106-10.912h0c-.205-.235-.422-.46-.648-.675-.121-.116-.251-.22-.378-.33-.11-.095-.214-.194-.328-.285l-.01-.009L39,12.8c.042.032.086.064.127.1.17.135.335.276.5.421.076.069.154.134.228.2.231.22.455.449.669.694A18.619,18.619,0,0,1,45.139,26.5a8.717,8.717,0,0,1-.05.894M3.932,32.566A23.376,23.376,0,0,1,36.381,5.317l-.909,2.4c-.342-.091-.69-.171-1.038-.245l-.067-.016c-.413-.087-.828-.16-1.245-.224-.132-.021-.265-.037-.4-.055-.286-.041-.572-.079-.858-.111-.16-.018-.319-.033-.479-.049q-.391-.038-.782-.068c-.166-.013-.33-.024-.494-.034q-.388-.023-.773-.041c-.155-.007-.311-.015-.465-.02-.281-.009-.558-.017-.834-.022-.124,0-.249-.007-.372-.008-.394-.006-.784-.008-1.165-.008-.886,0-1.757-.038-2.61-.074-3.266-.138-6.638-.279-9.6,1.728A21.766,21.766,0,0,0,4.732,26.5a6.916,6.916,0,0,0,.059.869c.011.09.029.175.044.263.031.192.069.38.115.563.024.094.049.187.076.28Q5.1,28.74,5.2,29c.03.081.058.163.092.243q.13.316.282.616c.016.03.028.063.044.093.12.232.248.457.383.677.04.066.082.129.124.2.1.158.2.314.3.466l.14.2c.043.062.086.125.128.186Zm5.911-1.909-.175-.232c-.055-.073-.111-.146-.164-.218-.075-.1-.145-.2-.217-.3-.056-.078-.115-.158-.169-.236-.067-.094-.127-.187-.19-.28s-.107-.159-.158-.238-.112-.186-.166-.277-.095-.156-.138-.236c-.052-.1-.095-.193-.142-.289-.037-.076-.076-.151-.108-.226-.045-.1-.078-.209-.115-.314-.025-.071-.055-.141-.076-.212-.035-.119-.057-.24-.081-.361-.013-.061-.031-.119-.04-.18a3.692,3.692,0,0,1-.044-.561,18.64,18.64,0,0,1,8.19-15.437,6.065,6.065,0,0,1,.728-.418c.072-.035.145-.069.218-.1.193-.088.39-.166.589-.234.068-.024.134-.05.2-.071.258-.08.519-.147.788-.2.069-.015.141-.024.211-.037.21-.038.421-.07.637-.095.1-.011.2-.023.3-.032q.33-.03.671-.046c.071,0,.141-.009.213-.011.269-.009.543-.011.821-.01.749,0,1.526.032,2.337.067.9.038,1.812.076,2.741.076.55,0,1.12.007,1.694.021.118,0,.235.005.353.009.572.018,1.151.046,1.731.088.108.007.217.018.324.027.59.048,1.182.108,1.765.192l.061.007c.584.087,1.157.2,1.72.333l.208.049-.706,1.863c-.058-.018-.12-.025-.179-.043-.5-.142-1.009-.264-1.524-.358-.067-.013-.134-.021-.2-.032q-.729-.124-1.469-.2c-.094-.009-.187-.021-.281-.029-.526-.047-1.053-.078-1.578-.1l-.344-.011c-.527-.015-1.053-.024-1.572-.024-.65,0-1.291-.027-1.918-.054-2.486-.1-5.057-.212-7.364,1.353A16.551,16.551,0,0,0,9.947,26.751a5.493,5.493,0,0,0,.081.905c.014.084.032.166.05.248a5.647,5.647,0,0,0,.167.621c.023.071.044.142.07.212a6.77,6.77,0,0,0,.324.743c.013.023.026.044.038.066.117.221.242.434.373.64.015.022.026.046.04.068Zm4.363-1.409-.016-.021c-.138-.186-.267-.367-.387-.548l-.051-.074a5.886,5.886,0,0,1-.311-.534c-.019-.035-.038-.072-.055-.108a3.321,3.321,0,0,1-.208-.536c-.008-.031-.015-.062-.022-.093a2.38,2.38,0,0,1-.08-.582,13.425,13.425,0,0,1,5.9-11.118,4.2,4.2,0,0,1,.739-.389c.066-.028.134-.054.2-.079a5.377,5.377,0,0,1,.7-.207c.035-.008.07-.019.105-.026a7.657,7.657,0,0,1,.885-.121c.058-.005.119-.007.177-.011.272-.018.551-.028.837-.029h.12c.547,0,1.117.024,1.712.049.51.022,1.033.032,1.559.043.165,0,.323.014.49.014l.27,0a29.451,29.451,0,0,1,4.73.363c.095.018.188.04.283.059.2.042.4.088.6.14.051.013.1.029.151.043l-.312.824a1.564,1.564,0,0,0,.158,1.416c-.069-.031-.14-.051-.209-.08-.129-.054-.26-.1-.391-.15q-.271-.1-.546-.177c-.182-.053-.364-.1-.549-.148l-.174-.035a18.946,18.946,0,0,0-4.013-.347c-.412,0-.817-.017-1.213-.033a7.918,7.918,0,0,0-5.08.966,11.217,11.217,0,0,0-4.928,9.292,4.081,4.081,0,0,0,.1.873c.007.037.013.073.021.108a4.479,4.479,0,0,0,.25.732c.007.017.01.038.019.054ZM26.5,49.871a23.375,23.375,0,0,1-16.49-6.818l2.568-2.192c.04.052.083.095.123.146.417.535.843,1.046,1.282,1.523.053.058.108.113.162.169.463.493.936.96,1.422,1.387l.029.024a18.084,18.084,0,0,0,1.494,1.172c.052.037.1.077.156.114a16.533,16.533,0,0,0,1.514.927c.079.043.158.088.238.13a15.744,15.744,0,0,0,1.549.705c.092.037.183.071.274.105a15.537,15.537,0,0,0,1.618.5c.087.022.175.041.263.062a15.893,15.893,0,0,0,1.722.31c.064.008.129.011.193.019a17.206,17.206,0,0,0,1.883.108c5,0,7.987-3.075,10.879-6.05.642-.659,1.287-1.325,1.963-1.962.534-.5,1.079-1,1.622-1.488q.529-.477,1.061-.966c.1-.1.207-.194.31-.29q.391-.365.775-.737c.128-.124.253-.249.38-.376.234-.234.461-.47.686-.711.123-.13.246-.261.366-.394.054-.06.112-.118.166-.179l3,1.2A23.53,23.53,0,0,1,26.5,49.871M49.649,29.7l-1.79-.112c.018-.064.023-.129.04-.192.079-.313.139-.631.192-.95.026-.159.063-.316.082-.477a11.971,11.971,0,0,0,.095-1.471A21.754,21.754,0,0,0,44.1,13.69q-.579-.793-1.232-1.539c-.268-.307-.552-.6-.845-.877-.094-.09-.194-.172-.29-.259-.205-.186-.413-.367-.629-.539-.046-.037-.088-.079-.135-.116l1.064-1.312A23.345,23.345,0,0,1,49.649,29.7" transform="translate(0 0)" fill="#e10b17"/>
  </g>
</svg>
