<svg id="Group_1610" data-name="Group 1610" xmlns="http://www.w3.org/2000/svg" xmlns:xlink="http://www.w3.org/1999/xlink" width="47.457" height="50" viewBox="0 0 47.457 50">
  <defs>
    <clipPath id="clip-path">
      <rect id="Rectangle_1201" data-name="Rectangle 1201" width="47.457" height="50" fill="#e30013"/>
    </clipPath>
  </defs>
  <g id="Group_1609" data-name="Group 1609" transform="translate(0 0)" clip-path="url(#clip-path)">
    <path id="Path_1945" data-name="Path 1945" d="M39.275,31.249h6.315a1.868,1.868,0,1,0,0-3.736H39.275V24.6a15.761,15.761,0,0,0-.507-3.9h6.822a1.868,1.868,0,1,0,0-3.736H37.3a15.941,15.941,0,0,0-6.453-6.346l7.423-7.423A1.868,1.868,0,0,0,35.63.547L27,9.179a15.12,15.12,0,0,0-6.254-.169L12.281.547A1.868,1.868,0,0,0,9.64,3.188l7.088,7.088a15.929,15.929,0,0,0-7.147,6.681H1.868a1.868,1.868,0,0,0,0,3.736H8.115a15.7,15.7,0,0,0-.507,3.9v2.918H1.868a1.868,1.868,0,1,0,0,3.736H7.609v2.919a15.693,15.693,0,0,0,.507,3.9H1.868a1.868,1.868,0,1,0,0,3.736H9.581a15.818,15.818,0,0,0,27.72,0h8.289a1.868,1.868,0,1,0,0-3.736H38.768a15.751,15.751,0,0,0,.507-3.9ZM23.441,46.264a12.111,12.111,0,0,1-12.1-12.1V24.6a12.1,12.1,0,1,1,24.194,0v9.572a12.112,12.112,0,0,1-12.1,12.1" transform="translate(0 0)" fill="#e30013"/>
    <path id="Path_1946" data-name="Path 1946" d="M25.9,17.776H14.692a1.868,1.868,0,1,0,0,3.736H25.9a1.868,1.868,0,0,0,0-3.736" transform="translate(3.145 4.36)" fill="#e30013"/>
    <path id="Path_1947" data-name="Path 1947" d="M25.9,26.413H14.692a1.868,1.868,0,0,0,0,3.736H25.9a1.868,1.868,0,0,0,0-3.736" transform="translate(3.145 6.478)" fill="#e30013"/>
  </g>
</svg>
