<svg xmlns="http://www.w3.org/2000/svg" xmlns:xlink="http://www.w3.org/1999/xlink" width="42.819" height="50" viewBox="0 0 42.819 50">
  <defs>
    <clipPath id="clip-path">
      <rect id="Rectangle_1205" data-name="Rectangle 1205" width="42.819" height="50" fill="#e10b17"/>
    </clipPath>
  </defs>
  <g id="Group_1619" data-name="Group 1619" transform="translate(0 0)">
    <g id="Group_1618" data-name="Group 1618" transform="translate(0 0)" clip-path="url(#clip-path)">
      <path id="Path_1957" data-name="Path 1957" d="M37.646,0H5.174A5.18,5.18,0,0,0,0,5.173V39.188a5.165,5.165,0,0,0,4.733,5.129v3.439A2.056,2.056,0,0,0,6.522,50H11.31A2.056,2.056,0,0,0,13.1,47.756V44.362H29.72v3.394A2.056,2.056,0,0,0,31.509,50H36.3a2.055,2.055,0,0,0,1.788-2.244V44.317a5.163,5.163,0,0,0,4.733-5.129V5.173A5.18,5.18,0,0,0,37.646,0M19.254,20.695,30.041,9.907h7L26.256,20.695ZM2.972,5.173a2.2,2.2,0,0,1,2.2-2.2H37.646a2.2,2.2,0,0,1,2.2,2.2V6.935H2.972Zm0,4.734H25.839L15.088,20.658c-.011.011-.014.026-.025.037H2.972ZM39.847,39.188a2.2,2.2,0,0,1-2.2,2.2H5.174a2.2,2.2,0,0,1-2.2-2.2V23.667H39.847ZM30.458,20.695l9.389-9.388v9.388Z" transform="translate(0 0)" fill="#e10b17"/>
      <path id="Path_1958" data-name="Path 1958" d="M12.861,37.906a4.722,4.722,0,1,0-4.723-4.722,4.728,4.728,0,0,0,4.723,4.722m0-6.472a1.75,1.75,0,1,1-1.751,1.751,1.752,1.752,0,0,1,1.751-1.751" transform="translate(-0.076 -0.265)" fill="#e10b17"/>
      <path id="Path_1959" data-name="Path 1959" d="M30.271,37.906a4.722,4.722,0,1,0-4.723-4.722,4.728,4.728,0,0,0,4.723,4.722m0-6.472a1.75,1.75,0,1,1-1.751,1.751,1.752,1.752,0,0,1,1.751-1.751" transform="translate(-0.237 -0.265)" fill="#e10b17"/>
    </g>
  </g>
</svg>
