<svg xmlns="http://www.w3.org/2000/svg" xmlns:xlink="http://www.w3.org/1999/xlink" width="58.796" height="50" viewBox="0 0 58.796 50">
  <defs>
    <clipPath id="clip-path">
      <rect id="Rectangle_1206" data-name="Rectangle 1206" width="58.796" height="50" fill="#e10b17"/>
    </clipPath>
  </defs>
  <g id="Group_1621" data-name="Group 1621" transform="translate(0 0)">
    <g id="Group_1620" data-name="Group 1620" transform="translate(0 0)" clip-path="url(#clip-path)">
      <path id="Path_1960" data-name="Path 1960" d="M22.192,36.449a5.183,5.183,0,1,0,5.184,5.182,5.189,5.189,0,0,0-5.184-5.182m0,7.1a1.921,1.921,0,1,1,1.921-1.921,1.923,1.923,0,0,1-1.921,1.921" transform="translate(1.486 3.185)" fill="#e10b17"/>
      <path id="Path_1961" data-name="Path 1961" d="M40.713,36.449A5.183,5.183,0,1,0,45.9,41.631a5.189,5.189,0,0,0-5.184-5.182m0,7.1a1.921,1.921,0,1,1,1.921-1.921,1.923,1.923,0,0,1-1.921,1.921" transform="translate(3.105 3.185)" fill="#e10b17"/>
      <path id="Path_1962" data-name="Path 1962" d="M21.678,28.051H46.473a1.634,1.634,0,0,0,1.415-.819l10.692-18.6a1.631,1.631,0,0,0-1.415-2.444H13.348L10.847.931A1.629,1.629,0,0,0,9.374,0H1.631a1.631,1.631,0,1,0,0,3.262H8.343L19.116,25.931l-4.328,8A3.776,3.776,0,0,0,18.2,39.326h32.21a1.631,1.631,0,1,0,0-3.262H18.2a.5.5,0,0,1-.434-.239.48.48,0,0,1-.071-.416ZM49.09,18.594H45.435l.994-3.212h4.508Zm-7.068,0H36.1V15.382h6.916ZM36.1,24.789V21.856h4.913L40.1,24.789Zm-7.365,0-.916-2.933h5.018v2.933ZM36.1,12.12V9.454h8.749l-.824,2.666Zm-3.262,0H24.78l-.832-2.666h8.889Zm0,3.262v3.212H26.8l-1-3.212Zm-9.453,3.212H19.241l-1.527-3.212h4.668ZM24.4,21.856l.914,2.933H22.185l-1.393-2.933Zm21.126,2.933H43.519l.907-2.933h2.788ZM52.812,12.12H47.438l.825-2.666h6.082ZM20.532,9.454l.832,2.666h-5.2L14.9,9.454Z" transform="translate(0 0)" fill="#e10b17"/>
    </g>
  </g>
</svg>
