<svg id="Vrstva_1" data-name="Vrstva 1" xmlns="http://www.w3.org/2000/svg" viewBox="0 0 300 250"><defs><style>.cls-1{fill:#e1001a;}.cls-2{fill:#1a171c;}</style></defs><path class="cls-1" d="M77,119.15l4,8.63H72.92ZM71.73,111l-14.18,28H67.69L70,134.09H84l2.27,4.84H96.49L82.31,111Z"/><path class="cls-1" d="M117.23,124.19c2.51,0,4.31-.72,4.31-3.12s-1.8-3.11-4.31-3.11h-9.39v6.23Zm4,14.74-6.79-8.23h-6.55v8.23H98.17V111H118c7.47,0,13.39,3.19,13.39,9.86,0,4.6-2.8,7.55-7,9l7.87,9.15Z"/><path class="cls-1" d="M168.5,134c-3.19,3.68-8.74,5.87-16.09,5.87-11.71,0-19-5.31-19-14.89s7.31-14.9,19-14.9c7,0,12,2.23,15.09,5l-6.79,5.07a11.48,11.48,0,0,0-8-2.75c-6.28,0-9.47,2.79-9.47,7.59s3.31,7.71,9.55,7.71a11.48,11.48,0,0,0,6.71-1.76v-2.32h-8.11v-6.19H168.5Z"/><path class="cls-1" d="M198.19,125c0-4.6-3.31-7.27-8.75-7.27s-8.74,2.67-8.74,7.27,3.31,7.27,8.74,7.27,8.75-2.68,8.75-7.27m-27.36,0c0-9.55,7.43-14.9,18.61-14.9S208.1,115.4,208.1,125s-7.43,14.89-18.66,14.89-18.61-5.35-18.61-14.89"/><path class="cls-1" d="M242.45,129.9c0,6-5.39,9.94-15.73,9.94-7.27,0-13.58-1.91-18.1-5.31l4.84-5.59a22.55,22.55,0,0,0,13.42,4c4,0,6-.67,6-2.07s-1.6-1.84-6.79-2.28c-8.59-.76-16.22-2.72-16.22-9.11,0-6.11,6.67-9.46,15.74-9.46,5.87,0,11.66,1.36,15.7,4l-4.64,5.67a19.64,19.64,0,0,0-11.06-2.91c-2.84,0-6.11.36-6.11,1.88,0,1.35,2.51,1.63,7,2,9.34.76,16,2.56,16,9.19"/><polygon class="cls-2" points="128.64 147.88 128.64 154.49 133.5 154.49 133.5 153.5 129.72 153.5 129.72 151.5 133.09 151.5 133.09 150.57 129.72 150.57 129.72 148.85 133.38 148.85 133.38 147.88 128.64 147.88"/><polygon class="cls-2" points="144.32 147.88 144.32 154.49 148.69 154.49 148.69 153.49 145.43 153.49 145.43 147.88 144.32 147.88"/><polygon class="cls-2" points="159.28 147.88 159.28 154.49 164.14 154.49 164.14 153.5 160.37 153.5 160.37 151.5 163.74 151.5 163.74 150.57 160.37 150.57 160.37 148.85 164.02 148.85 164.02 147.88 159.28 147.88"/><polygon class="cls-2" points="178.99 147.88 176.07 150.87 176.07 147.88 174.97 147.88 174.97 154.49 176.07 154.49 176.07 152.18 176.95 151.3 179.21 154.49 180.55 154.49 177.73 150.54 180.4 147.88 178.99 147.88"/><polygon class="cls-2" points="190.67 147.88 190.67 148.85 192.71 148.85 192.71 154.49 193.82 154.49 193.82 148.85 195.85 148.85 195.85 147.88 190.67 147.88"/><path class="cls-2" d="M209.13,150.84a1.72,1.72,0,0,0,1-.22.93.93,0,0,0,.32-.81.85.85,0,0,0-.33-.78,1.62,1.62,0,0,0-.93-.22h-1.6v2Zm-2.66-3h3.19a1.85,1.85,0,0,1,1.37.49,2.08,2.08,0,0,1,.25,2.31,1.28,1.28,0,0,1-.7.57,1.35,1.35,0,0,1,.38.19.92.92,0,0,1,.24.28,1.41,1.41,0,0,1,.12.38q0,.21.06.48l.05.95a2.58,2.58,0,0,0,.06.47.38.38,0,0,0,.22.29v.19h-1.24a1.27,1.27,0,0,1-.12-.39c0-.14,0-.3,0-.48l0-.79a2.09,2.09,0,0,0-.05-.46.84.84,0,0,0-.15-.33.65.65,0,0,0-.32-.2,1.48,1.48,0,0,0-.52-.07h-1.66v2.72h-1.1Z"/><path class="cls-2" d="M225.42,148.66a1.86,1.86,0,0,0-1.5.66,3.45,3.45,0,0,0,0,3.74,2,2,0,0,0,3,0,3.45,3.45,0,0,0,0-3.74,1.83,1.83,0,0,0-1.5-.66m0-.95a3.45,3.45,0,0,1,1.32.24,2.64,2.64,0,0,1,1,.69,3.16,3.16,0,0,1,.63,1.09,4.48,4.48,0,0,1,.22,1.46,4.39,4.39,0,0,1-.22,1.46,3.2,3.2,0,0,1-.63,1.1,2.64,2.64,0,0,1-1,.69,3.75,3.75,0,0,1-2.64,0,2.64,2.64,0,0,1-1-.69,3.16,3.16,0,0,1-.63-1.09,4.45,4.45,0,0,1-.22-1.47,4.54,4.54,0,0,1,.22-1.47,3.16,3.16,0,0,1,.63-1.09,2.62,2.62,0,0,1,1-.68,3.45,3.45,0,0,1,1.32-.24"/></svg>