<svg id="Vrstva_1" data-name="Vrstva 1" xmlns="http://www.w3.org/2000/svg" viewBox="0 0 300 250"><defs><style>.cls-1{fill:#1a171c;}.cls-2{fill:#faba00;}</style></defs><path class="cls-1" d="M87.69,104.06h2l2.4-6.45h9.49l2.37,6.45h2L98,83H95.7l-8,21.06Zm5.08-8.18,4.07-10.83,4.1,10.83Zm21.85,8.18h1.93V84.73h6.56V83h-15v1.73h6.56v19.33Zm13.83,0H142.6v-1.73H130.39V94.1h10.83V92.37H130.39V84.73h11.86V83h-13.8v21.06Zm20.53,0h12.74v-1.73h-10.8V83H149v21.06Zm18,0h1.93V83h-1.93v21.06Zm9.48,0h14.15v-1.73H178.35V94.1h10.84V92.37H178.35V84.73h11.86V83h-13.8v21.06Zm20.62,0H199V94.62h6.15c3.49,0,4,.89,4.31,4.49l.23,2.78a6.17,6.17,0,0,0,.47,2.17h2.14v-.3a2.78,2.78,0,0,1-.67-1.93l-.27-3.16c-.24-2.7-.43-4.16-2.63-4.89,2.2-.77,3.39-2.58,3.39-5.19a5.21,5.21,0,0,0-2.57-4.74C208,83,206.29,83,204.06,83h-7v21.06ZM199,92.9V84.73h5.48c1.73,0,3.05,0,4.07.73a3.71,3.71,0,0,1,1.58,3.19c0,3.07-1.73,4.25-5.53,4.25Z"/><rect class="cls-2" x="87.72" y="112.67" width="124.57" height="3.87"/><polygon class="cls-1" points="170.59 167 183.91 167 183.91 154.52 187.53 150.78 197.46 167 212.31 167 196.59 141.35 212.31 125.18 196.57 125.18 183.91 138.26 183.91 125.18 170.59 125.18 170.59 167 170.59 167"/><polygon class="cls-1" points="131.38 167 165.64 167 165.64 156.83 144.81 156.83 144.81 150.37 161.74 150.37 161.74 140.77 144.81 140.77 144.81 135.19 164.82 135.19 164.82 125.18 131.38 125.18 131.38 167 131.38 167"/><path class="cls-1" d="M101.13,156.42V135.77h3.78c6.34,0,8.73,2.79,8.73,10.35,0,7.8-2.27,10.3-8.91,10.3ZM87.69,167h13.73c6.51,0,11.46-.11,15-1.75,7-3.13,10.7-9.65,10.7-19.13q0-13.51-8.73-18.55c-3.83-2.21-8.49-2.39-14.48-2.39H87.69V167Z"/></svg>