<svg id="Vrstva_1" data-name="Vrstva 1" xmlns="http://www.w3.org/2000/svg" viewBox="0 0 300 250"><defs><style>.cls-1,.cls-2{fill:#cf7004;}.cls-2{fill-rule:evenodd;}.cls-3{fill:#1a171c;}</style></defs><path class="cls-1" d="M238.38,136.13V113.82h4.9c3.12,0,5.46.05,7.21,1.19,2.56,1.68,3.86,5,3.86,10,0,5.16-1.29,8.51-4,10.13-1.59.94-3.82,1-6.76,1Zm3.83-24.5h-6.28v26.69h7.35c3.46,0,6.06-.11,8-1.15,3.64-2,5.61-6.08,5.61-12.25,0-5.71-1.83-9.79-5-11.84-2.09-1.32-4.65-1.45-7.81-1.45ZM208.72,125c0,8.76,4.83,14.07,12.22,14.07s12.25-5.31,12.25-14.07-4.83-14.07-12.25-14.07-12.22,5.31-12.22,14.07Zm2.52,0c0-7.46,4-11.88,9.7-11.88s9.73,4.38,9.73,11.88-3.9,11.88-9.73,11.88-9.7-4.38-9.7-11.88Zm-27.52,0c0-7.46,4-11.88,9.69-11.88s9.73,4.38,9.73,11.88-3.9,11.88-9.73,11.88-9.69-4.38-9.69-11.88Zm-2.53,0c0,8.76,4.83,14.07,12.22,14.07s12.26-5.31,12.26-14.07-4.83-14.07-12.26-14.07-12.22,5.31-12.22,14.07Zm-25.42,13.32h2.64l6.16-23.72,6.06,23.72h2.67l7-26.69H178l-6,23-5.83-23h-3l-5.91,23-5.94-23h-2.42l6.91,26.69Z"/><path class="cls-2" d="M33.27,111.66H60v4.67H33.27v-4.67Zm26.68,12H33.27V119H60v4.67ZM60,131H33.27v-4.67H60V131Zm0,7.34H33.27v-4.67H60v4.67Z"/><path class="cls-3" d="M66.62,138.34h8.75c4.16,0,7.31-.08,9.57-1.11,4.49-2,6.83-6.16,6.83-12.21q0-8.62-5.56-11.84c-2.45-1.41-5.42-1.52-9.24-1.52H66.62v26.68Zm8.57-6.75V118.41H77.6c4,0,5.56,1.79,5.56,6.61,0,5-1.44,6.57-5.67,6.57Zm19.29,6.75h21.86v-6.49H103.05v-4.12h10.8v-6.12h-10.8V118h12.77v-6.38H94.48v26.68Zm24.64,0h8.5v-8.5l2.11-2.19,6.54,10.69h10.2l-10.76-16.85,9.53-9.83H135.3l-7.68,8.83v-8.83h-8.5v26.68Z"/><path class="cls-3" d="M263.44,111.79a3.25,3.25,0,0,1,1.28.25,3.41,3.41,0,0,1,1.08.74,3.25,3.25,0,0,1,.93,2.3,3.2,3.2,0,0,1-.25,1.27,3,3,0,0,1-.72,1.06,3.33,3.33,0,0,1-1.07.71,3.39,3.39,0,0,1-1.25.24,3.18,3.18,0,0,1-1.26-.25,3.41,3.41,0,0,1-1.08-.74,3.2,3.2,0,0,1-.94-2.29,3.15,3.15,0,0,1,.12-.87,3.37,3.37,0,0,1,.36-.83,3.15,3.15,0,0,1,1.18-1.17A3.21,3.21,0,0,1,263.44,111.79Zm0,.55a2.71,2.71,0,0,0-1,.2,2.51,2.51,0,0,0-.87.58,2.83,2.83,0,0,0-.62.91,2.66,2.66,0,0,0-.21,1,2.66,2.66,0,0,0,.79,1.91,2.83,2.83,0,0,0,.89.61,2.73,2.73,0,0,0,1.05.21,2.86,2.86,0,0,0,1-.2,3,3,0,0,0,.91-.6,2.59,2.59,0,0,0,.81-1.88,2.92,2.92,0,0,0-.2-1.08,2.73,2.73,0,0,0-2.54-1.71Zm-1.37.85h1.43a2.06,2.06,0,0,1,1.17.27.87.87,0,0,1,.39.78,1,1,0,0,1-.21.62,1.07,1.07,0,0,1-.59.35l.82,1.63h-1l-.7-1.5H263v1.5h-.88Zm.88.57v1h.44a1.05,1.05,0,0,0,.57-.12.51.51,0,0,0,0-.8,1.07,1.07,0,0,0-.6-.13Z"/></svg>