<svg id="Vrstva_1" data-name="Vrstva 1" xmlns="http://www.w3.org/2000/svg" viewBox="0 0 300 250"><defs><style>.cls-1,.cls-2{fill:#002f5c;}.cls-2{fill-rule:evenodd;}</style></defs><path class="cls-1" d="M258.64,111.09a3.38,3.38,0,0,1,1.34.27,3.3,3.3,0,0,1,1.13.77,3.09,3.09,0,0,1,.72,1.1,3.39,3.39,0,0,1,.25,1.31,3.5,3.5,0,0,1-.25,1.33,3.49,3.49,0,0,1-3.19,2.1,3.32,3.32,0,0,1-1.32-.27,3.4,3.4,0,0,1-1.12-.77,3.21,3.21,0,0,1-.73-1.1,3.34,3.34,0,0,1-.26-1.29,3.52,3.52,0,0,1,.13-.92,3.67,3.67,0,0,1,.37-.87,3.37,3.37,0,0,1,2.93-1.66Zm0,.58a3,3,0,0,0-1.09.2,2.75,2.75,0,0,0-.91.61,3,3,0,0,0-.64,1,2.81,2.81,0,0,0,0,2.18,2.87,2.87,0,0,0,.62.92,2.76,2.76,0,0,0,.94.64,2.72,2.72,0,0,0,1.09.22,2.88,2.88,0,0,0,1.08-.21,3.24,3.24,0,0,0,.95-.62,2.59,2.59,0,0,0,.62-.91,2.64,2.64,0,0,0,.23-1.07,2.94,2.94,0,0,0-.21-1.12,2.73,2.73,0,0,0-.61-.93,2.67,2.67,0,0,0-.94-.64A2.72,2.72,0,0,0,258.65,111.67Zm-1.43.89h1.49a2.17,2.17,0,0,1,1.23.28.92.92,0,0,1,.41.82,1,1,0,0,1-.22.64,1.18,1.18,0,0,1-.62.37l.86,1.7h-1l-.73-1.56h-.46v1.56h-.92Zm.92.59v1.1h.46a1.07,1.07,0,0,0,.6-.13.44.44,0,0,0,.19-.4.49.49,0,0,0-.2-.43,1.09,1.09,0,0,0-.63-.14Z"/><path class="cls-1" d="M37.92,139h9.16c4.35,0,7.65-.07,10-1.16,4.7-2.1,7.15-6.44,7.15-12.77,0-6-1.94-10.13-5.83-12.38-2.56-1.48-5.66-1.6-9.66-1.6H37.92V139Zm9-7.06V118.11h2.53c4.23,0,5.82,1.86,5.82,6.91,0,5.2-1.51,6.87-5.94,6.87ZM67.07,139H89.94v-6.79H76v-4.31h11.3v-6.4H76v-3.73H89.4V111H67.07V139Zm25.78,0h8.89v-8.88l2.22-2.29L110.79,139h10.67l-11.25-17.62,10-10.29h-10.4l-8,9.24V111H92.85V139Z"/><polygon class="cls-2" points="240.68 112.13 240.88 111.04 249.79 111.04 249.58 112.13 240.68 112.13 240.68 112.13"/><polygon class="cls-2" points="240.2 114.82 240.51 113.08 249.41 113.08 249.11 114.82 240.2 114.82 240.2 114.82"/><polygon class="cls-2" points="239.69 117.54 240.03 115.8 248.94 115.8 248.63 117.54 239.69 117.54 239.69 117.54"/><polygon class="cls-2" points="239.21 120.26 239.52 118.53 248.46 118.53 248.16 120.26 239.21 120.26 239.21 120.26"/><polygon class="cls-2" points="238.74 122.94 239.04 121.24 247.99 121.24 247.65 122.94 238.74 122.94 238.74 122.94"/><polygon class="cls-2" points="238.26 125.66 238.57 123.93 247.47 123.93 247.14 125.66 238.26 125.66 238.26 125.66"/><polygon class="cls-2" points="237.79 128.35 238.09 126.65 246.97 126.65 246.66 128.35 237.79 128.35 237.79 128.35"/><polygon class="cls-2" points="237.31 131.07 237.62 129.33 246.49 129.33 246.19 131.07 237.31 131.07 237.31 131.07"/><polygon class="cls-2" points="236.8 133.79 237.11 132.05 258.7 132.05 258.39 133.79 236.8 133.79 236.8 133.79"/><polygon class="cls-2" points="236.32 136.51 236.63 134.74 258.22 134.74 257.95 136.51 236.32 136.51 236.32 136.51"/><polygon class="cls-2" points="235.88 138.96 236.15 137.46 257.78 137.46 257.47 138.96 235.88 138.96 235.88 138.96"/><polygon class="cls-2" points="219.43 112.13 220 111.04 228.95 111.04 229.12 112.13 219.43 112.13 219.43 112.13"/><polygon class="cls-2" points="218.07 114.82 218.92 113.08 229.29 113.08 229.59 114.82 218.07 114.82 218.07 114.82"/><polygon class="cls-2" points="216.64 117.54 217.56 115.8 229.8 115.8 230.07 117.54 216.64 117.54 216.64 117.54"/><polygon class="cls-2" points="230.72 121.24 231.03 122.94 223.44 122.94 223.24 121.24 230.72 121.24 230.72 121.24"/><polygon class="cls-2" points="215.28 120.26 216.16 118.53 230.24 118.53 230.55 120.26 223.13 120.26 223.03 119.65 222.79 120.26 215.28 120.26 215.28 120.26"/><polygon class="cls-2" points="213.85 122.94 214.77 121.24 222.39 121.24 221.6 122.94 213.85 122.94 213.85 122.94"/><polygon class="cls-2" points="223.75 125.66 223.54 123.93 231.19 123.93 231.46 125.66 223.75 125.66 223.75 125.66"/><polygon class="cls-2" points="212.49 125.66 213.38 123.93 221.16 123.93 220.41 125.66 212.49 125.66 212.49 125.66"/><polygon class="cls-2" points="224.05 128.35 223.85 126.65 231.63 126.65 231.94 128.35 224.05 128.35 224.05 128.35"/><polygon class="cls-2" points="211.06 128.35 211.98 126.65 220 126.65 219.22 128.35 211.06 128.35 211.06 128.35"/><polygon class="cls-2" points="209.71 131.07 210.59 129.33 218.78 129.33 218.51 129.98 224.26 129.98 224.16 129.33 232.11 129.33 232.45 131.07 209.71 131.07 209.71 131.07"/><polygon class="cls-2" points="208.28 133.79 209.16 132.05 232.62 132.05 232.89 133.79 208.28 133.79 208.28 133.79"/><polygon class="cls-2" points="233.54 137.46 233.81 138.96 225.38 138.96 225.24 137.46 233.54 137.46 233.54 137.46"/><polygon class="cls-2" points="206.92 136.51 207.8 134.74 233.06 134.74 233.37 136.51 225.14 136.51 225.04 135.62 216.13 135.62 215.76 136.51 206.92 136.51 206.92 136.51"/><polygon class="cls-2" points="205.63 138.96 206.37 137.46 215.35 137.46 214.67 138.96 205.63 138.96 205.63 138.96"/><polygon class="cls-2" points="187.03 112.13 187.23 111.04 211.57 111.04 211.37 112.13 187.03 112.13 187.03 112.13"/><polygon class="cls-2" points="186.52 114.82 186.82 113.08 211.17 113.08 210.83 114.82 186.52 114.82 186.52 114.82"/><polygon class="cls-2" points="185.97 117.54 186.28 115.8 210.66 115.8 210.32 117.54 185.97 117.54 185.97 117.54"/><polygon class="cls-2" points="193.42 120.26 193.69 118.53 202.56 118.53 202.29 120.26 193.42 120.26 193.42 120.26"/><polygon class="cls-2" points="192.94 122.94 193.25 121.24 202.12 121.24 201.82 122.94 192.94 122.94 192.94 122.94"/><polygon class="cls-2" points="192.47 125.66 192.77 123.93 201.61 123.93 201.34 125.66 192.47 125.66 192.47 125.66"/><polygon class="cls-2" points="192.03 128.35 192.3 126.65 201.17 126.65 200.87 128.35 192.03 128.35 192.03 128.35"/><polygon class="cls-2" points="191.55 131.07 191.85 129.33 200.7 129.33 200.42 131.07 191.55 131.07 191.55 131.07"/><polygon class="cls-2" points="191.04 133.79 191.35 132.05 200.25 132.05 199.95 133.79 191.04 133.79 191.04 133.79"/><polygon class="cls-2" points="190.6 136.51 190.87 134.74 199.78 134.74 199.5 136.51 190.6 136.51 190.6 136.51"/><polygon class="cls-2" points="190.16 138.96 190.43 137.46 199.34 137.46 199.03 138.96 190.16 138.96 190.16 138.96"/><polygon class="cls-2" points="164.25 112.13 164.42 111.04 186.01 111.04 185.8 112.13 164.25 112.13 164.25 112.13"/><polygon class="cls-2" points="163.77 114.82 164.08 113.08 185.63 113.08 185.33 114.82 163.77 114.82 163.77 114.82"/><polygon class="cls-2" points="163.26 117.54 163.6 115.8 185.16 115.8 184.85 117.54 163.26 117.54 163.26 117.54"/><polygon class="cls-2" points="162.79 120.26 163.09 118.53 171.8 118.53 171.49 120.26 162.79 120.26 162.79 120.26"/><polygon class="cls-2" points="162.28 122.94 162.59 121.24 171.29 121.24 171.25 121.52 182.68 121.52 182.41 122.94 162.28 122.94 162.28 122.94"/><polygon class="cls-2" points="161.8 125.66 162.11 123.93 182.23 123.93 181.9 125.66 161.8 125.66 161.8 125.66"/><polygon class="cls-2" points="161.33 128.35 161.63 126.65 181.73 126.65 181.52 127.73 170.1 127.73 170 128.35 161.33 128.35 161.33 128.35"/><polygon class="cls-2" points="160.82 131.07 161.16 129.33 169.86 129.33 169.59 131.07 160.82 131.07 160.82 131.07"/><polygon class="cls-2" points="160.34 133.79 160.65 132.05 169.42 132.05 169.39 132.22 183.09 132.22 182.81 133.79 160.34 133.79 160.34 133.79"/><polygon class="cls-2" points="159.87 136.51 160.17 134.74 182.68 134.74 182.37 136.51 159.87 136.51 159.87 136.51"/><polygon class="cls-2" points="159.42 138.96 159.7 137.46 182.2 137.46 181.96 138.96 159.42 138.96 159.42 138.96"/><polygon class="cls-2" points="147.46 112.13 147.97 111.04 158.95 111.04 158.74 112.13 147.46 112.13 147.46 112.13"/><polygon class="cls-2" points="127.4 112.13 127.57 111.04 138.48 111.04 138.58 112.13 127.4 112.13 127.4 112.13"/><polygon class="cls-2" points="154.39 137.46 154.12 138.96 146.2 138.96 146.54 137.46 154.39 137.46 154.39 137.46"/><polygon class="cls-2" points="154.83 134.74 154.56 136.51 146.71 136.51 147.08 134.74 154.83 134.74 154.83 134.74"/><polygon class="cls-2" points="155.31 132.05 155 133.79 147.28 133.79 147.63 132.05 155.31 132.05 155.31 132.05"/><polygon class="cls-2" points="155.75 129.33 155.48 131.07 147.83 131.07 148.17 129.33 155.75 129.33 155.75 129.33"/><polygon class="cls-2" points="156.26 126.65 155.96 128.35 148.41 128.35 148.78 126.65 156.26 126.65 156.26 126.65"/><polygon class="cls-2" points="156.7 123.93 156.43 125.66 148.99 125.66 149.32 123.93 156.7 123.93 156.7 123.93"/><polygon class="cls-2" points="157.18 121.24 156.87 122.94 149.53 122.94 149.87 121.24 157.18 121.24 157.18 121.24"/><polygon class="cls-2" points="157.62 118.53 157.35 120.26 150.07 120.26 150.45 118.53 157.62 118.53 157.62 118.53"/><polygon class="cls-2" points="146.2 114.82 147.01 113.08 158.57 113.08 158.27 114.82 146.2 114.82 146.2 114.82"/><polygon class="cls-2" points="144.91 117.54 145.76 115.8 158.1 115.8 157.79 117.54 144.91 117.54 144.91 117.54"/><path class="cls-2" d="M143.68,120.26l.78-1.74h5.95c-.2.61-.37,1.19-.57,1.74Z"/><path class="cls-2" d="M142.39,122.94l.85-1.7h6.26l-.41,1-.34.71Z"/><polygon class="cls-2" points="142.22 137.46 141.54 138.96 135.38 138.96 135.22 137.46 142.22 137.46 142.22 137.46"/><polygon class="cls-2" points="143.44 134.74 142.63 136.51 135.15 136.51 134.94 134.74 143.44 134.74 143.44 134.74"/><polygon class="cls-2" points="144.67 132.05 143.89 133.79 134.88 133.79 134.67 132.05 144.67 132.05 144.67 132.05"/><polygon class="cls-2" points="141.13 125.66 141.95 123.93 148.34 123.93 147.52 125.66 141.13 125.66 141.13 125.66"/><path class="cls-2" d="M140.15,128.35c.06-.27.13-.51.17-.75a6.49,6.49,0,0,1,.37-.95h6.39l-.75,1.7Z"/><path class="cls-2" d="M139.94,129.33a1.39,1.39,0,0,1,0,.17s0-.1,0-.17h5.95l-.81,1.74H134.6l-.2-1.74Z"/><path class="cls-2" d="M140,126.65v.54a6.61,6.61,0,0,1,0,1.09v.07h-5.65l-.2-1.7Z"/><polygon class="cls-2" points="139.7 123.93 139.88 125.66 134.06 125.66 133.86 123.93 139.7 123.93 139.7 123.93"/><path class="cls-2" d="M139.47,121.24l.17,1.7h-5.85l-.1-.88c0-.24,0-.51-.07-.82Z"/><path class="cls-2" d="M139.19,118.52l.17,1.74h-5.74v-1.74Z"/><polygon class="cls-2" points="126.92 114.82 127.23 113.08 138.65 113.08 138.82 114.82 126.92 114.82 126.92 114.82"/><polygon class="cls-2" points="126.45 117.54 126.75 115.8 138.92 115.8 139.09 117.54 126.45 117.54 126.45 117.54"/><polygon class="cls-2" points="126 120.26 126.31 118.53 133.59 118.53 133.35 120.26 126 120.26 126 120.26"/><polygon class="cls-2" points="125.53 122.94 125.83 121.24 133.21 121.24 132.94 122.94 125.53 122.94 125.53 122.94"/><polygon class="cls-2" points="125.02 125.66 125.32 123.93 132.8 123.93 132.56 125.66 125.02 125.66 125.02 125.66"/><polygon class="cls-2" points="124.58 128.35 124.85 126.65 132.43 126.65 132.19 128.35 124.58 128.35 124.58 128.35"/><polygon class="cls-2" points="124.1 131.07 124.4 129.33 132.06 129.33 131.82 131.07 124.1 131.07 124.1 131.07"/><polygon class="cls-2" points="123.63 133.79 123.93 132.05 131.68 132.05 131.44 133.79 123.63 133.79 123.63 133.79"/><polygon class="cls-2" points="123.15 136.51 123.45 134.74 131.31 134.74 131.07 136.51 123.15 136.51 123.15 136.51"/><polygon class="cls-2" points="122.71 138.96 122.98 137.46 130.94 137.46 130.73 138.96 122.71 138.96 122.71 138.96"/></svg>