<svg id="Vrstva_1" data-name="Vrstva 1" xmlns="http://www.w3.org/2000/svg" xmlns:xlink="http://www.w3.org/1999/xlink" viewBox="0 0 300 250"><defs><style>.cls-1{fill:none;}.cls-2{fill:#f7af00;}.cls-3{clip-path:url(#clip-path);}.cls-4{fill:#7f8992;}</style><clipPath id="clip-path"><rect class="cls-1" x="63.87" y="90.54" width="172.27" height="68.92"/></clipPath></defs><rect class="cls-2" x="110.98" y="147.3" width="0.96" height="8.15"/><polygon class="cls-2" points="115.66 147.3 118.74 153.78 118.74 147.3 119.58 147.3 119.58 155.44 118.61 155.44 115.21 148.52 115.21 155.44 114.38 155.44 114.38 147.3 115.66 147.3"/><polygon class="cls-2" points="126.31 147.3 126.31 148.13 122.98 148.13 122.98 150.83 125.74 150.83 125.74 151.66 122.98 151.66 122.98 155.44 122.01 155.44 122.01 147.3 126.31 147.3"/><g class="cls-3"><path class="cls-2" d="M133.24,151.4c0,2.76-1,4.24-2.88,4.24a2.6,2.6,0,0,1-1.86-.7,5,5,0,0,1-1-3.54c0-2.75,1-4.23,2.95-4.23s2.82,1.48,2.82,4.23M128.88,149a5.64,5.64,0,0,0-.38,2.37,5.93,5.93,0,0,0,.51,2.7,1.4,1.4,0,0,0,1.35.71,1.5,1.5,0,0,0,1.47-1,6.06,6.06,0,0,0,.39-2.38c0-2.24-.64-3.46-1.86-3.46a1.48,1.48,0,0,0-1.48,1.09"/><path class="cls-2" d="M137.74,147.3a2.51,2.51,0,0,1,1.79.57,2.32,2.32,0,0,1,.64,1.67,2.16,2.16,0,0,1-1.34,2.12l1.54,3.79h-1.09l-1.35-3.53h-1.54v3.53h-1V147.3Zm-1.35,3.78h1.22a1.43,1.43,0,0,0,1.6-1.54,1.35,1.35,0,0,0-1.54-1.41h-1.28Z"/><polygon class="cls-2" points="143.7 147.3 145.63 153.91 147.56 147.3 148.97 147.3 148.97 155.44 148 155.44 148 148.39 145.95 155.44 145.18 155.44 143.13 148.39 143.13 155.44 142.29 155.44 142.29 147.3 143.7 147.3"/><path class="cls-2" d="M154.23,147.3l2.18,8.15h-1l-.57-2.31H152.3l-.58,2.31h-1l2.31-8.15Zm-.64,1-1,4.11h2.05Z"/><polygon class="cls-2" points="161.54 147.3 161.54 148.13 159.62 148.13 159.62 155.44 158.59 155.44 158.59 148.13 156.67 148.13 156.67 147.3 161.54 147.3"/><rect class="cls-2" x="162.89" y="147.3" width="0.96" height="8.15"/><path class="cls-2" d="M171.81,151.4c0,2.76-1,4.24-2.89,4.24a2.6,2.6,0,0,1-1.86-.7,5.09,5.09,0,0,1-1-3.54c0-2.75,1-4.23,3-4.23s2.82,1.48,2.82,4.23M167.45,149a5.62,5.62,0,0,0-.39,2.37,5.93,5.93,0,0,0,.51,2.7,1.41,1.41,0,0,0,1.35.71,1.51,1.51,0,0,0,1.48-1,6.08,6.08,0,0,0,.38-2.38c0-2.24-.64-3.46-1.86-3.46a1.47,1.47,0,0,0-1.47,1.09"/><polygon class="cls-2" points="175.15 147.3 178.29 153.78 178.29 147.3 179.13 147.3 179.13 155.44 178.16 155.44 174.76 148.52 174.76 155.44 173.93 155.44 173.93 147.3 175.15 147.3"/><path class="cls-2" d="M188.37,149.42c-.39-1.09-.77-1.42-1.67-1.42a1.26,1.26,0,0,0-1.35,1.22,1.24,1.24,0,0,0,.32.84,4.27,4.27,0,0,0,1.48.77,5,5,0,0,1,1.67.83,2.44,2.44,0,0,1,.64,1.61,2.35,2.35,0,0,1-2.57,2.37,2.94,2.94,0,0,1-2-.7,2.58,2.58,0,0,1-.83-1.61l.89-.26a1.93,1.93,0,0,0,.58,1.16,1.67,1.67,0,0,0,1.35.57,1.38,1.38,0,0,0,1.54-1.41c0-.7-.38-1.15-1.6-1.6s-1.35-.51-1.74-.9a2.33,2.33,0,0,1-.7-1.6,2.22,2.22,0,0,1,2.44-2.12c1.28,0,2,.58,2.43,2Z"/><polygon class="cls-2" points="191.32 147.3 193.11 151.08 194.85 147.3 195.75 147.3 193.5 152.05 193.5 155.44 192.54 155.44 192.54 152.05 190.29 147.3 191.32 147.3"/><path class="cls-2" d="M200.81,149.42c-.38-1.09-.77-1.42-1.66-1.42a1.26,1.26,0,0,0-1.35,1.22,1.24,1.24,0,0,0,.32.84,4.16,4.16,0,0,0,1.48.77,4.91,4.91,0,0,1,1.66.83,2.39,2.39,0,0,1,.64,1.61,2.34,2.34,0,0,1-2.56,2.37,3.22,3.22,0,0,1-2.05-.7,2.89,2.89,0,0,1-.77-1.61l.89-.26a2,2,0,0,0,1.93,1.73,1.38,1.38,0,0,0,1.54-1.41c0-.7-.39-1.15-1.61-1.6s-1.34-.51-1.73-.9a2.06,2.06,0,0,1-.7-1.6,2.22,2.22,0,0,1,2.43-2.12,2.28,2.28,0,0,1,2.38,2Z"/><polygon class="cls-2" points="207.81 147.3 207.81 148.13 205.82 148.13 205.82 155.44 204.86 155.44 204.86 148.13 202.93 148.13 202.93 147.3 207.81 147.3"/><polygon class="cls-2" points="213.58 147.3 213.58 148.13 210.12 148.13 210.12 150.83 212.82 150.83 212.82 151.66 210.12 151.66 210.12 154.68 213.65 154.68 213.65 155.44 209.16 155.44 209.16 147.3 213.58 147.3"/><polygon class="cls-2" points="216.86 147.3 218.78 153.91 220.71 147.3 222.12 147.3 222.12 155.44 221.16 155.44 221.16 148.39 219.04 155.44 218.33 155.44 216.28 148.39 216.28 155.44 215.45 155.44 215.45 147.3 216.86 147.3"/><path class="cls-4" d="M219.81,126.57V111.43h9.05v-8H204.15v8h7.64v15.14a11.81,11.81,0,0,0,11.8,11.81h5.59v-8h-5.59a3.79,3.79,0,0,1-3.78-3.79m-37.6-23.16a8.57,8.57,0,0,0-8.54,8.53,9.08,9.08,0,0,0,2.63,6.23l13.86,11.22a.72.72,0,0,1,.2.45.53.53,0,0,1-.58.52H173.61v8h16.17a8.59,8.59,0,0,0,8.6-8.54,9,9,0,0,0-3.08-6.61L182,112.45a.55.55,0,0,1,.26-1h13v-8Zm-45.5,0a4,4,0,0,0-4,4v31h8V111.43h13a3.08,3.08,0,0,1,0,6.16h-6.28a4,4,0,0,0-3,6.67l15.78,18,6-5.33s-5.52-6.22-10.2-11.55a11.09,11.09,0,0,0-2.32-21.94Zm-55.57,8H95.58v-8H81.14a10.54,10.54,0,0,0-10.59,10.52v24.45h8V124.71H93.84v-8H78.57v-2.76a2.52,2.52,0,0,1,2.57-2.5"/><rect class="cls-2" x="110.98" y="103.41" width="8.02" height="7.96"/><rect class="cls-2" x="110.98" y="112.39" width="8.02" height="8.02"/><rect class="cls-2" x="110.98" y="121.37" width="8.02" height="8.02"/><rect class="cls-2" x="110.98" y="130.36" width="8.02" height="8.02"/><rect class="cls-2" x="110.98" y="94.36" width="8.02" height="8.02"/><rect class="cls-2" x="101.99" y="130.36" width="7.96" height="8.02"/><rect class="cls-2" x="101.99" y="103.41" width="7.96" height="7.96"/><rect class="cls-2" x="119.96" y="130.36" width="8.02" height="8.02"/><path class="cls-2" d="M228.36,149.42c-.39-1.09-.77-1.42-1.67-1.42a1.26,1.26,0,0,0-1.35,1.22,1.24,1.24,0,0,0,.32.84,4.27,4.27,0,0,0,1.48.77,5,5,0,0,1,1.67.83,2.44,2.44,0,0,1,.64,1.61,2.35,2.35,0,0,1-2.57,2.37,3,3,0,0,1-2-.7,2.58,2.58,0,0,1-.83-1.61l.89-.26a2,2,0,0,0,.59,1.16,1.65,1.65,0,0,0,1.34.57,1.38,1.38,0,0,0,1.54-1.41c0-.7-.38-1.15-1.6-1.6s-1.35-.51-1.73-.9a2.3,2.3,0,0,1-.71-1.6,2.23,2.23,0,0,1,2.44-2.12c1.28,0,2,.58,2.44,2Z"/></g></svg>