<svg id="Vrstva_1" data-name="Vrstva 1" xmlns="http://www.w3.org/2000/svg" xmlns:xlink="http://www.w3.org/1999/xlink" viewBox="0 0 300 250"><defs><style>.cls-1{fill:none;}.cls-2{clip-path:url(#clip-path);}.cls-3{fill:#1d1d1b;}.cls-4{fill:#e20614;}.cls-5{fill:#fff;}</style><clipPath id="clip-path"><rect class="cls-1" x="33" y="98.49" width="234" height="53.02"/></clipPath></defs><g class="cls-2"><path class="cls-3" d="M236.32,132.24a30.37,30.37,0,0,0,8.93,1.35c7.9,0,11.83-3,11.83-8.73,0-4.45-2.15-6.72-6.92-8-3.5-.9-5.21-.9-5.21-2.39,0-1.27,1.31-2,3.83-2a18.92,18.92,0,0,1,6.75,1.46v-6.68a37.35,37.35,0,0,0-8.06-.93c-7.49,0-11.39,3.24-11.39,8.65,0,4.18,2.19,6.68,6.69,7.84,3.39.86,5.44.86,5.44,2.54,0,1.23-1.21,1.94-3.6,1.94a22.28,22.28,0,0,1-8.29-1.87Zm-12.46.68h8.76V107h-8.76Zm-20.36,0h10.65l8.23-25.9h-8.91l-4.33,17.61L204.78,107h-9.51Zm-31.8,0h8.77v-8.81h1.78c2.75,0,2.95,1.16,3.36,4l.67,4.82h9.17L194.07,126c-.64-3.24-2-4.7-5.14-5.11,3.87-.82,5.81-3.1,5.81-6.79,0-5-3-7.09-9-7.09H171.7Zm8.43-20.19h1.72c2.75,0,4.16.56,4.16,2.87s-1.38,2.84-4.16,2.84h-1.72ZM148,132.92H168.1v-6.24H156.54v-3.84h10.85v-6H156.54v-3.59h11.39V107H148Zm-23.79-.68a30.37,30.37,0,0,0,8.93,1.35c7.9,0,11.83-3,11.83-8.73,0-4.45-2.15-6.72-6.92-8-3.5-.9-5.21-.9-5.21-2.39,0-1.27,1.31-2,3.83-2a18.92,18.92,0,0,1,6.75,1.46v-6.68a37.35,37.35,0,0,0-8.06-.93c-7.49,0-11.39,3.24-11.39,8.65,0,4.18,2.19,6.68,6.69,7.84,3.39.86,5.44.86,5.44,2.54,0,1.23-1.21,1.94-3.59,1.94a22.28,22.28,0,0,1-8.3-1.87Zm-3.24,0V120.08h-7.63v7c-.5,0-.94.08-1.21.08-3.45,0-5.47-2.69-5.47-7.06,0-4.7,2.49-7.35,6.88-7.35a17.31,17.31,0,0,1,6.52,1.27v-6.94a32.34,32.34,0,0,0-7-.78c-10.15,0-15.35,4.66-15.35,13.39,0,8.55,5.51,13.81,14.94,13.81a25.81,25.81,0,0,0,8.37-1.34"/><path class="cls-3" d="M246.45,139.26l3.11,5.58v3.61h1.68v-3.64l3.13-5.55h-1.82l-2.08,4.15-2.08-4.15Zm-13.81,0v9.19h1.49v-6.78c0-.24,0-.79-.1-1.65a8.12,8.12,0,0,0,.32,1.4l2.34,7h1.5l2.39-7.09c0-.16.17-.61.33-1.34a13.16,13.16,0,0,0-.11,1.64v6.79h1.62v-9.19h-2.53l-2.14,6.39a6,6,0,0,0-.24,1.52,6.94,6.94,0,0,0-.24-1.52l-2.07-6.39ZM224,140.43c1.36,0,2.34,1.3,2.34,3.4s-1,3.42-2.34,3.42-2.33-1.3-2.33-3.42,1-3.4,2.33-3.4m0-1.36c-2.51,0-4,1.78-4,4.79s1.53,4.78,4,4.78,4.05-1.77,4.05-4.78-1.55-4.79-4.05-4.79m-14,1.56h.92c2,0,3.05,1.14,3.05,3.19s-1.1,3.22-3,3.22h-1Zm-1.7-1.37v9.19h2.32a5.74,5.74,0,0,0,3.24-.7,4.37,4.37,0,0,0,1.86-3.9,4.41,4.41,0,0,0-1.84-3.92,5.6,5.6,0,0,0-3.13-.67Zm-14.65,1.54,1.38,4.13h-2.8Zm-1-1.54-3.33,9.19H191l.74-2.17h3.72l.71,2.17H198l-3.3-9.19Zm-20.49,0,3.11,5.58v3.61h1.68v-3.64l3.13-5.55h-1.82l-2.08,4.15-2.08-4.15Zm-9.81,0v1.42h2.26v7.77h1.68v-7.77h2.28v-1.42Zm-10.53,0v9.19h1.69v-4.39l3.27,4.39h2.13L155,143.53l3.52-4.27h-1.93l-3.14,4v-4Zm-10.07,0v9.19h5.34v-1.39h-3.65v-2.69h3.35V143h-3.35v-2.43H147v-1.33Zm-6.69,0v5.53c0,1.53-.21,2.26-1.35,2.26a2,2,0,0,1-.77-.17v1.53a4.52,4.52,0,0,0,1.18.18c1.86,0,2.62-1.06,2.62-3.38v-6Zm-9.89,1.17c1.37,0,2.34,1.3,2.34,3.4s-1,3.42-2.34,3.42-2.33-1.3-2.33-3.42,1-3.4,2.33-3.4m0-1.36c-2.5,0-4,1.78-4,4.79s1.54,4.78,4,4.78,4-1.77,4-4.78-1.55-4.79-4-4.79m-12.57,1.48h.74c1.25,0,1.84.41,1.84,1.38s-.6,1.39-1.71,1.39h-.87Zm-1.66-1.29v9.19h1.66V144.6h.53a1.33,1.33,0,0,1,1.5,1.07l1,2.78h1.77l-1.18-3.19c-.26-.7-.45-1.16-1.1-1.39a2.14,2.14,0,0,0,1.79-2.24c0-1.59-1-2.37-3.13-2.37Zm-8.41,1.3h.78a1.44,1.44,0,0,1,1.61,1.56c0,1-.59,1.54-1.7,1.54h-.69Zm-1.69-1.3v9.19h1.69V145h.91c2.07,0,3.2-1.07,3.2-2.84,0-2-1.07-2.86-3.26-2.86Z"/></g><rect class="cls-4" x="33" y="98.49" width="53.02" height="53.02"/><path class="cls-5" d="M52.77,132.28v8.84H66.24v-8.84l-6.47-6.54ZM50.63,116.4,40.26,126.54v14.58H50.85v-9.36l7.71-7.32Zm8.88-8.66-7.6,7.42,16.26,16.6v9.36H78.75V126.54Z"/><g class="cls-2"><path class="cls-3" d="M262.55,110.64h.85c.54,0,.9-.12.9-.69s-.45-.64-.9-.64h-.85Zm-.72-1.89h1.68c1,0,1.5.4,1.5,1.23a1.11,1.11,0,0,1-1.13,1.21l1.25,1.94h-.76l-1.22-1.94h-.6v1.94h-.72Zm1.44,5.37a3.18,3.18,0,1,0-3-3.17,3,3,0,0,0,3,3.17m0-6.91a3.74,3.74,0,1,1-3.74,3.74,3.75,3.75,0,0,1,3.74-3.74"/></g></svg>