<svg id="Vrstva_1" data-name="Vrstva 1" xmlns="http://www.w3.org/2000/svg" viewBox="0 0 300 250"><defs><style>.cls-1{fill:#e2001a;}</style></defs><path class="cls-1" d="M114.5,128.94a29.53,29.53,0,0,1-.32,5.42,4.27,4.27,0,0,1-2,2.49A7.4,7.4,0,0,1,108,138a5.86,5.86,0,0,1-4.48-1.52c-.93-1-1.4-2.63-1.4-4.85v-20L87.72,114v19.24q0,8.26,5.3,11.92t14,3.66q8.3,0,13.46-3.81t5.16-12.51V107.58l-11.17,1.89Zm54.37-6.38a14.86,14.86,0,0,0,1.62-7.06,12.29,12.29,0,0,0-4.41-9.86,16.25,16.25,0,0,0-8.41-3.47l-28.14,4.76v41.18h14.19V130.43h4.47l6.75,17.68h15.72L162.3,128Q167.25,125.64,168.87,122.56Zm-14.8-3.13a7.38,7.38,0,0,1-4.29,1.12h-6.06v-8.84h6.53q5.44,0,5.45,4.44A3.71,3.71,0,0,1,154.07,119.43Zm55.9,6a12.65,12.65,0,0,0-5.82-4.62,85.7,85.7,0,0,0-11.78-3.1,13.07,13.07,0,0,1-4.07-1.35,2.28,2.28,0,0,1-1-2q0-2.88,4.63-2.88,5.6,0,7.42,4.64l11.74-3.55q-4.53-11.36-18.65-11.35-9.32,0-14.27,4.34a13.82,13.82,0,0,0-5,10.87,12.65,12.65,0,0,0,3.45,8.84q3.45,3.75,15.61,6.09a12.94,12.94,0,0,1,4.42,1.47,2.64,2.64,0,0,1,1.24,2.32c0,1.89-1.79,2.84-5.35,2.84q-6.89,0-8.53-5.59l-13.17,2.37q4,14.09,20.85,14.09,9.24,0,14.93-4.36a13.65,13.65,0,0,0,5.69-11.36A12.9,12.9,0,0,0,210,125.39ZM87.72,111.51l38-9v-.72h-38Z"/></svg>