<svg width="260" height="150" viewBox="0 0 260 150" fill="none" xmlns="http://www.w3.org/2000/svg">
<path d="M48.8095 65.9946L53.2468 75.5184H44.3723L48.8095 65.9946ZM42.9654 57.0119L27.2727 87.9643H38.5281L41.0173 82.6612H56.4935L58.9827 87.9643H70.3463L54.6537 57.0119H42.9654Z" fill="#E1001A"/>
<path d="M93.2901 71.6223C96.1039 71.6223 98.052 70.8647 98.052 68.1591C98.052 65.5617 96.1039 64.6959 93.2901 64.6959H82.9004V71.6223H93.2901V71.6223ZM97.7273 87.9643L90.2598 78.8734H83.0087V87.9643H72.1862V57.0119H94.1559C102.489 57.0119 108.983 60.4751 108.983 67.9426C108.983 73.0292 105.844 76.276 101.299 77.7911L109.957 87.856H97.7273V87.9643Z" fill="#E1001A"/>
<path d="M150 82.4448C146.429 86.5573 140.368 88.9383 132.143 88.9383C119.156 88.9383 111.147 83.0941 111.147 72.4881C111.147 61.882 119.264 56.0379 132.143 56.0379C139.827 56.0379 145.455 58.527 148.81 61.5573L141.342 67.1851C138.636 65.0206 136.255 64.1548 132.468 64.1548C125.541 64.1548 121.97 67.2933 121.97 72.5963C121.97 77.8993 125.649 81.1461 132.576 81.1461C135.498 81.1461 137.879 80.605 140.043 79.198V76.6006H131.061V69.7825H150V82.4448Z" fill="#E1001A"/>
<path d="M182.9 72.4881C182.9 67.4015 179.221 64.4794 173.268 64.4794C167.316 64.4794 163.636 67.4015 163.636 72.4881C163.636 77.5747 167.316 80.4967 173.268 80.4967C179.221 80.4967 182.9 77.5747 182.9 72.4881ZM152.597 72.4881C152.597 61.882 160.823 56.0379 173.16 56.0379C185.606 56.0379 193.831 61.9902 193.831 72.4881C193.831 82.9859 185.606 88.9383 173.16 88.9383C160.823 88.9383 152.597 82.9859 152.597 72.4881Z" fill="#E1001A"/>
<path d="M231.818 77.8993C231.818 84.6093 225.866 88.9383 214.394 88.9383C206.385 88.9383 199.351 86.7738 194.372 83.0941L199.675 76.9253C203.247 79.5227 208.442 81.3625 214.502 81.3625C218.939 81.3625 221.104 80.605 221.104 79.0898C221.104 77.5747 219.372 77.0335 213.636 76.6006C204.113 75.7348 195.671 73.5703 195.671 66.5357C195.671 59.8257 203.03 56.0379 213.095 56.0379C219.589 56.0379 225.974 57.553 230.411 60.4751L225.325 66.7522C221.861 64.4794 217.749 63.5054 213.095 63.5054C209.957 63.5054 206.385 63.9383 206.385 65.5617C206.385 67.0768 209.199 67.4015 214.178 67.7262C224.459 68.592 231.818 70.54 231.818 77.8993Z" fill="#E1001A"/>
<path d="M105.952 97.8128V105.172H111.364V103.982H107.143V101.817H110.823V100.843H107.143V98.895H111.147V97.8128H105.952Z" fill="#1A171B"/>
<path d="M123.268 97.8128V105.172H128.139V103.982H124.459V97.8128H123.268Z" fill="#1A171B"/>
<path d="M139.827 97.8128V105.172H145.238V103.982H141.017V101.817H144.805V100.843H141.017V98.895H145.13V97.8128H139.827Z" fill="#1A171B"/>
<path d="M161.688 97.8128L158.442 101.168V97.8128H157.143V105.172H158.442V102.575L159.416 101.601L161.905 105.172H163.312L160.281 100.735L163.203 97.8128H161.688Z" fill="#1A171B"/>
<path d="M174.567 97.8128V98.895H176.84V105.172H178.03V98.895H180.303V97.8128H174.567Z" fill="#1A171B"/>
<path d="M195.022 101.06C195.455 101.06 195.887 100.951 196.104 100.843C196.32 100.627 196.429 100.41 196.429 99.9773C196.429 99.5444 196.32 99.2197 196.104 99.1115C195.887 99.0032 195.563 98.895 195.022 98.895H193.29V101.06H195.022ZM191.991 97.8128H195.13C195.238 97.8128 195.346 97.8128 195.346 97.8128C195.455 97.8128 195.455 97.8128 195.455 97.8128C196.104 97.8128 196.645 98.0292 196.97 98.3539C197.294 98.6786 197.511 99.2197 197.511 99.869C197.511 100.302 197.403 100.627 197.294 100.951C197.078 101.276 196.861 101.492 196.537 101.601C196.753 101.709 196.861 101.709 196.97 101.817C197.078 101.925 197.186 102.034 197.186 102.142C197.294 102.25 197.294 102.358 197.294 102.575C197.294 102.683 197.294 102.899 197.403 103.116L197.511 104.198C197.511 104.414 197.511 104.631 197.619 104.739C197.619 104.847 197.727 104.956 197.836 105.064V105.28H196.429C196.32 105.172 196.32 104.956 196.32 104.847C196.32 104.739 196.32 104.523 196.32 104.306V103.44C196.32 103.224 196.32 103.116 196.212 102.899C196.212 102.791 196.104 102.683 195.996 102.575C195.887 102.466 195.779 102.358 195.671 102.358C195.563 102.358 195.346 102.25 195.13 102.25H193.29V105.28H192.1V97.8128H191.991Z" fill="#1A171B"/>
<path d="M212.987 98.6786C212.338 98.6786 211.688 98.895 211.364 99.4361C210.931 99.869 210.714 100.627 210.714 101.492C210.714 102.358 210.931 103.116 211.364 103.549C211.797 103.982 212.338 104.306 212.987 104.306C213.636 104.306 214.286 104.09 214.61 103.549C215.043 103.116 215.26 102.358 215.26 101.492C215.26 100.627 215.043 99.869 214.61 99.4361C214.286 98.895 213.745 98.6786 212.987 98.6786ZM212.987 97.5963C213.528 97.5963 214.069 97.7045 214.502 97.8128C214.935 98.0292 215.26 98.2457 215.584 98.5703C215.909 98.895 216.126 99.3279 216.234 99.7608C216.45 100.194 216.45 100.735 216.45 101.384C216.45 102.034 216.342 102.575 216.234 103.008C216.017 103.44 215.801 103.873 215.584 104.198C215.26 104.523 214.935 104.739 214.502 104.956C214.069 105.172 213.528 105.172 212.987 105.172C212.446 105.172 211.905 105.064 211.472 104.956C211.039 104.739 210.714 104.523 210.39 104.198C210.065 103.873 209.848 103.44 209.74 103.008C209.524 102.575 209.524 102.034 209.524 101.384C209.524 100.735 209.632 100.194 209.74 99.7608C209.957 99.3279 210.173 98.895 210.39 98.5703C210.714 98.2457 211.039 98.0292 211.472 97.8128C212.013 97.7045 212.446 97.5963 212.987 97.5963Z" fill="#1A171B"/>
</svg>
