<?xml version="1.0" encoding="utf-8"?>
<!-- Generator: Adobe Illustrator 24.3.0, SVG Export Plug-In . SVG Version: 6.00 Build 0)  -->
<svg version="1.1" id="Vrstva_1" xmlns="http://www.w3.org/2000/svg" xmlns:xlink="http://www.w3.org/1999/xlink" x="0px" y="0px"
	 viewBox="0 0 190 110" style="enable-background:new 0 0 190 110;" xml:space="preserve">
<style type="text/css">
	.st0{fill:#E1001A;}
	.st1{fill:#1A171B;}
</style>
<g>
	<path class="st0" d="M20.4,45.6l4.1,8.8h-8.2L20.4,45.6z M15,37.3L0.5,65.9h10.4l2.3-4.9h14.3l2.3,4.9h10.5L25.8,37.3H15z"/>
	<g>
		<path class="st0" d="M61.5,50.8c2.6,0,4.4-0.7,4.4-3.2c0-2.4-1.8-3.2-4.4-3.2h-9.6v6.4H61.5z M65.6,65.9l-6.9-8.4h-6.7v8.4H42
			V37.3h20.3C70,37.3,76,40.5,76,47.4c0,4.7-2.9,7.7-7.1,9.1l8,9.3H65.6z"/>
		<path class="st0" d="M113.9,60.8c-3.3,3.8-8.9,6-16.5,6c-12,0-19.4-5.4-19.4-15.2s7.5-15.2,19.4-15.2c7.1,0,12.3,2.3,15.4,5.1
			l-6.9,5.2c-2.5-2-4.7-2.8-8.2-2.8c-6.4,0-9.7,2.9-9.7,7.8c0,4.9,3.4,7.9,9.8,7.9c2.7,0,4.9-0.5,6.9-1.8v-2.4h-8.3v-6.3h17.5V60.8z
			"/>
		<path class="st0" d="M144.3,51.6c0-4.7-3.4-7.4-8.9-7.4c-5.5,0-8.9,2.7-8.9,7.4c0,4.7,3.4,7.4,8.9,7.4
			C140.9,59,144.3,56.3,144.3,51.6 M116.3,51.6c0-9.8,7.6-15.2,19-15.2c11.5,0,19.1,5.5,19.1,15.2s-7.6,15.2-19.1,15.2
			C123.9,66.8,116.3,61.3,116.3,51.6"/>
		<path class="st0" d="M189.5,56.6c0,6.2-5.5,10.2-16.1,10.2c-7.4,0-13.9-2-18.5-5.4l4.9-5.7c3.3,2.4,8.1,4.1,13.7,4.1
			c4.1,0,6.1-0.7,6.1-2.1c0-1.4-1.6-1.9-6.9-2.3c-8.8-0.8-16.6-2.8-16.6-9.3c0-6.2,6.8-9.7,16.1-9.7c6,0,11.9,1.4,16,4.1l-4.7,5.8
			c-3.2-2.1-7-3-11.3-3c-2.9,0-6.2,0.4-6.2,1.9c0,1.4,2.6,1.7,7.2,2C182.7,48,189.5,49.8,189.5,56.6"/>
	</g>
	<polygon class="st1" points="73.2,75 73.2,81.8 78.2,81.8 78.2,80.7 74.3,80.7 74.3,78.7 77.7,78.7 77.7,77.8 74.3,77.8 74.3,76 
		78,76 78,75 	"/>
	<polygon class="st1" points="89.2,75 89.2,81.8 93.7,81.8 93.7,80.7 90.3,80.7 90.3,75 	"/>
	<polygon class="st1" points="104.5,75 104.5,81.8 109.5,81.8 109.5,80.7 105.6,80.7 105.6,78.7 109.1,78.7 109.1,77.8 105.6,77.8 
		105.6,76 109.4,76 109.4,75 	"/>
	<polygon class="st1" points="124.7,75 121.7,78.1 121.7,75 120.5,75 120.5,81.8 121.7,81.8 121.7,79.4 122.6,78.5 124.9,81.8 
		126.2,81.8 123.4,77.7 126.1,75 	"/>
	<polygon class="st1" points="136.6,75 136.6,76 138.7,76 138.7,81.8 139.8,81.8 139.8,76 141.9,76 141.9,75 	"/>
	<g>
		<path class="st1" d="M155.5,78c0.4,0,0.8-0.1,1-0.2c0.2-0.2,0.3-0.4,0.3-0.8c0-0.4-0.1-0.7-0.3-0.8c-0.2-0.1-0.5-0.2-1-0.2h-1.6
			V78H155.5z M152.7,75h2.9c0.1,0,0.2,0,0.2,0c0.1,0,0.1,0,0.1,0c0.6,0,1.1,0.2,1.4,0.5c0.3,0.3,0.5,0.8,0.5,1.4
			c0,0.4-0.1,0.7-0.2,1c-0.2,0.3-0.4,0.5-0.7,0.6c0.2,0.1,0.3,0.1,0.4,0.2c0.1,0.1,0.2,0.2,0.2,0.3c0.1,0.1,0.1,0.2,0.1,0.4
			c0,0.1,0,0.3,0.1,0.5l0.1,1c0,0.2,0,0.4,0.1,0.5c0,0.1,0.1,0.2,0.2,0.3v0.2h-1.3c-0.1-0.1-0.1-0.3-0.1-0.4c0-0.1,0-0.3,0-0.5
			l0-0.8c0-0.2,0-0.3-0.1-0.5c0-0.1-0.1-0.2-0.2-0.3c-0.1-0.1-0.2-0.2-0.3-0.2c-0.1,0-0.3-0.1-0.5-0.1h-1.7v2.8h-1.1V75z"/>
		<path class="st1" d="M172.1,75.8c-0.6,0-1.2,0.2-1.5,0.7c-0.4,0.4-0.6,1.1-0.6,1.9c0,0.8,0.2,1.5,0.6,1.9c0.4,0.4,0.9,0.7,1.5,0.7
			s1.2-0.2,1.5-0.7c0.4-0.4,0.6-1.1,0.6-1.9c0-0.8-0.2-1.5-0.6-1.9C173.3,76,172.8,75.8,172.1,75.8 M172.1,74.8c0.5,0,1,0.1,1.4,0.2
			c0.4,0.2,0.7,0.4,1,0.7c0.3,0.3,0.5,0.7,0.6,1.1c0.2,0.4,0.2,0.9,0.2,1.5c0,0.6-0.1,1.1-0.2,1.5c-0.2,0.4-0.4,0.8-0.6,1.1
			c-0.3,0.3-0.6,0.5-1,0.7c-0.4,0.2-0.9,0.2-1.4,0.2c-0.5,0-1-0.1-1.4-0.2c-0.4-0.2-0.7-0.4-1-0.7c-0.3-0.3-0.5-0.7-0.6-1.1
			c-0.2-0.4-0.2-0.9-0.2-1.5c0-0.6,0.1-1.1,0.2-1.5c0.2-0.4,0.4-0.8,0.6-1.1c0.3-0.3,0.6-0.5,1-0.7
			C171.2,74.9,171.6,74.8,172.1,74.8"/>
	</g>
</g>
</svg>
