<svg width="260" height="150" viewBox="0 0 260 150" fill="none" xmlns="http://www.w3.org/2000/svg">
<path d="M39.6818 100.364C39.9546 104.182 42.2727 106.364 46.3636 106.364C50.4546 106.364 52.9091 104.182 52.9091 101.045C52.9091 99.6818 52.3636 98.5909 51.5455 97.7727C50.5909 96.9545 49.2273 96.6818 47.5909 96.2727C44.0455 95.4545 42.4091 95.3182 42.4091 93.1364C42.4091 91.5 43.7727 90.4091 46.0909 90.4091C48.5455 90.4091 49.9091 91.6364 50.1818 93.9545H52.3636C52.3636 90.5455 50.0455 88.5 46.2273 88.5C42.5455 88.5 40.0909 90.5455 40.0909 93.5454C40.0909 96.5454 42 97.3636 45.8182 98.3182C48.9545 99 50.4546 99.2727 50.4546 101.318C50.4546 103.227 48.9546 104.455 46.2273 104.455C43.6364 104.455 41.8636 102.955 41.8636 100.364H39.6818ZM62.8636 105.955H65.1818V90.9545H70.5V88.9091H57.4091V90.9545H62.7273V105.955H62.8636ZM73.2273 105.955H75.6818L77.4545 100.909H84.1364L85.9091 105.955H88.3636L81.9545 88.9091H79.3636L73.2273 105.955ZM78.1364 98.8636L80.8636 91.3636L83.4545 98.8636H78.1364ZM98.0455 105.955H100.5L106.364 88.9091H103.909L99.1364 103.227L94.2273 88.9091H91.7727L98.0455 105.955ZM112.909 105.955H125.318V103.773H115.227V98.0455H124.364V96H115.227V90.9545H125.045V88.9091H112.909V105.955V105.955ZM135 103.909V98.0455H139.364C141.955 98.0455 143.182 98.8636 143.182 100.909C143.182 102.955 141.955 103.909 139.636 103.909H135ZM135 96.1364V90.9545H139.227C141.409 90.9545 142.5 91.7727 142.5 93.5454C142.5 95.4545 141.409 96.2727 138.955 96.2727H135V96.1364ZM132.682 105.955H139.909C143.591 105.955 145.636 103.909 145.636 100.909C145.636 98.7273 144.409 97.2273 142.364 96.8182C144 96.1364 144.818 94.9091 144.818 93.1364C144.818 90.4091 143.045 89.0455 139.5 89.0455H132.682V105.955V105.955ZM152.864 105.955H155.045V92.1818C155.182 92.7273 155.455 93.1364 155.727 93.4091L163.909 105.955H166.364V88.9091H164.182V102.682C164.045 102.273 163.773 101.727 163.364 101.182L155.455 88.7727H152.864V105.955ZM174.682 105.955H177V88.9091H174.682V105.955ZM185.318 105.955H187.5V92.1818C187.636 92.7273 187.909 93.1364 188.182 93.4091L196.364 105.955H198.818V88.9091H196.636V102.682C196.5 102.273 196.227 101.727 195.818 101.182L187.909 88.7727H185.318V105.955ZM212.864 105.955V99L218.864 88.9091H216.136L211.636 96.9545L207.136 88.9091H204.273L210.545 99.1364V105.955H212.864Z" fill="#1D1D1C"/>
<path d="M158.864 75.1363H178.091V57.2727L183.273 51.9545L197.455 75.1363H218.727L196.227 38.4545L218.727 15.2727H196.227L178.091 33.9545V15.2727H158.864V75.1363Z" fill="#D31D1C"/>
<path d="M102.682 75.1363H151.773V60.5454H121.909V51.4091H146.182V37.6364H121.909V29.5909H150.682V15.2727H102.682V75.1363Z" fill="#D31D1C"/>
<path d="M59.3182 60V30.4091H64.7727C73.9091 30.4091 77.3182 34.3636 77.3182 45.2727C77.3182 56.4545 74.0455 60 64.5 60H59.3182ZM40.0909 75.1363H59.7273C69 75.1363 76.0909 75 81.2727 72.6818C91.3636 68.1818 96.6818 58.9091 96.6818 45.2727C96.6818 32.3182 92.4546 23.4545 84.1364 18.6818C78.6818 15.5454 72 15.2727 63.4091 15.2727H40.0909V75.1363Z" fill="#D31D1C"/>
<path d="M119.738 133.148C119.763 134.122 120.084 134.892 120.7 135.459C121.317 136.026 122.149 136.31 123.197 136.31C124.257 136.31 125.077 136.094 125.657 135.663C126.236 135.219 126.526 134.627 126.526 133.887C126.526 133.493 126.446 133.172 126.285 132.926C126.137 132.679 125.909 132.476 125.601 132.315C125.293 132.155 124.911 132.019 124.454 131.908C124.011 131.785 123.487 131.649 122.882 131.502C122.143 131.329 121.495 131.15 120.941 130.965C120.386 130.768 119.923 130.54 119.554 130.281C119.184 130.01 118.9 129.677 118.703 129.282C118.518 128.888 118.425 128.401 118.425 127.821C118.425 127.242 118.536 126.712 118.758 126.231C118.98 125.738 119.295 125.318 119.701 124.973C120.121 124.628 120.62 124.363 121.199 124.178C121.791 123.981 122.451 123.882 123.178 123.882C124.658 123.882 125.817 124.258 126.655 125.01C127.494 125.762 127.919 126.804 127.931 128.136H126.211C126.15 127.248 125.848 126.57 125.305 126.101C124.763 125.62 124.017 125.38 123.067 125.38C122.155 125.38 121.44 125.577 120.922 125.972C120.404 126.366 120.145 126.878 120.145 127.507C120.145 127.938 120.225 128.277 120.386 128.524C120.546 128.771 120.786 128.974 121.107 129.134C121.44 129.295 121.859 129.436 122.365 129.56C122.87 129.683 123.474 129.825 124.177 129.985C124.83 130.145 125.41 130.299 125.915 130.447C126.421 130.595 126.859 130.83 127.229 131.15C127.956 131.767 128.32 132.611 128.32 133.684C128.32 134.313 128.203 134.886 127.968 135.404C127.734 135.922 127.395 136.365 126.951 136.735C126.52 137.105 125.983 137.389 125.342 137.586C124.713 137.783 124.004 137.882 123.215 137.882C121.6 137.882 120.343 137.481 119.443 136.68C118.542 135.866 118.062 134.689 118 133.148H119.738Z" fill="black"/>
<path d="M130.566 124.233H132.36V130.651L138.759 124.233H141.164L135.726 129.56L141.311 137.531H139.074L134.413 130.854L132.36 132.87V137.531H130.566V124.233Z" fill="black"/>
</svg>
