<?xml version="1.0" encoding="utf-8"?>
<!-- Generator: Adobe Illustrator 25.2.1, SVG Export Plug-In . SVG Version: 6.00 Build 0)  -->
<svg version="1.1" id="Vrstva_1" xmlns="http://www.w3.org/2000/svg" xmlns:xlink="http://www.w3.org/1999/xlink" x="0px" y="0px"
	 viewBox="0 0 260 150" style="enable-background:new 0 0 260 150;" xml:space="preserve">
<style type="text/css">
	.st0{fill:#1D1D1C;}
	.st1{fill:#D31D1C;}
</style>
<path class="st0" d="M39.7,100.4c0.3,3.8,2.6,6,6.7,6c4.1,0,6.5-2.2,6.5-5.3c0-1.4-0.5-2.5-1.4-3.3c-1-0.8-2.3-1.1-4-1.5
	c-3.5-0.8-5.2-1-5.2-3.1c0-1.6,1.4-2.7,3.7-2.7c2.5,0,3.8,1.2,4.1,3.5h2.2c0-3.4-2.3-5.5-6.1-5.5c-3.7,0-6.1,2-6.1,5
	c0,3,1.9,3.8,5.7,4.8c3.1,0.7,4.6,1,4.6,3c0,1.9-1.5,3.1-4.2,3.1c-2.6,0-4.4-1.5-4.4-4.1H39.7z M62.9,106h2.3V91h5.3v-2H57.4v2h5.3
	v15H62.9z M73.2,106h2.5l1.8-5h6.7l1.8,5h2.5l-6.4-17h-2.6L73.2,106z M78.1,98.9l2.7-7.5l2.6,7.5H78.1z M98,106h2.5l5.9-17h-2.5
	l-4.8,14.3l-4.9-14.3h-2.5L98,106z M112.9,106h12.4v-2.2h-10.1V98h9.1v-2h-9.1v-5h9.8v-2h-12.1V106L112.9,106z M135,103.9V98h4.4
	c2.6,0,3.8,0.8,3.8,2.9c0,2-1.2,3-3.5,3H135z M135,96.1V91h4.2c2.2,0,3.3,0.8,3.3,2.6c0,1.9-1.1,2.7-3.5,2.7h-4V96.1z M132.7,106
	h7.2c3.7,0,5.7-2,5.7-5c0-2.2-1.2-3.7-3.3-4.1c1.6-0.7,2.5-1.9,2.5-3.7c0-2.7-1.8-4.1-5.3-4.1h-6.8V106L132.7,106z M152.9,106h2.2
	V92.2c0.1,0.5,0.4,1,0.7,1.2l8.2,12.5h2.5v-17h-2.2v13.8c-0.1-0.4-0.4-1-0.8-1.5l-7.9-12.4h-2.6V106z M174.7,106h2.3v-17h-2.3V106z
	 M185.3,106h2.2V92.2c0.1,0.5,0.4,1,0.7,1.2l8.2,12.5h2.5v-17h-2.2v13.8c-0.1-0.4-0.4-1-0.8-1.5l-7.9-12.4h-2.6V106z M212.9,106v-7
	l6-10.1h-2.7l-4.5,8l-4.5-8h-2.9l6.3,10.2v6.8H212.9z"/>
<path class="st1" d="M158.9,75.1h19.2V57.3l5.2-5.3l14.2,23.2h21.3l-22.5-36.7l22.5-23.2h-22.5L178.1,34V15.3h-19.2V75.1z"/>
<path class="st1" d="M102.7,75.1h49.1V60.5h-29.9v-9.1h24.3V37.6h-24.3v-8h28.8V15.3h-48V75.1z"/>
<path class="st1" d="M59.3,60V30.4h5.5c9.1,0,12.5,4,12.5,14.9C77.3,56.5,74,60,64.5,60H59.3z M40.1,75.1h19.6
	c9.3,0,16.4-0.1,21.5-2.5c10.1-4.5,15.4-13.8,15.4-27.4c0-13-4.2-21.8-12.5-26.6c-5.5-3.1-12.1-3.4-20.7-3.4H40.1V75.1z"/>
<g>
	<path d="M75.2,133.9c0,0.6-0.2,1.2-0.4,1.7s-0.5,0.9-0.9,1.3c-0.4,0.4-0.8,0.6-1.4,0.8c-0.5,0.2-1.1,0.3-1.7,0.3
		c-0.7,0-1.4-0.1-1.9-0.4c-0.6-0.2-1.1-0.6-1.5-1.1c-0.4-0.5-0.7-1.1-0.9-1.8s-0.3-1.5-0.3-2.4c0-0.8,0.1-1.5,0.3-2.2
		c0.2-0.7,0.5-1.2,1-1.7c0.4-0.5,0.9-0.8,1.5-1.1c0.6-0.2,1.3-0.4,2-0.4c0.6,0,1.1,0.1,1.6,0.2c0.5,0.2,0.9,0.4,1.3,0.7
		c0.4,0.3,0.7,0.6,0.9,1.1c0.2,0.4,0.4,0.9,0.4,1.4h-1.4c-0.1-0.7-0.4-1.2-0.9-1.6c-0.5-0.4-1.1-0.5-1.9-0.5c-1,0-1.9,0.4-2.4,1.1
		c-0.6,0.7-0.9,1.8-0.9,3.1c0,0.6,0.1,1.2,0.2,1.7c0.2,0.5,0.4,1,0.7,1.3s0.6,0.6,1,0.8c0.4,0.2,0.9,0.3,1.3,0.3
		c0.4,0,0.8-0.1,1.2-0.2c0.4-0.1,0.7-0.3,0.9-0.6s0.5-0.6,0.6-0.9s0.2-0.8,0.3-1.2H75.2z M68.7,124h0.9l1.2,1.6L72,124h0.9l-1.4,2.5
		h-1.4L68.7,124z"/>
	<path d="M76.8,127.4h7.4v1.3h-6v3.1h5.5v1.2h-5.5v3.5h6.1v1.3h-7.5V127.4z"/>
	<path d="M86.9,134.3c0,0.8,0.3,1.4,0.8,1.8c0.5,0.4,1.1,0.7,1.9,0.7c0.8,0,1.5-0.2,1.9-0.5c0.5-0.3,0.7-0.8,0.7-1.4
		c0-0.3-0.1-0.6-0.2-0.8c-0.1-0.2-0.3-0.4-0.5-0.5c-0.2-0.1-0.5-0.2-0.9-0.3c-0.4-0.1-0.8-0.2-1.2-0.3c-0.6-0.1-1.1-0.3-1.5-0.4
		s-0.8-0.3-1.1-0.5c-0.3-0.2-0.5-0.5-0.7-0.8c-0.1-0.3-0.2-0.7-0.2-1.1s0.1-0.9,0.3-1.2c0.2-0.4,0.4-0.7,0.7-1s0.7-0.5,1.2-0.6
		c0.5-0.1,1-0.2,1.5-0.2c1.2,0,2.1,0.3,2.7,0.9c0.7,0.6,1,1.4,1,2.4H92c0-0.7-0.3-1.2-0.7-1.6s-1-0.6-1.7-0.6
		c-0.7,0-1.3,0.2-1.7,0.5c-0.4,0.3-0.6,0.7-0.6,1.2c0,0.3,0.1,0.6,0.2,0.8c0.1,0.2,0.3,0.4,0.6,0.5s0.6,0.2,1,0.3
		c0.4,0.1,0.9,0.2,1.4,0.3c0.5,0.1,1,0.2,1.4,0.4c0.4,0.1,0.7,0.3,1,0.5c0.6,0.5,0.9,1.1,0.9,2c0,0.5-0.1,0.9-0.3,1.3
		c-0.2,0.4-0.4,0.8-0.8,1c-0.3,0.3-0.8,0.5-1.3,0.7c-0.5,0.2-1.1,0.2-1.7,0.2c-1.3,0-2.2-0.3-2.9-0.9c-0.7-0.6-1.1-1.5-1.1-2.7H86.9
		z"/>
	<path d="M95.4,127.4h1.4v5l5-5h1.9l-4.2,4.2l4.4,6.2H102l-3.6-5.2l-1.6,1.6v3.6h-1.4V127.4z"/>
	<path d="M107.2,127.4h1.6l3.9,10.4h-1.5l-1.1-3.1h-4.1l-1.1,3.1h-1.5L107.2,127.4z M109.5,133.4l-1.6-4.6l-1.6,4.6H109.5z
		 M108.4,124h1.4l-2,2.5h-0.9L108.4,124z"/>
	<path d="M117.6,127.4h4c0.5,0,0.9,0,1.2,0.1c0.4,0,0.7,0.1,1,0.3c0.4,0.2,0.8,0.6,1,1c0.2,0.4,0.3,0.9,0.3,1.5
		c0,1.1-0.5,1.9-1.4,2.4c0.2,0.1,0.4,0.2,0.6,0.3c0.1,0.1,0.3,0.2,0.3,0.4c0.1,0.2,0.1,0.3,0.2,0.5c0,0.2,0.1,0.5,0.1,0.7l0.1,1.7
		c0,0.3,0.1,0.6,0.1,0.8s0.2,0.3,0.3,0.4v0.3h-1.6c-0.1-0.2-0.2-0.4-0.2-0.6c0-0.2-0.1-0.5-0.1-0.8l-0.1-1.4c0-0.4-0.1-0.7-0.2-0.9
		c-0.1-0.2-0.2-0.4-0.4-0.5c-0.2-0.1-0.4-0.2-0.7-0.2c-0.3,0-0.7,0-1.1,0H119v4.4h-1.4V127.4z M121.4,132.1c0.8,0,1.4-0.1,1.8-0.4
		s0.6-0.7,0.6-1.4c0-0.3-0.1-0.6-0.2-0.9c-0.1-0.2-0.2-0.4-0.4-0.5c-0.2-0.1-0.4-0.2-0.7-0.3c-0.3,0-0.6-0.1-1-0.1H119v3.5H121.4z"
		/>
	<path d="M127.2,127.4h7.4v1.3h-6v3.1h5.5v1.2h-5.5v3.5h6.1v1.3h-7.5V127.4z"/>
	<path d="M136.4,127.4h3.4h0.4c0.4,0,0.8,0,1.2,0.1s0.7,0.1,1.1,0.3c0.4,0.2,0.7,0.6,1,1c0.2,0.4,0.3,1,0.3,1.6
		c0,0.6-0.1,1.1-0.3,1.5s-0.5,0.8-1,1c-0.3,0.2-0.7,0.3-1.1,0.4c-0.4,0-0.9,0.1-1.4,0.1h-2.1v4.4h-1.4V127.4z M140.2,132.1
		c0.4,0,0.7,0,1-0.1s0.5-0.1,0.7-0.3s0.3-0.3,0.4-0.5c0.1-0.2,0.1-0.5,0.1-0.8c0-0.6-0.2-1.1-0.5-1.3c-0.3-0.3-0.9-0.4-1.6-0.4h-2.5
		v3.5H140.2z"/>
	<path d="M152.1,127.4h1.4v6.4c0,1.4-0.4,2.5-1.1,3.2c-0.7,0.7-1.8,1.1-3.2,1.1c-2.6,0-3.9-1.4-3.9-4.2v-6.4h1.4v6.4
		c0,1,0.2,1.7,0.6,2.2c0.4,0.5,1.1,0.7,2,0.7c1.8,0,2.7-1,2.7-2.9V127.4z"/>
	<path d="M155.7,127.4h4.2c2.2,0,3.2,0.8,3.2,2.5c0,1.1-0.5,1.8-1.5,2.3c0.6,0.1,1.1,0.4,1.5,0.8c0.3,0.4,0.5,1,0.5,1.7
		c0,0.5-0.1,0.9-0.2,1.3c-0.2,0.4-0.4,0.7-0.7,1c-0.3,0.3-0.7,0.5-1.1,0.6c-0.4,0.1-0.9,0.2-1.5,0.2h-4.4V127.4z M159.6,131.7
		c0.7,0,1.3-0.1,1.6-0.4c0.3-0.3,0.5-0.7,0.5-1.2c0-1-0.7-1.5-2-1.5h-2.6v3.2H159.6z M160,136.5c0.7,0,1.3-0.2,1.6-0.5
		s0.6-0.8,0.6-1.4c0-0.6-0.2-1.1-0.6-1.3c-0.4-0.3-1-0.4-1.8-0.4h-2.7v3.6H160z"/>
	<path d="M165.3,127.4h1.4v9.1h5.2v1.3h-6.6V127.4z"/>
	<path d="M173,127.4h1.4v10.4H173V127.4z"/>
	<path d="M176.7,127.4h1.4v5l5-5h1.9l-4.2,4.2l4.4,6.2h-1.7l-3.6-5.2l-1.6,1.6v3.6h-1.4V127.4z"/>
	<path d="M188.5,127.4h1.6l3.9,10.4h-1.5l-1.1-3.1h-4.1l-1.1,3.1h-1.5L188.5,127.4z M190.8,133.4l-1.6-4.6l-1.6,4.6H190.8z"/>
</g>
</svg>
