<svg width="260" height="150" viewBox="0 0 260 150" fill="none" xmlns="http://www.w3.org/2000/svg">
<path d="M228.952 61.3886C229.387 61.3886 229.823 61.4975 230.149 61.6063C230.476 61.7152 230.911 62.0418 231.129 62.2596C231.456 62.5862 231.673 62.9128 231.782 63.2395C231.891 63.5661 232 64.0016 232 64.4371C232 64.8726 231.891 65.3081 231.782 65.6347C231.673 65.9613 231.347 66.3968 231.129 66.6145C230.802 66.9412 230.476 67.1589 230.149 67.2678C229.823 67.3767 229.387 67.4855 228.952 67.4855C228.516 67.4855 228.189 67.3767 227.754 67.2678C227.427 67.1589 226.992 66.8323 226.774 66.6145C226.447 66.2879 226.23 65.9613 226.121 65.6347C226.012 65.3081 225.903 64.8726 225.903 64.4371C225.903 64.1104 225.903 63.8927 226.012 63.5661C226.121 63.3483 226.23 63.0217 226.339 62.804C226.665 62.3685 226.992 61.933 227.427 61.7152C227.863 61.4975 228.298 61.3886 228.952 61.3886ZM228.952 61.933C228.625 61.933 228.298 62.0418 227.972 62.1507C227.645 62.2596 227.427 62.4773 227.21 62.6951C226.992 62.9128 226.774 63.2395 226.665 63.5661C226.556 63.8927 226.447 64.2193 226.447 64.5459C226.447 64.8726 226.556 65.1992 226.665 65.5258C226.774 65.8524 226.992 66.0702 227.21 66.3968C227.427 66.6145 227.754 66.8323 228.081 66.9412C228.407 67.05 228.734 67.1589 229.06 67.1589C229.387 67.1589 229.714 67.05 230.04 66.9412C230.367 66.8323 230.694 66.6145 230.911 66.3968C231.129 66.179 231.347 65.8524 231.456 65.6347C231.565 65.3081 231.673 64.9814 231.673 64.6548C231.673 64.3282 231.565 63.8927 231.456 63.6749C231.347 63.3483 231.129 63.1306 230.911 62.804C230.694 62.5862 230.367 62.3685 230.04 62.2596C229.605 61.933 229.278 61.933 228.952 61.933ZM227.645 62.6951H228.952C229.387 62.6951 229.823 62.804 230.04 62.9128C230.258 63.1306 230.367 63.3483 230.367 63.6749C230.367 63.8927 230.258 64.1104 230.149 64.2193C230.04 64.3282 229.823 64.4371 229.605 64.5459L230.367 66.0702H229.387L228.734 64.6548H228.298V66.0702H227.645V62.6951ZM228.407 63.2395V64.2193H228.843C229.06 64.2193 229.278 64.2193 229.387 64.1104C229.496 64.0016 229.605 63.8927 229.605 63.7838C229.605 63.5661 229.496 63.4572 229.387 63.3483C229.278 63.2395 229.06 63.2395 228.843 63.2395H228.407Z" fill="#00305B"/>
<path d="M26.7728 86.5385H35.0472C38.9667 86.5385 41.9062 86.4296 44.0837 85.4497C48.3298 83.5989 50.5073 79.6794 50.5073 73.9091C50.5073 68.4654 48.7653 64.7637 45.2813 62.6951C42.995 61.3886 40.1643 61.2797 36.5714 61.2797H26.7728V86.5385V86.5385ZM34.8294 80.1149V67.7033H37.1158C40.9264 67.7033 42.3417 69.3364 42.3417 73.9091C42.3417 78.5907 40.9264 80.1149 37.0069 80.1149H34.8294V80.1149ZM53.1202 86.5385H73.6974V80.4415H61.1769V76.5221H71.4111V70.7517H61.1769V67.3767H73.2619V61.3886H53.1202V86.5385ZM76.3104 86.5385H84.367V78.4818L86.3268 76.4132L92.5326 86.5385H102.113L91.9882 70.6429L101.025 61.3886H91.5527L84.2582 69.7719V61.3886H76.3104V86.5385Z" fill="#00305B"/>
<path fill-rule="evenodd" clip-rule="evenodd" d="M209.681 62.3685L209.79 61.3886H217.846L217.629 62.3685H209.681Z" fill="#00305B"/>
<path fill-rule="evenodd" clip-rule="evenodd" d="M209.245 64.7637L209.463 63.1306H217.52L217.302 64.7637H209.245Z" fill="#00305B"/>
<path fill-rule="evenodd" clip-rule="evenodd" d="M208.81 67.1589L209.028 65.6347H217.084L216.867 67.1589H208.81Z" fill="#00305B"/>
<path fill-rule="evenodd" clip-rule="evenodd" d="M208.374 69.663L208.592 68.0299H216.649L216.431 69.663H208.374Z" fill="#00305B"/>
<path fill-rule="evenodd" clip-rule="evenodd" d="M207.939 72.0582L208.157 70.534H216.213L215.887 72.0582H207.939Z" fill="#00305B"/>
<path fill-rule="evenodd" clip-rule="evenodd" d="M207.503 74.5623L207.721 72.9292H215.778L215.451 74.5623H207.503Z" fill="#00305B"/>
<path fill-rule="evenodd" clip-rule="evenodd" d="M207.068 76.9576L207.286 75.4333H215.342L215.016 76.9576H207.068Z" fill="#00305B"/>
<path fill-rule="evenodd" clip-rule="evenodd" d="M206.632 79.3528L206.85 77.8286H214.907L214.58 79.3528H206.632Z" fill="#00305B"/>
<path fill-rule="evenodd" clip-rule="evenodd" d="M206.197 81.8569L206.415 80.3326H225.903L225.576 81.8569H206.197Z" fill="#00305B"/>
<path fill-rule="evenodd" clip-rule="evenodd" d="M205.761 84.2521L205.979 82.7279H225.468L225.25 84.2521H205.761Z" fill="#00305B"/>
<path fill-rule="evenodd" clip-rule="evenodd" d="M205.326 86.5385L205.544 85.1231H225.032L224.814 86.5385H205.326Z" fill="#00305B"/>
<path fill-rule="evenodd" clip-rule="evenodd" d="M190.519 62.3685L190.955 61.3886H199.12L199.229 62.3685H190.519Z" fill="#00305B"/>
<path fill-rule="evenodd" clip-rule="evenodd" d="M189.213 64.7637L189.975 63.1306H199.338L199.664 64.7637H189.213Z" fill="#00305B"/>
<path fill-rule="evenodd" clip-rule="evenodd" d="M188.015 67.1589L188.777 65.6347H199.882L200.1 67.1589H188.015Z" fill="#00305B"/>
<path fill-rule="evenodd" clip-rule="evenodd" d="M200.644 70.534L200.971 72.0582H194.112L193.894 70.534H200.644Z" fill="#00305B"/>
<path fill-rule="evenodd" clip-rule="evenodd" d="M186.708 69.663L187.579 68.0299H200.209L200.535 69.663H193.785V69.1186L193.567 69.663H186.708Z" fill="#00305B"/>
<path fill-rule="evenodd" clip-rule="evenodd" d="M185.402 72.0582L186.273 70.534H193.132L192.479 72.0582H185.402Z" fill="#00305B"/>
<path fill-rule="evenodd" clip-rule="evenodd" d="M194.33 74.5623L194.221 72.9292H201.08L201.298 74.5623H194.33Z" fill="#00305B"/>
<path fill-rule="evenodd" clip-rule="evenodd" d="M184.204 74.5623L185.075 72.9292H192.043L191.39 74.5623H184.204Z" fill="#00305B"/>
<path fill-rule="evenodd" clip-rule="evenodd" d="M194.656 76.9576L194.438 75.4333H201.515L201.733 76.9576H194.656Z" fill="#00305B"/>
<path fill-rule="evenodd" clip-rule="evenodd" d="M182.898 76.9576L183.769 75.4333H190.955L190.301 76.9576H182.898Z" fill="#00305B"/>
<path fill-rule="evenodd" clip-rule="evenodd" d="M181.7 79.3528L182.462 77.8286H189.866L189.648 78.3729H194.874L194.765 77.8286H201.951L202.277 79.3528H181.7Z" fill="#00305B"/>
<path fill-rule="evenodd" clip-rule="evenodd" d="M180.394 81.8569L181.265 80.3326H202.386L202.604 81.8569H180.394Z" fill="#00305B"/>
<path fill-rule="evenodd" clip-rule="evenodd" d="M203.257 85.1231L203.475 86.5385H195.854L195.745 85.1231H203.257Z" fill="#00305B"/>
<path fill-rule="evenodd" clip-rule="evenodd" d="M179.196 84.2521L179.958 82.7279H202.822L203.04 84.2521H195.636L195.527 83.49H187.471L187.144 84.2521H179.196Z" fill="#00305B"/>
<path fill-rule="evenodd" clip-rule="evenodd" d="M177.999 86.5385L178.761 85.1231H186.817L186.164 86.5385H177.999Z" fill="#00305B"/>
<path fill-rule="evenodd" clip-rule="evenodd" d="M161.232 62.3685L161.45 61.3886H183.442L183.224 62.3685H161.232Z" fill="#00305B"/>
<path fill-rule="evenodd" clip-rule="evenodd" d="M160.797 64.7637L161.123 63.1306H183.007L182.68 64.7637H160.797Z" fill="#00305B"/>
<path fill-rule="evenodd" clip-rule="evenodd" d="M160.361 67.1589L160.579 65.6347H182.571L182.245 67.1589H160.361Z" fill="#00305B"/>
<path fill-rule="evenodd" clip-rule="evenodd" d="M167.002 69.663L167.22 68.0299H175.277L175.059 69.663H167.002Z" fill="#00305B"/>
<path fill-rule="evenodd" clip-rule="evenodd" d="M166.567 72.0582L166.893 70.534H174.841L174.623 72.0582H166.567Z" fill="#00305B"/>
<path fill-rule="evenodd" clip-rule="evenodd" d="M166.131 74.5623L166.458 72.9292H174.406L174.188 74.5623H166.131Z" fill="#00305B"/>
<path fill-rule="evenodd" clip-rule="evenodd" d="M165.805 76.9576L166.022 75.4333H173.97L173.752 76.9576H165.805Z" fill="#00305B"/>
<path fill-rule="evenodd" clip-rule="evenodd" d="M165.369 79.3528L165.587 77.8286H173.535L173.317 79.3528H165.369Z" fill="#00305B"/>
<path fill-rule="evenodd" clip-rule="evenodd" d="M164.825 81.8569L165.151 80.3326H173.208L172.881 81.8569H164.825Z" fill="#00305B"/>
<path fill-rule="evenodd" clip-rule="evenodd" d="M164.498 84.2521L164.716 82.7279H172.773L172.555 84.2521H164.498Z" fill="#00305B"/>
<path fill-rule="evenodd" clip-rule="evenodd" d="M164.063 86.5385L164.28 85.1231H172.337L172.119 86.5385H164.063Z" fill="#00305B"/>
<path fill-rule="evenodd" clip-rule="evenodd" d="M140.764 62.3685L140.873 61.3886H160.361L160.143 62.3685H140.764Z" fill="#00305B"/>
<path fill-rule="evenodd" clip-rule="evenodd" d="M140.328 64.7637L140.546 63.1306H160.034L159.708 64.7637H140.328Z" fill="#00305B"/>
<path fill-rule="evenodd" clip-rule="evenodd" d="M139.784 67.1589L140.11 65.6347H159.599L159.272 67.1589H139.784Z" fill="#00305B"/>
<path fill-rule="evenodd" clip-rule="evenodd" d="M139.348 69.663L139.675 68.0299H147.514L147.296 69.663H139.348Z" fill="#00305B"/>
<path fill-rule="evenodd" clip-rule="evenodd" d="M138.913 72.0582L139.239 70.534H147.078V70.7518H157.313L157.095 72.0582H138.913Z" fill="#00305B"/>
<path fill-rule="evenodd" clip-rule="evenodd" d="M138.477 74.5623L138.804 72.9292H156.986L156.659 74.5623H138.477Z" fill="#00305B"/>
<path fill-rule="evenodd" clip-rule="evenodd" d="M138.042 76.9576L138.368 75.4333H156.442L156.333 76.4132H145.99L145.881 76.9576H138.042Z" fill="#00305B"/>
<path fill-rule="evenodd" clip-rule="evenodd" d="M137.606 79.3528L137.933 77.8286H145.772L145.554 79.3528H137.606Z" fill="#00305B"/>
<path fill-rule="evenodd" clip-rule="evenodd" d="M137.171 81.8569L137.497 80.3326H145.336V80.4415H157.748L157.421 81.8569H137.171Z" fill="#00305B"/>
<path fill-rule="evenodd" clip-rule="evenodd" d="M136.735 84.2521L137.062 82.7279H157.313L157.095 84.2521H136.735Z" fill="#00305B"/>
<path fill-rule="evenodd" clip-rule="evenodd" d="M136.409 86.5385L136.627 85.1231H156.877L156.659 86.5385H136.409Z" fill="#00305B"/>
<path fill-rule="evenodd" clip-rule="evenodd" d="M125.521 62.3685L126.066 61.3886H135.973L135.755 62.3685H125.521Z" fill="#00305B"/>
<path fill-rule="evenodd" clip-rule="evenodd" d="M107.448 62.3685L107.666 61.3886H117.465L117.574 62.3685H107.448Z" fill="#00305B"/>
<path fill-rule="evenodd" clip-rule="evenodd" d="M131.836 85.1231L131.618 86.5385H124.433L124.759 85.1231H131.836Z" fill="#00305B"/>
<path fill-rule="evenodd" clip-rule="evenodd" d="M132.272 82.7279L131.945 84.2521H124.868L125.195 82.7279H132.272Z" fill="#00305B"/>
<path fill-rule="evenodd" clip-rule="evenodd" d="M132.598 80.3326L132.38 81.8569H125.412L125.739 80.3326H132.598Z" fill="#00305B"/>
<path fill-rule="evenodd" clip-rule="evenodd" d="M133.034 77.8286L132.816 79.3528H125.957L126.175 77.8286H133.034Z" fill="#00305B"/>
<path fill-rule="evenodd" clip-rule="evenodd" d="M133.469 75.4333L133.251 76.9576H126.392L126.719 75.4333H133.469Z" fill="#00305B"/>
<path fill-rule="evenodd" clip-rule="evenodd" d="M133.905 72.9292L133.687 74.5623H126.937L127.263 72.9292H133.905Z" fill="#00305B"/>
<path fill-rule="evenodd" clip-rule="evenodd" d="M134.34 70.534L134.014 72.0582H127.481L127.699 70.534H134.34Z" fill="#00305B"/>
<path fill-rule="evenodd" clip-rule="evenodd" d="M134.776 68.0299L134.449 69.663H127.917L128.243 68.0299H134.776Z" fill="#00305B"/>
<path fill-rule="evenodd" clip-rule="evenodd" d="M124.433 64.7637L125.195 63.1306H135.647L135.32 64.7637H124.433Z" fill="#00305B"/>
<path fill-rule="evenodd" clip-rule="evenodd" d="M123.235 67.1589L123.997 65.6347H135.211L134.885 67.1589H123.235Z" fill="#00305B"/>
<path fill-rule="evenodd" clip-rule="evenodd" d="M122.146 69.663L122.8 68.1388H128.134C127.917 68.6831 127.808 69.2275 127.59 69.663H122.146Z" fill="#00305B"/>
<path fill-rule="evenodd" clip-rule="evenodd" d="M120.949 72.0582L121.711 70.534H127.372C127.263 70.8606 127.154 71.1872 127.046 71.405L126.719 72.0582H120.949Z" fill="#00305B"/>
<path fill-rule="evenodd" clip-rule="evenodd" d="M120.84 85.1231L120.187 86.5385H114.634L114.525 85.1231H120.84Z" fill="#00305B"/>
<path fill-rule="evenodd" clip-rule="evenodd" d="M121.929 82.7279L121.166 84.2521H114.416L114.307 82.7279H121.929Z" fill="#00305B"/>
<path fill-rule="evenodd" clip-rule="evenodd" d="M123.017 80.3326L122.364 81.8569H114.199L114.09 80.3326H123.017Z" fill="#00305B"/>
<path fill-rule="evenodd" clip-rule="evenodd" d="M119.86 74.5623L120.622 72.9292H126.392L125.63 74.5623H119.86Z" fill="#00305B"/>
<path fill-rule="evenodd" clip-rule="evenodd" d="M118.989 76.9576C119.098 76.7398 119.098 76.5221 119.098 76.3043C119.207 75.9777 119.316 75.6511 119.424 75.4333H125.195L124.542 76.9576H118.989Z" fill="#00305B"/>
<path fill-rule="evenodd" clip-rule="evenodd" d="M118.771 77.8286C118.771 77.9374 118.771 77.9374 118.771 77.9374C118.771 77.9374 118.771 77.9374 118.771 77.8286H124.106L123.344 79.3528H113.872L113.654 77.8286H118.771Z" fill="#00305B"/>
<path fill-rule="evenodd" clip-rule="evenodd" d="M118.771 75.4333C118.771 75.5422 118.771 75.7599 118.771 75.8688C118.771 76.1954 118.771 76.5221 118.771 76.8487C118.771 76.8487 118.771 76.8487 118.771 76.9576H113.654L113.436 75.4333H118.771Z" fill="#00305B"/>
<path fill-rule="evenodd" clip-rule="evenodd" d="M118.553 72.9292L118.771 74.5623H113.436L113.327 72.9292H118.553Z" fill="#00305B"/>
<path fill-rule="evenodd" clip-rule="evenodd" d="M118.336 70.534L118.445 72.0582H113.219L113.11 71.2961C113.11 71.0784 113.11 70.8606 113.001 70.534H118.336V70.534Z" fill="#00305B"/>
<path fill-rule="evenodd" clip-rule="evenodd" d="M118.118 68.0299L118.227 69.5541H113.001C113.001 69.0098 113.001 68.5743 113.001 68.0299H118.118Z" fill="#00305B"/>
<path fill-rule="evenodd" clip-rule="evenodd" d="M107.013 64.7637L107.339 63.1306H117.682L117.791 64.7637H107.013Z" fill="#00305B"/>
<path fill-rule="evenodd" clip-rule="evenodd" d="M106.577 67.1589L106.904 65.6347H117.9L118.009 67.1589H106.577Z" fill="#00305B"/>
<path fill-rule="evenodd" clip-rule="evenodd" d="M106.251 69.663L106.468 68.0299H113.11L112.892 69.663H106.251Z" fill="#00305B"/>
<path fill-rule="evenodd" clip-rule="evenodd" d="M105.815 72.0582L106.033 70.534H112.674L112.456 72.0582H105.815Z" fill="#00305B"/>
<path fill-rule="evenodd" clip-rule="evenodd" d="M105.38 74.5623L105.597 72.9292H112.348L112.13 74.5623H105.38Z" fill="#00305B"/>
<path fill-rule="evenodd" clip-rule="evenodd" d="M104.944 76.9576L105.162 75.4333H112.021L111.803 76.9576H104.944Z" fill="#00305B"/>
<path fill-rule="evenodd" clip-rule="evenodd" d="M104.509 79.3528L104.726 77.8286H111.694L111.477 79.3528H104.509Z" fill="#00305B"/>
<path fill-rule="evenodd" clip-rule="evenodd" d="M104.073 81.8569L104.4 80.3326H111.368L111.15 81.8569H104.073Z" fill="#00305B"/>
<path fill-rule="evenodd" clip-rule="evenodd" d="M103.638 84.2521L103.964 82.7279H111.041L110.823 84.2521H103.638Z" fill="#00305B"/>
<path fill-rule="evenodd" clip-rule="evenodd" d="M103.202 86.5385L103.529 85.1231H110.715L110.497 86.5385H103.202Z" fill="#00305B"/>
</svg>
