<svg width="260" height="150" viewBox="0 0 260 150" fill="none" xmlns="http://www.w3.org/2000/svg">
<path d="M206.541 83.8237V64.4316H210.766C213.475 64.4316 215.533 64.4316 217.05 65.515C219.216 66.9233 220.408 69.8484 220.408 74.1818C220.408 78.6236 219.325 81.5486 216.941 82.957C215.533 83.8237 213.583 83.8237 211.091 83.8237H206.541ZM209.791 62.5899H204.374V85.6654H210.766C213.8 85.6654 216.075 85.5571 217.7 84.6904C220.841 82.957 222.575 79.3819 222.575 74.0735C222.575 69.09 220.95 65.6233 218.241 63.7816C216.4 62.5899 214.233 62.4816 211.525 62.4816H209.791V62.5899ZM180.757 74.1818C180.757 81.7653 184.982 86.4238 191.374 86.4238C197.874 86.4238 201.991 81.7653 201.991 74.1818C201.991 66.5983 197.766 61.9399 191.374 61.9399C184.982 61.9399 180.757 66.49 180.757 74.1818ZM182.924 74.1818C182.924 67.6817 186.391 63.8899 191.374 63.8899C196.466 63.8899 199.824 67.6817 199.824 74.1818C199.824 80.682 196.466 84.4737 191.374 84.4737C186.391 84.4737 182.924 80.682 182.924 74.1818ZM159.09 74.1818C159.09 67.6817 162.557 63.8899 167.54 63.8899C172.632 63.8899 175.99 67.6817 175.99 74.1818C175.99 80.682 172.632 84.4737 167.54 84.4737C162.448 84.4737 159.09 80.682 159.09 74.1818ZM156.923 74.1818C156.923 81.7653 161.148 86.4238 167.54 86.4238C174.04 86.4238 178.157 81.7653 178.157 74.1818C178.157 66.5983 173.932 61.9399 167.54 61.9399C161.04 61.9399 156.923 66.49 156.923 74.1818ZM134.823 85.6654H137.098L142.406 65.0816L147.715 85.6654H149.99L156.057 62.4816H153.998L148.798 82.4153L143.706 62.4816H141.106L136.015 82.4153L130.923 62.5899H128.864L134.823 85.6654Z" fill="#D06F00"/>
<path fill-rule="evenodd" clip-rule="evenodd" d="M28.5455 62.5899H51.7293V66.5983H28.5455V62.5899ZM51.621 72.9901H28.5455V68.9817H51.7293V72.9901H51.621ZM51.621 79.3819H28.5455V75.3735H51.7293V79.3819H51.621ZM51.621 85.7737H28.5455V81.7653H51.7293V85.7737H51.621Z" fill="#D06F00"/>
<path d="M57.4711 85.7737H65.0546C68.6297 85.7737 71.4464 85.6654 73.3965 84.7987C77.2966 83.0654 79.355 79.4903 79.355 74.1818C79.355 69.1984 77.7299 65.7316 74.4798 63.8899C72.3131 62.6982 69.8214 62.5899 66.463 62.5899H57.4711V85.7737V85.7737ZM64.838 79.8153V68.44H67.0047C70.4714 68.44 71.8798 69.9567 71.8798 74.1818C71.8798 78.5153 70.5798 79.9236 67.0047 79.9236H64.838V79.8153ZM81.63 85.7737H100.589V80.1403H89.1052V76.5652H98.422V71.2568H89.1052V68.115H100.155V62.5899H81.63V85.7737ZM102.972 85.7737H110.339V78.4069L112.181 76.4569L117.814 85.7737H126.698L117.381 71.1484L125.614 62.5899H116.947L110.339 70.2817V62.5899H102.972V85.7737Z" fill="#1D1D1B"/>
<path d="M229.075 62.6982C229.508 62.6982 229.833 62.8066 230.158 62.9149C230.483 63.0233 230.808 63.2399 231.133 63.5649C231.35 63.7816 231.567 64.1066 231.783 64.4316C231.892 64.7566 232 65.19 232 65.515C232 65.9483 231.892 66.2733 231.783 66.5983C231.675 66.9233 231.458 67.2483 231.133 67.465C230.808 67.6817 230.592 67.8984 230.158 68.115C229.833 68.2234 229.4 68.3317 229.075 68.3317C228.642 68.3317 228.317 68.2234 227.992 68.115C227.667 68.0067 227.342 67.79 227.017 67.465C226.8 67.2483 226.583 66.9233 226.367 66.5983C226.258 66.2733 226.15 65.9483 226.15 65.515C226.15 65.2983 226.15 64.9733 226.258 64.7566C226.367 64.54 226.475 64.3233 226.583 63.9983C226.8 63.5649 227.233 63.2399 227.558 63.0232C228.1 62.8066 228.533 62.6982 229.075 62.6982ZM229.075 63.1316C228.75 63.1316 228.425 63.2399 228.208 63.3483C227.883 63.4566 227.667 63.6733 227.45 63.8899C227.233 64.1066 227.017 64.4316 226.908 64.6483C226.8 64.9733 226.692 65.2983 226.692 65.515C226.692 65.84 226.8 66.165 226.908 66.3817C227.017 66.7067 227.233 66.9233 227.45 67.14C227.667 67.3567 227.883 67.5734 228.208 67.6817C228.533 67.79 228.75 67.8984 229.075 67.8984C229.4 67.8984 229.725 67.79 229.942 67.6817C230.267 67.5734 230.483 67.3567 230.7 67.14C230.917 66.9233 231.133 66.7067 231.242 66.3817C231.35 66.0567 231.458 65.84 231.458 65.515C231.458 65.19 231.35 64.865 231.242 64.54C231.133 64.2149 230.917 63.9983 230.7 63.7816C230.483 63.5649 230.158 63.3483 229.942 63.2399C229.725 63.2399 229.4 63.1316 229.075 63.1316ZM227.883 63.8899H229.075C229.508 63.8899 229.833 63.9983 230.05 64.1066C230.267 64.2149 230.375 64.4316 230.375 64.7566C230.375 64.9733 230.267 65.19 230.158 65.2983C230.05 65.4066 229.833 65.515 229.617 65.6233L230.375 67.0317H229.508L228.858 65.7316H228.425V67.0317H227.667V63.8899H227.883ZM228.642 64.4316V65.2983H229.075C229.292 65.2983 229.508 65.2983 229.617 65.19C229.725 65.0816 229.725 64.9733 229.725 64.865C229.725 64.7566 229.617 64.54 229.508 64.54C229.4 64.4316 229.183 64.4316 228.967 64.4316H228.642Z" fill="#1D1D1B"/>
</svg>
