<svg id="Group_1571" data-name="Group 1571" xmlns="http://www.w3.org/2000/svg" xmlns:xlink="http://www.w3.org/1999/xlink" width="53" height="53" viewBox="0 0 53 53">
  <defs>
    <clipPath id="clip-path">
      <rect id="Rectangle_1161" data-name="Rectangle 1161" width="53" height="53" fill="#e10b17"/>
    </clipPath>
  </defs>
  <g id="Group_1570" data-name="Group 1570" clip-path="url(#clip-path)">
    <path id="Path_1918" data-name="Path 1918" d="M49.78,36.108v-3.39a1.625,1.625,0,0,0-.932-1.461L46.04,29.907V22.915l2.75-1.2a1.628,1.628,0,0,0,.99-1.487V16.839A4.771,4.771,0,0,0,53,12.376a4.894,4.894,0,0,0-9.784,0,4.771,4.771,0,0,0,3.22,4.463v2.334L44.011,20.23H34.634V16.569h4.69A1.651,1.651,0,0,0,41,14.939V9.231a4.771,4.771,0,0,0,3.22-4.463,4.894,4.894,0,0,0-9.784,0,4.771,4.771,0,0,0,3.22,4.463v4.078h-4.69a1.65,1.65,0,0,0-1.672,1.63V20.23H28.272v-11a4.77,4.77,0,0,0,3.22-4.463,4.894,4.894,0,0,0-9.784,0,4.771,4.771,0,0,0,3.22,4.463v11H21.911V14.794a1.651,1.651,0,0,0-1.672-1.63h-4.69V9.231a4.77,4.77,0,0,0,3.219-4.463,4.894,4.894,0,0,0-9.784,0,4.771,4.771,0,0,0,3.221,4.463v5.562a1.65,1.65,0,0,0,1.672,1.63h4.69V20.23H9.5L6.564,19.115V16.839a4.77,4.77,0,0,0,3.22-4.462A4.836,4.836,0,0,0,4.892,7.609,4.836,4.836,0,0,0,0,12.377a4.77,4.77,0,0,0,3.22,4.462V20.23a1.631,1.631,0,0,0,1.066,1.519l3.231,1.225v7L4.286,31.2A1.629,1.629,0,0,0,3.22,32.718v3.391A4.77,4.77,0,0,0,0,40.571a4.836,4.836,0,0,0,4.892,4.768,4.836,4.836,0,0,0,4.892-4.768,4.77,4.77,0,0,0-3.22-4.462V33.833L9,32.909a1.585,1.585,0,0,0,.193.02h9.378v3.5h-4.69a1.65,1.65,0,0,0-1.672,1.63v5.708a4.771,4.771,0,0,0-3.221,4.463,4.894,4.894,0,0,0,9.784,0,4.77,4.77,0,0,0-3.219-4.463V39.691h4.69a1.651,1.651,0,0,0,1.672-1.63V32.929h3.017v10.84a4.771,4.771,0,0,0-3.22,4.463,4.894,4.894,0,0,0,9.784,0,4.77,4.77,0,0,0-3.22-4.463V32.929h3.018v5.277a1.65,1.65,0,0,0,1.672,1.63h4.69v3.934a4.771,4.771,0,0,0-3.22,4.463,4.894,4.894,0,0,0,9.784,0A4.771,4.771,0,0,0,41,43.769V38.205a1.65,1.65,0,0,0-1.672-1.63h-4.69V32.929h9.734a1.741,1.741,0,0,0,.33-.033l1.738.834v2.377a4.771,4.771,0,0,0-3.22,4.463,4.894,4.894,0,0,0,9.784,0,4.771,4.771,0,0,0-3.22-4.463m-1.672-25.24a1.51,1.51,0,1,1-1.548,1.509,1.531,1.531,0,0,1,1.548-1.509M39.325,3.259a1.51,1.51,0,1,1-1.548,1.509,1.531,1.531,0,0,1,1.548-1.509m-12.724,0a1.51,1.51,0,1,1-1.548,1.509A1.531,1.531,0,0,1,26.6,3.259m-12.723,0a1.5,1.5,0,0,1,.339,2.979,1.727,1.727,0,0,0-.679,0,1.5,1.5,0,0,1,.34-2.979M4.892,10.868a1.509,1.509,0,1,1-1.548,1.509,1.531,1.531,0,0,1,1.548-1.509m0,31.211A1.509,1.509,0,1,1,6.44,40.571,1.531,1.531,0,0,1,4.892,42.08m8.985,7.661a1.509,1.509,0,1,1,1.547-1.509,1.531,1.531,0,0,1-1.547,1.509m12.723,0a1.51,1.51,0,1,1,1.548-1.509A1.531,1.531,0,0,1,26.6,49.741m12.724,0a1.5,1.5,0,0,1-.338-2.979,1.766,1.766,0,0,0,.675,0,1.5,1.5,0,0,1-.338,2.979M10.861,23.489H42.7V29.67H10.861ZM48.108,42.08a1.51,1.51,0,1,1,1.548-1.509,1.531,1.531,0,0,1-1.548,1.509" transform="translate(0 0)" fill="#e10b17"/>
  </g>
</svg>
