<svg width="260" height="150" viewBox="0 0 260 150" fill="none" xmlns="http://www.w3.org/2000/svg">
<g clip-path="url(#clip0)">
<path d="M82.2959 102.582H81.0204V112.786H82.2959V102.582Z" fill="#F8B000"/>
<path d="M86.8878 102.582L90.7143 110.745V102.582H91.7347V113.041H90.4592L86.1225 104.112V113.041H85.102V102.582H86.8878Z" fill="#F8B000"/>
<path d="M100.153 102.582V103.602H96.0714V107.173H99.3878V108.194H96.0714V113.041H94.7959V102.582H100.153Z" fill="#F8B000"/>
<path d="M108.827 107.939C108.827 111.51 107.551 113.296 105.255 113.296C104.235 113.296 103.469 113.041 102.959 112.531C102.194 111.51 101.684 109.98 101.684 108.194C101.684 104.622 102.959 102.837 105.51 102.837C107.551 102.582 108.827 104.367 108.827 107.939ZM103.469 104.878C103.214 105.643 102.959 106.663 102.959 107.939C102.959 109.469 103.214 110.49 103.724 111.255C104.235 112.02 104.49 112.02 105.51 112.02C106.276 112.02 107.041 111.51 107.296 110.745C107.551 109.98 107.806 108.959 107.806 107.684C107.806 104.878 107.041 103.347 105.51 103.347C104.49 103.347 103.98 103.857 103.469 104.878Z" fill="#F8B000"/>
<path d="M114.694 102.582C115.714 102.582 116.48 102.837 116.99 103.347C117.5 103.857 117.755 104.622 117.755 105.388C117.755 106.663 117.245 107.429 115.969 107.939L118.01 112.786H116.735L114.949 108.449H112.908V112.786H111.633V102.582H114.694ZM112.908 107.429H114.439C115.714 107.429 116.48 106.663 116.48 105.388C116.48 104.367 115.714 103.602 114.439 103.602H112.908V107.429Z" fill="#F8B000"/>
<path d="M122.092 102.582L124.643 111L126.939 102.582H128.724V113.041H127.449V104.112L124.898 113.041H123.878L121.327 104.112V113.041H120.306V102.582H122.092Z" fill="#F8B000"/>
<path d="M135.357 102.582L138.163 112.786H136.888L136.122 109.98H133.061L132.296 112.786H131.02L133.827 102.582H135.357ZM134.592 103.857L133.316 108.959H135.867L134.592 103.857Z" fill="#F8B000"/>
<path d="M144.541 102.582V103.602H142.245V113.041H140.969V103.602H138.418V102.582H144.541Z" fill="#F8B000"/>
<path d="M147.602 102.582H146.327V112.786H147.602V102.582Z" fill="#F8B000"/>
<path d="M157.551 107.939C157.551 111.51 156.275 113.296 153.98 113.296C152.959 113.296 152.194 113.041 151.684 112.531C150.918 111.51 150.408 109.98 150.408 108.194C150.408 104.622 151.684 102.837 154.235 102.837C156.275 102.582 157.551 104.367 157.551 107.939ZM151.939 104.878C151.684 105.643 151.429 106.663 151.429 107.939C151.429 109.469 151.684 110.49 152.194 111.255C152.704 112.02 152.959 112.02 153.98 112.02C154.745 112.02 155.51 111.51 155.765 110.745C156.02 109.98 156.275 108.959 156.275 107.684C156.275 104.878 155.51 103.347 153.98 103.347C152.959 103.347 152.449 103.857 151.939 104.878Z" fill="#F8B000"/>
<path d="M161.633 102.582L165.714 110.745V102.582H166.735V113.041H165.459L161.122 104.112V113.041H160.102V102.582H161.633Z" fill="#F8B000"/>
<path d="M178.469 105.388C177.959 104.112 177.449 103.602 176.429 103.602C175.408 103.602 174.643 104.367 174.643 105.133C174.643 105.643 174.898 105.898 175.153 106.153C175.408 106.408 175.918 106.663 176.939 107.173C177.959 107.684 178.469 107.939 178.98 108.194C179.49 108.704 179.745 109.469 179.745 110.235C179.745 112.02 178.469 113.296 176.429 113.296C175.408 113.296 174.388 113.041 173.878 112.531C173.367 112.02 173.112 111.51 172.857 110.49L173.878 110.235C174.133 111 174.388 111.255 174.643 111.765C175.153 112.276 175.663 112.531 176.429 112.531C177.704 112.531 178.469 111.765 178.469 110.745C178.469 109.98 177.959 109.214 176.429 108.704C174.898 108.194 174.643 107.939 174.133 107.684C173.622 107.173 173.367 106.408 173.367 105.643C173.367 104.112 174.643 103.092 176.429 103.092C177.959 103.092 178.98 103.857 179.49 105.643L178.469 105.388Z" fill="#F8B000"/>
<path d="M182.041 102.582L184.337 107.429L186.633 102.582H187.653L184.847 108.704V113.041H183.571V108.704L180.765 102.582H182.041Z" fill="#F8B000"/>
<path d="M194.031 105.388C193.52 104.112 193.01 103.602 191.99 103.602C190.969 103.602 190.204 104.367 190.204 105.133C190.204 105.643 190.459 105.898 190.714 106.153C190.969 106.408 191.48 106.663 192.5 107.173C193.52 107.684 194.031 107.939 194.541 108.194C195.051 108.704 195.306 109.469 195.306 110.235C195.306 112.02 194.031 113.296 191.99 113.296C190.969 113.296 189.949 113.041 189.439 112.531C188.929 112.02 188.673 111.51 188.418 110.49L189.439 110.235C189.694 111 189.694 111.255 190.204 111.765C190.714 112.276 191.224 112.531 191.99 112.531C193.265 112.531 194.031 111.765 194.031 110.745C194.031 109.98 193.52 109.214 191.99 108.704C190.459 108.194 190.204 107.939 189.694 107.684C189.184 107.173 188.929 106.408 188.929 105.643C188.929 104.112 190.204 103.092 191.99 103.092C193.52 103.092 194.541 103.857 195.051 105.643L194.031 105.388Z" fill="#F8B000"/>
<path d="M202.959 102.582V103.602H200.408V113.041H199.133V103.602H196.837V102.582H202.959Z" fill="#F8B000"/>
<path d="M210.102 102.582V103.602H205.765V107.173H209.082V108.194H205.765V112.02H210.102V113.041H204.49V102.582H210.102Z" fill="#F8B000"/>
<path d="M214.184 102.582L216.735 111L219.031 102.582H220.816V113.041H219.541V104.112L216.99 113.041H216.224L213.418 104.112V113.041H212.398V102.582H214.184Z" fill="#F8B000"/>
<path d="M218.01 76.5612V57.4286H229.49V47.2245H198.367V57.4286H208.061V76.5612C208.061 84.7245 214.694 91.3571 222.857 91.3571H230V81.1531H222.857C220.051 81.4082 218.01 79.1122 218.01 76.5612ZM170.561 47.4796C164.694 47.4796 159.847 52.3265 159.847 58.1939C159.847 61.2551 161.122 64.0612 163.163 66.102L180.51 80.1326C180.51 80.1326 180.765 80.3877 180.765 80.6428C180.765 81.1531 180.51 81.4082 180 81.4082H159.592V91.6122H180C185.867 91.6122 190.714 86.7653 190.714 80.898C190.714 77.8367 189.184 74.5204 186.888 72.4796C186.888 72.4796 170.816 59.4694 170.051 58.9592C169.796 58.7041 169.796 58.449 169.796 58.1939C169.796 57.9388 170.051 57.4286 170.561 57.4286H186.888V47.2245H170.561V47.4796ZM113.418 47.4796C110.612 47.4796 108.316 49.7755 108.316 52.5816V91.6122H118.52V57.4286H134.847C136.888 57.4286 138.673 59.2143 138.673 61.2551C138.673 63.2959 136.888 65.0816 134.847 65.0816H126.939C124.898 65.0816 123.112 66.3571 122.347 68.1429C121.582 69.9286 121.837 72.2245 123.112 73.5L143.01 96.2041L150.663 89.5714C150.663 89.5714 143.776 81.6633 137.908 75.0306C144.286 73.7551 148.878 68.1428 148.878 61.2551C148.878 53.602 142.5 47.2245 134.847 47.2245H113.418V47.4796ZM43.2653 57.4286H61.3776V47.2245H43.2653C35.8673 47.4796 30 53.3469 30 60.7449V91.6122H40.2041V74.2653H59.3367V64.0612H40.2041V60.7449C40.2041 58.9592 41.4796 57.4286 43.2653 57.4286Z" fill="#7F8A93"/>
<path d="M91.2245 47.4796H81.0204V57.4286H91.2245V47.4796Z" fill="#F8B000"/>
<path d="M91.2245 58.7041H81.0204V68.9082H91.2245V58.7041Z" fill="#F8B000"/>
<path d="M91.2245 69.9286H81.0204V80.1326H91.2245V69.9286Z" fill="#F8B000"/>
<path d="M91.2245 81.4081H81.0204V91.6122H91.2245V81.4081Z" fill="#F8B000"/>
<path d="M91.2245 36H81.0204V46.2041H91.2245V36Z" fill="#F8B000"/>
<path d="M79.4898 81.4081H69.5408V91.6122H79.4898V81.4081Z" fill="#F8B000"/>
<path d="M79.4898 47.4796H69.5408V57.4286H79.4898V47.4796Z" fill="#F8B000"/>
<path d="M102.449 81.4081H92.2449V91.6122H102.449V81.4081Z" fill="#F8B000"/>
<path d="M228.724 105.388C228.214 104.112 227.704 103.602 226.684 103.602C225.663 103.602 224.898 104.367 224.898 105.133C224.898 105.643 225.153 105.898 225.408 106.153C225.663 106.408 226.173 106.663 227.194 107.173C228.214 107.684 228.724 107.939 229.235 108.194C229.745 108.704 230 109.469 230 110.235C230 112.02 228.724 113.296 226.684 113.296C225.663 113.296 224.643 113.041 224.133 112.531C223.622 112.02 223.367 111.51 223.112 110.49L224.133 110.235C224.388 111 224.643 111.255 224.898 111.765C225.408 112.276 225.918 112.531 226.684 112.531C227.959 112.531 228.724 111.765 228.724 110.745C228.724 109.98 228.214 109.214 226.684 108.704C225.153 108.194 224.898 107.939 224.388 107.684C223.878 107.173 223.622 106.408 223.622 105.643C223.622 104.112 224.898 103.092 226.684 103.092C228.214 103.092 229.235 103.857 229.745 105.643L228.724 105.388Z" fill="#F8B000"/>
</g>
<defs>
<clipPath id="clip0">
<rect width="200" height="77.2959" fill="white" transform="translate(30 36)"/>
</clipPath>
</defs>
</svg>
