<svg id="Group_1577" data-name="Group 1577" xmlns="http://www.w3.org/2000/svg" xmlns:xlink="http://www.w3.org/1999/xlink" width="71.236" height="53" viewBox="0 0 71.236 53">
  <defs>
    <clipPath id="clip-path">
      <rect id="Rectangle_1164" data-name="Rectangle 1164" width="71.236" height="53" fill="#e10b17"/>
    </clipPath>
  </defs>
  <g id="Group_1576" data-name="Group 1576" clip-path="url(#clip-path)">
    <path id="Path_1922" data-name="Path 1922" d="M66.021,37.024A26.472,26.472,0,0,0,41.739,0a26.223,26.223,0,0,0-11.2,2.49,2.5,2.5,0,0,0-.907-1.3c-.295-.2-1.077-.744-4.317-.127-1.871.357-8.2,1.868-11.179,6.337a9.2,9.2,0,0,0,1.968,12.488,26.345,26.345,0,0,0-.675,3.747q-.467-.377-.947-.7a5.987,5.987,0,0,0-4.658-6.874c-3.291-.745-6.75,1.266-7.733,1.9C.249,19.148.108,19.831.042,20.16S-.171,21.191,1.154,23.1c.683.982,3.154,4.22,6.3,4.7a6.536,6.536,0,0,0,.99.076,6.215,6.215,0,0,0,4.668-2.084,16.7,16.7,0,0,1,1.96,1.756,1.534,1.534,0,0,0,.218.147A26.518,26.518,0,0,0,38.025,52.688,6.936,6.936,0,0,0,40.082,53H62.7a8.437,8.437,0,0,0,8.534-8.316,8.329,8.329,0,0,0-5.214-7.66M7.93,24.71c-1.806-.278-3.768-2.632-4.527-3.872C4.558,20,7.2,18.672,9.135,19.109a2.929,2.929,0,0,1,2.2,2.063c-.446-.218-.92-.445-1.454-.7A1.563,1.563,0,0,0,8.543,23.3c.684.323,1.251.6,1.77.853a3.184,3.184,0,0,1-2.383.557M62.7,36.368q-.116,0-.234,0a11.443,11.443,0,0,0-6.9-5.335c.057-.849.125-1.975.162-3h9.3a23.076,23.076,0,0,1-2.04,8.121,1.515,1.515,0,0,0-.073.217c-.073,0-.144-.01-.217-.01M34.178,43.085a29.725,29.725,0,0,1-1.821-4.942,56.044,56.044,0,0,1,7.819-.689v2.279c-.032,0-.063-.006-.094-.006a6.829,6.829,0,0,0-5.9,3.358M18.446,28.041h9.3a48.507,48.507,0,0,0,.825,7.676,15.7,15.7,0,0,0-6.686,3.027,23.183,23.183,0,0,1-3.435-10.7M65.03,24.914h-9.3a48.458,48.458,0,0,0-.822-7.677A15.7,15.7,0,0,0,61.6,14.212a23.182,23.182,0,0,1,3.434,10.7m-12.426,0H43.3V18.632a61.274,61.274,0,0,0,8.53-.763,45.564,45.564,0,0,1,.772,7.045m-20.958-7.05a59.969,59.969,0,0,0,8.53.767v6.283h-9.3a45.477,45.477,0,0,1,.772-7.05M43.3,15.5V3.382C46.6,4.449,49.463,8.818,51.12,14.811A56.013,56.013,0,0,1,43.3,15.5M40.175,3.382V15.505a58.033,58.033,0,0,1-7.819-.693c1.657-5.993,4.523-10.363,7.819-11.43m-11.9,15.585a49.369,49.369,0,0,0-.529,5.947h-9.3a23.34,23.34,0,0,1,.5-3.529,8.918,8.918,0,0,0,2.657.405,9.505,9.505,0,0,0,6.669-2.823m2.6,9.074h9.3v6.281a61.286,61.286,0,0,0-8.532.764,45.409,45.409,0,0,1-.772-7.045m12.431,0h9.3c-.032.855-.088,1.8-.138,2.56-.025,0-.049-.005-.074-.005A11.6,11.6,0,0,0,43.3,34.949ZM59.767,11.655c-.421.686-2.313,1.7-5.565,2.519a27.379,27.379,0,0,0-4.533-9.658,23.437,23.437,0,0,1,10.1,7.139M33.818,4.5A21.678,21.678,0,0,0,31.529,8.17c-.05-1.1-.157-2.005-.243-2.589.028-.011.057-.019.084-.032A23.578,23.578,0,0,1,33.818,4.5M16.74,9.136c2.538-3.812,9.017-5.177,11-5.234.667,1.994,1.53,8.822-1.007,12.109a6.337,6.337,0,0,1-6.894,2.371,23.206,23.206,0,0,1,2.488-4.889,1.563,1.563,0,1,0-2.6-1.741,26.264,26.264,0,0,0-2.566,4.877,6.128,6.128,0,0,1-.425-7.493M23.711,41.3c.42-.686,2.313-1.7,5.565-2.519a28.709,28.709,0,0,0,3.919,8.834,1.525,1.525,0,0,0,.283.305c.036.148.073.3.119.44a23.448,23.448,0,0,1-9.886-7.06M62.7,49.873H42.1a1.535,1.535,0,0,0-.362-.046,23.457,23.457,0,0,1-2.969-.2,3.518,3.518,0,0,1-2.362-3.268,3.6,3.6,0,0,1,3.674-3.509,3.771,3.771,0,0,1,1.676.391,1.563,1.563,0,0,0,2.252-1.4c0-.027,0-.059,0-.092a8.247,8.247,0,0,1,8.386-8.028,8.385,8.385,0,0,1,7.728,4.937,1.572,1.572,0,0,0,1.68.915,5.719,5.719,0,0,1,.9-.079,5.194,5.194,0,1,1,0,10.378" transform="translate(0 0.001)" fill="#e10b17"/>
  </g>
</svg>
