<?xml version="1.0" encoding="utf-8"?>
<!-- Generator: Adobe Illustrator 25.4.1, SVG Export Plug-In . SVG Version: 6.00 Build 0)  -->
<svg version="1.1" id="Vrstva_1" xmlns="http://www.w3.org/2000/svg" xmlns:xlink="http://www.w3.org/1999/xlink" x="0px" y="0px"
	 viewBox="0 0 190 110" style="enable-background:new 0 0 190 110;" xml:space="preserve">
<style type="text/css">
	.st0{fill:#1A171C;}
	.st1{fill:#E1001A;}
	.st2{fill:none;stroke:#1D1D1B;stroke-width:0.1892;stroke-miterlimit:10;}
</style>
<g>
	<g>
		<g>
			<path class="st0" d="M27.3,71.8V38.2h20.4c6.9,0,10,4.6,10,8.6c0,4.2-2.5,7-5.8,7.7c3.6,0.6,6.4,3.9,6.4,8.2
				c0,4.7-3.1,9.1-9.9,9.1H27.3z M37.5,50.8h7.8c1.1,0,2.1-1,2.1-2.2c0-1.2-1-2.1-2.1-2.1h-7.8V50.8z M37.4,63.6h8.1
				c1.5,0,2.4-1.1,2.4-2.4c0-1.2-0.9-2.4-2.4-2.4h-8.1V63.6z"/>
		</g>
		<g>
			<path class="st0" d="M61.1,71.8V38.2h25.5v8.5H71.3v3.9h15v8.5h-15v4.3h15.3v8.5L61.1,71.8L61.1,71.8z"/>
		</g>
		<g>
			<path class="st0" d="M93.4,59.5c2.5,2.4,6.3,4.3,10.8,4.3c1.9,0,3.7-0.6,3.7-2c0-1.3-1.4-2-4.7-2.6c-5.6-1-14-2.3-14-10.7
				c0-5.7,4.7-10.9,14-10.9c5.5,0,10.4,1.6,14.3,4.7l-5.4,7.2c-2.9-2.2-6.7-3.4-9.3-3.4c-2.5,0-3.1,0.9-3.1,1.8
				c0,1.3,1.4,1.8,4.9,2.4c5.6,0.9,13.8,2.6,13.8,10.3c0,7.4-5.5,11.7-14.5,11.7c-7.1,0-12.1-2.1-15.6-5.3L93.4,59.5z"/>
		</g>
		<g>
			<path class="st0" d="M127.8,71.8V47h-9v-8.8H147V47h-9v24.7H127.8z"/>
		</g>
	</g>
	<g>
		<g>
			<rect x="145.4" y="54.4" class="st1" width="17.3" height="17.3"/>
		</g>
	</g>
</g>
<line class="st2" x1="228.6" y1="666.7" x2="228.6" y2="666.7"/>
</svg>
