<?xml version="1.0" encoding="utf-8"?>
<!-- Generator: Adobe Illustrator 24.3.0, SVG Export Plug-In . SVG Version: 6.00 Build 0)  -->
<svg version="1.1" id="Vrstva_1" xmlns="http://www.w3.org/2000/svg" xmlns:xlink="http://www.w3.org/1999/xlink" x="0px" y="0px"
	 viewBox="0 0 190 110" style="enable-background:new 0 0 190 110;" xml:space="preserve">
<style type="text/css">
	.st0{fill:#D06F00;}
	.st1{fill-rule:evenodd;clip-rule:evenodd;fill:#D06F00;}
	.st2{fill:#1D1D1B;}
</style>
<g>
	<path class="st0" d="M165.8,63.3V45.4h3.9c2.5,0,4.4,0,5.8,1c2,1.3,3.1,4,3.1,8c0,4.1-1,6.8-3.2,8.1c-1.3,0.8-3.1,0.8-5.4,0.8
		H165.8L165.8,63.3z M168.8,43.7h-5V65h5.9c2.8,0,4.9-0.1,6.4-0.9c2.9-1.6,4.5-4.9,4.5-9.8c0-4.6-1.5-7.8-4-9.5
		c-1.7-1.1-3.7-1.2-6.2-1.2H168.8L168.8,43.7z M142,54.4c0,7,3.9,11.3,9.8,11.3c6,0,9.8-4.3,9.8-11.3c0-7-3.9-11.3-9.8-11.3
		C145.9,43.1,142,47.3,142,54.4L142,54.4z M144,54.4c0-6,3.2-9.5,7.8-9.5c4.7,0,7.8,3.5,7.8,9.5c0,6-3.1,9.5-7.8,9.5
		C147.2,63.9,144,60.4,144,54.4L144,54.4z M122,54.4c0-6,3.2-9.5,7.8-9.5c4.7,0,7.8,3.5,7.8,9.5c0,6-3.1,9.5-7.8,9.5
		C125.1,63.9,122,60.4,122,54.4L122,54.4z M120,54.4c0,7,3.9,11.3,9.8,11.3c6,0,9.8-4.3,9.8-11.3c0-7-3.9-11.3-9.8-11.3
		C123.8,43.1,120,47.3,120,54.4L120,54.4z M99.6,65h2.1l4.9-19l4.9,19h2.1l5.6-21.4h-1.9l-4.8,18.4l-4.7-18.4h-2.4l-4.7,18.4
		L96,43.7h-1.9L99.6,65L99.6,65z"/>
	<path class="st1" d="M1.5,43.7h21.4v3.7H1.5V43.7L1.5,43.7z M22.8,53.3H1.5v-3.7h21.4V53.3L22.8,53.3z M22.8,59.2H1.5v-3.7h21.4
		V59.2L22.8,59.2z M22.8,65.1H1.5v-3.7h21.4V65.1L22.8,65.1z"/>
	<path class="st2" d="M28.2,65.1h7c3.3,0,5.9-0.1,7.7-0.9c3.6-1.6,5.5-4.9,5.5-9.8c0-4.6-1.5-7.8-4.5-9.5c-2-1.1-4.3-1.2-7.4-1.2
		h-8.3V65.1L28.2,65.1z M35,59.6V49.1H37c3.2,0,4.5,1.4,4.5,5.3c0,4-1.2,5.3-4.5,5.3H35L35,59.6z M50.5,65.1H68v-5.2H57.4v-3.3H66
		v-4.9h-8.6v-2.9h10.2v-5.1H50.5V65.1L50.5,65.1z M70.2,65.1H77v-6.8l1.7-1.8l5.2,8.6h8.2l-8.6-13.5l7.6-7.9h-8L77,50.8v-7.1h-6.8
		V65.1L70.2,65.1z"/>
</g>
<g>
	<path class="st2" d="M186.6,43.8c0.4,0,0.7,0.1,1,0.2c0.3,0.1,0.6,0.3,0.9,0.6c0.2,0.2,0.4,0.5,0.6,0.8c0.1,0.3,0.2,0.7,0.2,1
		c0,0.4-0.1,0.7-0.2,1c-0.1,0.3-0.3,0.6-0.6,0.8c-0.3,0.2-0.5,0.4-0.9,0.6c-0.3,0.1-0.7,0.2-1,0.2c-0.4,0-0.7-0.1-1-0.2
		c-0.3-0.1-0.6-0.3-0.9-0.6c-0.2-0.2-0.4-0.5-0.6-0.8c-0.1-0.3-0.2-0.6-0.2-1c0-0.2,0-0.5,0.1-0.7c0.1-0.2,0.2-0.4,0.3-0.7
		c0.2-0.4,0.6-0.7,0.9-0.9C185.7,43.9,186.1,43.8,186.6,43.8z M186.6,44.2c-0.3,0-0.6,0.1-0.8,0.2c-0.3,0.1-0.5,0.3-0.7,0.5
		c-0.2,0.2-0.4,0.5-0.5,0.7c-0.1,0.3-0.2,0.6-0.2,0.8c0,0.3,0.1,0.6,0.2,0.8c0.1,0.3,0.3,0.5,0.5,0.7c0.2,0.2,0.4,0.4,0.7,0.5
		c0.3,0.1,0.5,0.2,0.8,0.2c0.3,0,0.6-0.1,0.8-0.2c0.3-0.1,0.5-0.3,0.7-0.5c0.2-0.2,0.4-0.4,0.5-0.7c0.1-0.3,0.2-0.5,0.2-0.8
		c0-0.3-0.1-0.6-0.2-0.9c-0.1-0.3-0.3-0.5-0.5-0.7c-0.2-0.2-0.5-0.4-0.7-0.5C187.2,44.3,186.9,44.2,186.6,44.2z M185.5,44.9h1.1
		c0.4,0,0.7,0.1,0.9,0.2c0.2,0.1,0.3,0.3,0.3,0.6c0,0.2-0.1,0.4-0.2,0.5c-0.1,0.1-0.3,0.2-0.5,0.3l0.7,1.3h-0.8l-0.6-1.2h-0.4v1.2
		h-0.7V44.9z M186.2,45.4v0.8h0.4c0.2,0,0.4,0,0.5-0.1c0.1-0.1,0.1-0.2,0.1-0.3c0-0.1-0.1-0.3-0.2-0.3c-0.1-0.1-0.3-0.1-0.5-0.1
		H186.2z"/>
</g>
</svg>
