<?xml version="1.0" encoding="utf-8"?>
<!-- Generator: Adobe Illustrator 24.3.0, SVG Export Plug-In . SVG Version: 6.00 Build 0)  -->
<svg version="1.1" id="Vrstva_1" xmlns="http://www.w3.org/2000/svg" xmlns:xlink="http://www.w3.org/1999/xlink" x="0px" y="0px"
	 viewBox="0 0 190 110" style="enable-background:new 0 0 190 110;" xml:space="preserve">
<style type="text/css">
	.st0{clip-path:url(#SVGID_2_);fill:#1D1D1B;}
	.st1{fill:#E20613;}
	.st2{fill:#FFFFFF;}
	.st3{clip-path:url(#SVGID_4_);fill:#1D1D1B;}
</style>
<g>
	<defs>
		<rect id="SVGID_1_" x="7.6" y="35.9" width="173" height="39.2"/>
	</defs>
	<clipPath id="SVGID_2_">
		<use xlink:href="#SVGID_1_"  style="overflow:visible;"/>
	</clipPath>
	<path class="st0" d="M157.9,60.9c2.2,0.7,4.4,1,6.6,1c5.8,0,8.7-2.2,8.7-6.5c0-3.3-1.6-5-5.1-5.9c-2.6-0.7-3.8-0.7-3.8-1.8
		c0-0.9,1-1.5,2.8-1.5c1.4,0,3.1,0.3,5,1.1v-4.9c-2-0.4-4-0.7-6-0.7c-5.5,0-8.4,2.4-8.4,6.4c0,3.1,1.6,4.9,4.9,5.8
		c2.5,0.6,4,0.6,4,1.9c0,0.9-0.9,1.4-2.7,1.4c-1.8,0-3.8-0.4-6.1-1.4V60.9z M148.7,61.4h6.5V42.2h-6.5V61.4z M133.7,61.4h7.9
		l6.1-19.1H141l-3.2,13l-3.2-13h-7L133.7,61.4z M110.1,61.4h6.5v-6.5h1.3c2,0,2.2,0.9,2.5,3l0.5,3.6h6.8l-1-5.1
		c-0.5-2.4-1.5-3.5-3.8-3.8c2.9-0.6,4.3-2.3,4.3-5c0-3.7-2.2-5.2-6.6-5.2h-10.4V61.4z M116.4,46.4h1.3c2,0,3.1,0.4,3.1,2.1
		c0,1.7-1,2.1-3.1,2.1h-1.3V46.4z M92.6,61.4h14.8v-4.6h-8.5v-2.8h8v-4.5h-8v-2.7h8.4v-4.6H92.6V61.4z M75,60.9c2.2,0.7,4.4,1,6.6,1
		c5.8,0,8.7-2.2,8.7-6.5c0-3.3-1.6-5-5.1-5.9c-2.6-0.7-3.8-0.7-3.8-1.8c0-0.9,1-1.5,2.8-1.5c1.4,0,3.1,0.3,5,1.1v-4.9
		c-2-0.4-4-0.7-6-0.7c-5.5,0-8.4,2.4-8.4,6.4c0,3.1,1.6,4.9,4.9,5.8c2.5,0.6,4,0.6,4,1.9c0,0.9-0.9,1.4-2.7,1.4
		c-1.8,0-3.8-0.4-6.1-1.4V60.9z M72.6,60.8v-9H67v5.2c-0.4,0-0.7,0.1-0.9,0.1c-2.6,0-4-2-4-5.2c0-3.5,1.8-5.4,5.1-5.4
		c1.6,0,3.2,0.3,4.8,0.9v-5.1c-1.7-0.4-3.5-0.6-5.2-0.6c-7.5,0-11.3,3.4-11.3,9.9c0,6.3,4.1,10.2,11.1,10.2
		C68.6,61.8,70.6,61.5,72.6,60.8"/>
	<path class="st0" d="M165.4,66l2.3,4.1v2.7h1.2v-2.7l2.3-4.1h-1.3l-1.5,3.1l-1.5-3.1H165.4z M155.2,66v6.8h1.1v-5
		c0-0.2,0-0.6-0.1-1.2c0.1,0.4,0.1,0.8,0.2,1l1.7,5.2h1.1l1.8-5.2c0-0.1,0.1-0.5,0.2-1c-0.1,0.4-0.1,0.8-0.1,1.2v5h1.2V66h-1.9
		l-1.6,4.7c-0.1,0.3-0.1,0.7-0.2,1.1c0-0.5-0.1-0.9-0.2-1.1l-1.5-4.7H155.2z M148.8,66.9c1,0,1.7,1,1.7,2.5c0,1.6-0.7,2.5-1.7,2.5
		c-1,0-1.7-1-1.7-2.5C147,67.9,147.8,66.9,148.8,66.9 M148.8,65.9c-1.8,0-3,1.3-3,3.5c0,2.2,1.1,3.5,3,3.5c1.9,0,3-1.3,3-3.5
		C151.8,67.2,150.6,65.9,148.8,65.9 M138.4,67.1h0.7c1.5,0,2.2,0.8,2.2,2.4c0,1.5-0.8,2.4-2.2,2.4h-0.7V67.1z M137.2,66v6.8h1.7
		c1.1,0,1.8-0.1,2.4-0.5c0.9-0.6,1.4-1.6,1.4-2.9c0-1.3-0.5-2.3-1.4-2.9c-0.5-0.3-1.3-0.5-2.3-0.5H137.2z M126.3,67.2l1,3.1h-2.1
		L126.3,67.2z M125.6,66l-2.5,6.8h1.2l0.5-1.6h2.8l0.5,1.6h1.3l-2.4-6.8H125.6z M110.5,66l2.3,4.1v2.7h1.2v-2.7l2.3-4.1H115
		l-1.5,3.1l-1.5-3.1H110.5z M103.2,66v1h1.7v5.7h1.2v-5.7h1.7v-1H103.2z M95.4,66v6.8h1.2v-3.3l2.4,3.3h1.6l-2.8-3.6l2.6-3.2H99
		l-2.3,3v-3H95.4z M88,66v6.8h4v-1h-2.7v-2h2.5v-1h-2.5V67h2.6v-1H88z M83,66v4.1c0,1.1-0.2,1.7-1,1.7c-0.2,0-0.4,0-0.6-0.1v1.1
		c0.3,0.1,0.6,0.1,0.9,0.1c1.4,0,1.9-0.8,1.9-2.5V66H83z M75.7,66.9c1,0,1.7,1,1.7,2.5c0,1.6-0.7,2.5-1.7,2.5c-1,0-1.7-1-1.7-2.5
		C74,67.9,74.7,66.9,75.7,66.9 M75.7,65.9c-1.8,0-3,1.3-3,3.5c0,2.2,1.1,3.5,3,3.5c1.8,0,3-1.3,3-3.5C78.7,67.2,77.6,65.9,75.7,65.9
		 M66.4,67H67c0.9,0,1.4,0.3,1.4,1c0,0.6-0.4,1-1.3,1h-0.6V67z M65.2,66v6.8h1.2V70h0.4c0.6,0,0.9,0.2,1.1,0.8l0.7,2.1H70l-0.9-2.4
		c-0.2-0.5-0.3-0.9-0.8-1c0.9-0.2,1.3-0.8,1.3-1.7c0-1.2-0.8-1.8-2.3-1.8H65.2z M59,67h0.6c0.8,0,1.2,0.4,1.2,1.2
		c0,0.7-0.4,1.1-1.3,1.1H59V67z M57.7,66v6.8H59v-2.6h0.7c1.5,0,2.4-0.8,2.4-2.1c0-1.4-0.8-2.1-2.4-2.1H57.7z"/>
</g>
<rect x="7.6" y="35.9" class="st1" width="39.2" height="39.2"/>
<path class="st2" d="M22.2,60.9v6.5h10v-6.5l-4.8-4.8L22.2,60.9z M20.6,49.1L13,56.6v10.8h7.8v-6.9l5.7-5.4L20.6,49.1z M27.2,42.7
	l-5.6,5.5l12,12.3v6.9h7.8V56.6L27.2,42.7z"/>
<g>
	<defs>
		<rect id="SVGID_3_" x="7.6" y="35.9" width="173" height="39.2"/>
	</defs>
	<clipPath id="SVGID_4_">
		<use xlink:href="#SVGID_3_"  style="overflow:visible;"/>
	</clipPath>
	<path class="st3" d="M177.3,44.9h0.6c0.4,0,0.7-0.1,0.7-0.5c0-0.4-0.3-0.5-0.7-0.5h-0.6V44.9z M176.8,43.5h1.2
		c0.7,0,1.1,0.3,1.1,0.9c0,0.5-0.3,0.9-0.8,0.9l0.9,1.4h-0.6l-0.9-1.4h-0.4v1.4h-0.5V43.5z M177.8,47.5c1.3,0,2.2-1,2.2-2.4
		c0-1.3-1-2.4-2.2-2.4c-1.3,0-2.2,1-2.2,2.4C175.6,46.4,176.6,47.5,177.8,47.5 M177.8,42.3c1.5,0,2.8,1.2,2.8,2.8
		c0,1.5-1.2,2.8-2.8,2.8c-1.5,0-2.8-1.2-2.8-2.8C175.1,43.6,176.3,42.3,177.8,42.3"/>
</g>
</svg>
