<?xml version="1.0" encoding="utf-8"?>
<!-- Generator: Adobe Illustrator 24.3.0, SVG Export Plug-In . SVG Version: 6.00 Build 0)  -->
<svg version="1.1" id="Vrstva_1" xmlns="http://www.w3.org/2000/svg" xmlns:xlink="http://www.w3.org/1999/xlink" x="0px" y="0px"
	 viewBox="0 0 190 110" style="enable-background:new 0 0 190 110;" xml:space="preserve">
<style type="text/css">
	.st0{fill:none;stroke:#1D1D1B;stroke-width:0.25;stroke-miterlimit:10;}
	.st1{fill:#1D1D1C;}
	.st2{fill:#D31D1C;}
</style>
<line class="st0" x1="32.3" y1="54.6" x2="32.3" y2="54.6"/>
<g>
	<path class="st1" d="M29.1,83.6C29.3,86.4,31,88,34,88c3,0,4.8-1.6,4.8-3.9c0-1-0.4-1.8-1-2.4c-0.7-0.6-1.7-0.8-2.9-1.1
		c-2.6-0.6-3.8-0.7-3.8-2.3c0-1.2,1-2,2.7-2c1.8,0,2.8,0.9,3,2.6h1.6c0-2.5-1.7-4-4.5-4c-2.7,0-4.5,1.5-4.5,3.7
		c0,2.2,1.4,2.8,4.2,3.5c2.3,0.5,3.4,0.7,3.4,2.2c0,1.4-1.1,2.3-3.1,2.3c-1.9,0-3.2-1.1-3.2-3H29.1L29.1,83.6z M46.1,87.7h1.7v-11
		h3.9v-1.5h-9.6v1.5h3.9V87.7L46.1,87.7z M53.7,87.7h1.8l1.3-3.7h4.9l1.3,3.7h1.8l-4.7-12.5h-1.9L53.7,87.7L53.7,87.7z M57.3,82.5
		l2-5.5l1.9,5.5H57.3L57.3,82.5z M71.9,87.7h1.8L78,75.2h-1.8l-3.5,10.5l-3.6-10.5h-1.8L71.9,87.7L71.9,87.7z M82.8,87.7h9.1v-1.6
		h-7.4v-4.2h6.7v-1.5h-6.7v-3.7h7.2v-1.5h-8.9V87.7L82.8,87.7z M99,86.2v-4.3h3.2c1.9,0,2.8,0.6,2.8,2.1c0,1.5-0.9,2.2-2.6,2.2H99
		L99,86.2z M99,80.5v-3.8h3.1c1.6,0,2.4,0.6,2.4,1.9c0,1.4-0.8,2-2.6,2H99L99,80.5z M97.3,87.7h5.3c2.7,0,4.2-1.5,4.2-3.7
		c0-1.6-0.9-2.7-2.4-3c1.2-0.5,1.8-1.4,1.8-2.7c0-2-1.3-3-3.9-3h-5V87.7L97.3,87.7z M112.1,87.7h1.6V77.6c0.1,0.4,0.3,0.7,0.5,0.9
		l6,9.2h1.8V75.2h-1.6v10.1c-0.1-0.3-0.3-0.7-0.6-1.1l-5.8-9.1h-1.9V87.7L112.1,87.7z M128.1,87.7h1.7V75.2h-1.7V87.7L128.1,87.7z
		 M135.9,87.7h1.6V77.6c0.1,0.4,0.3,0.7,0.5,0.9l6,9.2h1.8V75.2h-1.6v10.1c-0.1-0.3-0.3-0.7-0.6-1.1l-5.8-9.1h-1.9V87.7L135.9,87.7z
		 M156.1,87.7v-5.1l4.4-7.4h-2l-3.3,5.9l-3.3-5.9h-2.1l4.6,7.5v5H156.1L156.1,87.7z"/>
	<polygon class="st2" points="116.5,65.1 130.6,65.1 130.6,52 134.4,48.1 144.8,65.1 160.4,65.1 143.9,38.2 160.4,21.2 143.9,21.2 
		130.6,34.9 130.6,21.2 116.5,21.2 116.5,65.1 	"/>
	<polygon class="st2" points="75.3,65.1 111.3,65.1 111.3,54.4 89.4,54.4 89.4,47.7 107.2,47.7 107.2,37.6 89.4,37.6 89.4,31.7 
		110.5,31.7 110.5,21.2 75.3,21.2 75.3,65.1 	"/>
	<path class="st2" d="M43.5,54V32.3h4c6.7,0,9.2,2.9,9.2,10.9c0,8.2-2.4,10.8-9.4,10.8H43.5L43.5,54z M29.4,65.1h14.4
		c6.8,0,12-0.1,15.8-1.8C67,60,70.9,53.2,70.9,43.2c0-9.5-3.1-16-9.2-19.5c-4-2.3-8.9-2.5-15.2-2.5H29.4V65.1L29.4,65.1z"/>
</g>
</svg>
