<?xml version="1.0" encoding="utf-8"?>
<!-- Generator: Adobe Illustrator 24.3.0, SVG Export Plug-In . SVG Version: 6.00 Build 0)  -->
<svg version="1.1" id="Vrstva_1" xmlns="http://www.w3.org/2000/svg" xmlns:xlink="http://www.w3.org/1999/xlink" x="0px" y="0px"
	 viewBox="0 0 190 110" style="enable-background:new 0 0 190 110;" xml:space="preserve">
<style type="text/css">
	.st0{fill:none;stroke:#1D1D1B;stroke-width:0.25;stroke-miterlimit:10;}
	.st1{fill:#E2001A;}
</style>
<line class="st0" x1="32.3" y1="54.6" x2="32.3" y2="54.6"/>
<g>
	<g>
		<path class="st1" d="M116.3,54.3c1.2-2.2,1.8-4.7,1.8-7.6c0-4.4-1.6-8-4.8-10.7c-2.3-2-5.4-3.2-9.1-3.7l-30.4,5.1v44.4h15.3V62.8
			H94l7.3,19.1h17l-9-21.7C112.8,58.4,115.1,56.5,116.3,54.3z M100.3,50.9c-1.2,0.8-2.7,1.2-4.6,1.2h-6.5v-9.5h7.1
			c3.9,0,5.9,1.6,5.9,4.8C102.1,48.9,101.5,50.1,100.3,50.9z M57.6,61.2c0,2.9-0.1,4.8-0.3,5.8c-0.2,1-0.9,1.9-2.1,2.7
			c-1.2,0.8-2.7,1.2-4.5,1.2c-2.2,0-3.8-0.5-4.8-1.6c-1-1.1-1.5-2.8-1.5-5.2V42.4L28.7,45v20.8c0,5.9,1.9,10.2,5.7,12.9
			c3.8,2.6,8.9,3.9,15.1,3.9c6,0,10.8-1.4,14.5-4.1c3.7-2.7,5.6-7.2,5.6-13.5V38.1l-12.1,2V61.2z M160.7,57.3c-1.7-2.4-3.8-4-6.3-5
			c-2.5-1-6.7-2.1-12.7-3.3c-2.2-0.5-3.6-0.9-4.4-1.5c-0.8-0.5-1.1-1.2-1.1-2.2c0-2.1,1.7-3.1,5-3.1c4,0,6.7,1.7,8,5l12.7-3.8
			c-3.3-8.2-10-12.2-20.1-12.2c-6.7,0-11.8,1.6-15.4,4.7c-3.6,3.1-5.4,7-5.4,11.7c0,3.7,1.2,6.8,3.7,9.5c2.5,2.7,8.1,4.9,16.8,6.6
			c2.3,0.5,3.9,1,4.8,1.6c0.9,0.6,1.3,1.4,1.3,2.5c0,2-1.9,3.1-5.8,3.1c-4.9,0-8-2-9.2-6l-14.2,2.6c2.8,10.1,10.4,15.2,22.5,15.2
			c6.7,0,12-1.6,16.1-4.7c4.1-3.1,6.1-7.2,6.1-12.3C163.2,62.4,162.4,59.7,160.7,57.3z M28.7,42.3l41-9.7v-0.8h-41L28.7,42.3z"/>
	</g>
</g>
</svg>
