<?xml version="1.0" encoding="utf-8"?>
<!-- Generator: Adobe Illustrator 24.3.0, SVG Export Plug-In . SVG Version: 6.00 Build 0)  -->
<svg version="1.1" id="Vrstva_1" xmlns="http://www.w3.org/2000/svg" xmlns:xlink="http://www.w3.org/1999/xlink" x="0px" y="0px"
	 viewBox="0 0 190 110" style="enable-background:new 0 0 190 110;" xml:space="preserve">
<style type="text/css">
	.st0{fill:#00305B;}
	.st1{fill-rule:evenodd;clip-rule:evenodd;fill:#00305B;}
</style>
<g>
	<path class="st0" d="M186.2,42.7c0.4,0,0.8,0.1,1.1,0.2c0.3,0.1,0.7,0.4,0.9,0.6c0.3,0.3,0.5,0.6,0.6,0.9c0.1,0.3,0.2,0.7,0.2,1.1
		c0,0.4-0.1,0.8-0.2,1.1c-0.1,0.3-0.4,0.7-0.6,0.9c-0.3,0.3-0.6,0.5-0.9,0.6c-0.3,0.1-0.7,0.2-1.1,0.2c-0.4,0-0.7-0.1-1.1-0.2
		c-0.3-0.1-0.7-0.4-0.9-0.6c-0.3-0.3-0.5-0.6-0.6-0.9c-0.1-0.3-0.2-0.7-0.2-1.1c0-0.3,0-0.5,0.1-0.8c0.1-0.2,0.2-0.5,0.3-0.7
		c0.3-0.4,0.6-0.8,1-1C185.2,42.8,185.6,42.7,186.2,42.7z M186.2,43.2c-0.3,0-0.6,0.1-0.9,0.2c-0.3,0.1-0.5,0.3-0.7,0.5
		c-0.2,0.2-0.4,0.5-0.5,0.8c-0.1,0.3-0.2,0.6-0.2,0.9c0,0.3,0.1,0.6,0.2,0.9c0.1,0.3,0.3,0.5,0.5,0.8c0.2,0.2,0.5,0.4,0.8,0.5
		c0.3,0.1,0.6,0.2,0.9,0.2c0.3,0,0.6-0.1,0.9-0.2c0.3-0.1,0.6-0.3,0.8-0.5c0.2-0.2,0.4-0.5,0.5-0.7c0.1-0.3,0.2-0.6,0.2-0.9
		c0-0.3-0.1-0.7-0.2-0.9c-0.1-0.3-0.3-0.5-0.5-0.8c-0.2-0.2-0.5-0.4-0.8-0.5C186.8,43.2,186.5,43.2,186.2,43.2z M185,43.9h1.2
		c0.4,0,0.8,0.1,1,0.2c0.2,0.2,0.3,0.4,0.3,0.7c0,0.2-0.1,0.4-0.2,0.5c-0.1,0.1-0.3,0.2-0.5,0.3l0.7,1.4h-0.9l-0.6-1.3h-0.4v1.3H185
		V43.9z M185.7,44.4v0.9h0.4c0.2,0,0.4,0,0.5-0.1c0.1-0.1,0.2-0.2,0.2-0.3c0-0.2-0.1-0.3-0.2-0.4c-0.1-0.1-0.3-0.1-0.5-0.1H185.7z"
		/>
</g>
<g>
	<path class="st0" d="M0.5,65.8h7.6c3.6,0,6.3-0.1,8.3-1c3.9-1.7,5.9-5.3,5.9-10.6c0-5-1.6-8.4-4.8-10.3c-2.1-1.2-4.7-1.3-8-1.3h-9
		V65.8L0.5,65.8z M7.9,59.9V48.5H10c3.5,0,4.8,1.5,4.8,5.7c0,4.3-1.3,5.7-4.9,5.7H7.9L7.9,59.9z M24.7,65.8h18.9v-5.6H32.1v-3.6h9.4
		v-5.3h-9.4v-3.1h11.1v-5.5H24.7V65.8L24.7,65.8z M46,65.8h7.4v-7.4l1.8-1.9l5.7,9.3h8.8l-9.3-14.6l8.3-8.5H60l-6.7,7.7v-7.7H46
		V65.8L46,65.8z"/>
	<polygon class="st1" points="168.5,43.6 168.6,42.7 176,42.7 175.8,43.6 168.5,43.6 	"/>
	<polygon class="st1" points="168.1,45.8 168.3,44.3 175.7,44.3 175.5,45.8 168.1,45.8 	"/>
	<polygon class="st1" points="167.7,48 167.9,46.6 175.3,46.6 175.1,48 167.7,48 	"/>
	<polygon class="st1" points="167.3,50.3 167.5,48.8 174.9,48.8 174.7,50.3 167.3,50.3 	"/>
	<polygon class="st1" points="166.9,52.5 167.1,51.1 174.5,51.1 174.2,52.5 166.9,52.5 	"/>
	<polygon class="st1" points="166.5,54.8 166.7,53.3 174.1,53.3 173.8,54.8 166.5,54.8 	"/>
	<polygon class="st1" points="166.1,57 166.3,55.6 173.7,55.6 173.4,57 166.1,57 	"/>
	<polygon class="st1" points="165.7,59.2 165.9,57.8 173.3,57.8 173,59.2 165.7,59.2 	"/>
	<polygon class="st1" points="165.3,61.5 165.5,60.1 183.4,60.1 183.1,61.5 165.3,61.5 	"/>
	<polygon class="st1" points="164.9,63.7 165.1,62.3 183,62.3 182.8,63.7 164.9,63.7 	"/>
	<polygon class="st1" points="164.5,65.8 164.7,64.5 182.6,64.5 182.4,65.8 164.5,65.8 	"/>
	<polygon class="st1" points="150.9,43.6 151.3,42.7 158.8,42.7 158.9,43.6 150.9,43.6 	"/>
	<polygon class="st1" points="149.7,45.8 150.4,44.3 159,44.3 159.3,45.8 149.7,45.8 	"/>
	<polygon class="st1" points="148.6,48 149.3,46.6 159.5,46.6 159.7,48 148.6,48 	"/>
	<polygon class="st1" points="160.2,51.1 160.5,52.5 154.2,52.5 154,51.1 160.2,51.1 	"/>
	<polygon class="st1" points="147.4,50.3 148.2,48.8 159.8,48.8 160.1,50.3 153.9,50.3 153.9,49.8 153.7,50.3 147.4,50.3 	"/>
	<polygon class="st1" points="146.2,52.5 147,51.1 153.3,51.1 152.7,52.5 146.2,52.5 	"/>
	<polygon class="st1" points="154.4,54.8 154.3,53.3 160.6,53.3 160.8,54.8 154.4,54.8 	"/>
	<polygon class="st1" points="145.1,54.8 145.9,53.3 152.3,53.3 151.7,54.8 145.1,54.8 	"/>
	<polygon class="st1" points="154.7,57 154.5,55.6 161,55.6 161.2,57 154.7,57 	"/>
	<polygon class="st1" points="143.9,57 144.7,55.6 151.3,55.6 150.7,57 143.9,57 	"/>
	<polygon class="st1" points="142.8,59.2 143.5,57.8 150.3,57.8 150.1,58.3 154.9,58.3 154.8,57.8 161.4,57.8 161.7,59.2 
		142.8,59.2 	"/>
	<polygon class="st1" points="141.6,61.5 142.4,60.1 161.8,60.1 162,61.5 141.6,61.5 	"/>
	<polygon class="st1" points="162.6,64.5 162.8,65.8 155.8,65.8 155.7,64.5 162.6,64.5 	"/>
	<polygon class="st1" points="140.5,63.7 141.2,62.3 162.2,62.3 162.4,63.7 155.6,63.7 155.5,63 148.1,63 147.8,63.7 140.5,63.7 	
		"/>
	<polygon class="st1" points="139.4,65.8 140.1,64.5 147.5,64.5 146.9,65.8 139.4,65.8 	"/>
	<polygon class="st1" points="124,43.6 124.2,42.7 144.4,42.7 144.2,43.6 124,43.6 	"/>
	<polygon class="st1" points="123.6,45.8 123.9,44.3 144,44.3 143.7,45.8 123.6,45.8 	"/>
	<polygon class="st1" points="123.2,48 123.4,46.6 143.6,46.6 143.3,48 123.2,48 	"/>
	<polygon class="st1" points="129.3,50.3 129.5,48.8 136.9,48.8 136.7,50.3 129.3,50.3 	"/>
	<polygon class="st1" points="128.9,52.5 129.2,51.1 136.5,51.1 136.3,52.5 128.9,52.5 	"/>
	<polygon class="st1" points="128.5,54.8 128.8,53.3 136.1,53.3 135.9,54.8 128.5,54.8 	"/>
	<polygon class="st1" points="128.2,57 128.4,55.6 135.7,55.6 135.5,57 128.2,57 	"/>
	<polygon class="st1" points="127.8,59.2 128,57.8 135.3,57.8 135.1,59.2 127.8,59.2 	"/>
	<polygon class="st1" points="127.3,61.5 127.6,60.1 135,60.1 134.7,61.5 127.3,61.5 	"/>
	<polygon class="st1" points="127,63.7 127.2,62.3 134.6,62.3 134.4,63.7 127,63.7 	"/>
	<polygon class="st1" points="126.6,65.8 126.8,64.5 134.2,64.5 134,65.8 126.6,65.8 	"/>
	<polygon class="st1" points="105.2,43.6 105.3,42.7 123.2,42.7 123,43.6 105.2,43.6 	"/>
	<polygon class="st1" points="104.8,45.8 105,44.3 122.9,44.3 122.6,45.8 104.8,45.8 	"/>
	<polygon class="st1" points="104.3,48 104.6,46.6 122.5,46.6 122.2,48 104.3,48 	"/>
	<polygon class="st1" points="103.9,50.3 104.2,48.8 111.4,48.8 111.2,50.3 103.9,50.3 	"/>
	<polygon class="st1" points="103.5,52.5 103.8,51.1 111,51.1 111,51.3 120.4,51.3 120.2,52.5 103.5,52.5 	"/>
	<polygon class="st1" points="103.1,54.8 103.4,53.3 120.1,53.3 119.8,54.8 103.1,54.8 	"/>
	<polygon class="st1" points="102.7,57 103,55.6 119.6,55.6 119.5,56.5 110,56.5 109.9,57 102.7,57 	"/>
	<polygon class="st1" points="102.3,59.2 102.6,57.8 109.8,57.8 109.6,59.2 102.3,59.2 	"/>
	<polygon class="st1" points="101.9,61.5 102.2,60.1 109.4,60.1 109.4,60.2 120.8,60.2 120.5,61.5 101.9,61.5 	"/>
	<polygon class="st1" points="101.5,63.7 101.8,62.3 120.4,62.3 120.2,63.7 101.5,63.7 	"/>
	<polygon class="st1" points="101.2,65.8 101.4,64.5 120,64.5 119.8,65.8 101.2,65.8 	"/>
	<polygon class="st1" points="91.2,43.6 91.7,42.7 100.8,42.7 100.6,43.6 91.2,43.6 	"/>
	<polygon class="st1" points="74.6,43.6 74.8,42.7 83.8,42.7 83.9,43.6 74.6,43.6 	"/>
	<polygon class="st1" points="97,64.5 96.8,65.8 90.2,65.8 90.5,64.5 97,64.5 	"/>
	<polygon class="st1" points="97.4,62.3 97.1,63.7 90.6,63.7 90.9,62.3 97.4,62.3 	"/>
	<polygon class="st1" points="97.7,60.1 97.5,61.5 91.1,61.5 91.4,60.1 97.7,60.1 	"/>
	<polygon class="st1" points="98.1,57.8 97.9,59.2 91.6,59.2 91.8,57.8 98.1,57.8 	"/>
	<polygon class="st1" points="98.5,55.6 98.3,57 92,57 92.3,55.6 98.5,55.6 	"/>
	<polygon class="st1" points="98.9,53.3 98.7,54.8 92.5,54.8 92.8,53.3 98.9,53.3 	"/>
	<polygon class="st1" points="99.3,51.1 99,52.5 93,52.5 93.2,51.1 99.3,51.1 	"/>
	<polygon class="st1" points="99.7,48.8 99.4,50.3 93.4,50.3 93.7,48.8 99.7,48.8 	"/>
	<polygon class="st1" points="90.2,45.8 90.9,44.3 100.5,44.3 100.2,45.8 90.2,45.8 	"/>
	<polygon class="st1" points="89.1,48 89.8,46.6 100.1,46.6 99.8,48 89.1,48 	"/>
	<path class="st1" d="M88.1,50.3l0.6-1.4h4.9c-0.2,0.5-0.3,1-0.5,1.4H88.1L88.1,50.3z"/>
	<path class="st1" d="M87,52.5l0.7-1.4h5.2c-0.1,0.3-0.2,0.6-0.3,0.8l-0.3,0.6H87L87,52.5z"/>
	<polygon class="st1" points="86.9,64.5 86.3,65.8 81.2,65.8 81.1,64.5 86.9,64.5 	"/>
	<polygon class="st1" points="87.9,62.3 87.2,63.7 81,63.7 80.9,62.3 87.9,62.3 	"/>
	<polygon class="st1" points="88.9,60.1 88.3,61.5 80.8,61.5 80.7,60.1 88.9,60.1 	"/>
	<polygon class="st1" points="86,54.8 86.7,53.3 92,53.3 91.3,54.8 86,54.8 	"/>
	<path class="st1" d="M85.2,57c0.1-0.2,0.1-0.4,0.1-0.6c0.1-0.3,0.2-0.6,0.3-0.8h5.3L90.3,57H85.2L85.2,57z"/>
	<path class="st1" d="M85,57.8c0,0.1,0,0.1,0,0.1C85,57.9,85,57.9,85,57.8h4.9l-0.7,1.4h-8.7l-0.2-1.4H85L85,57.8z"/>
	<path class="st1" d="M85,55.6c0,0.1,0,0.3,0,0.4c0,0.3,0,0.6,0,0.9c0,0,0,0,0,0.1h-4.7l-0.2-1.4H85L85,55.6z"/>
	<polygon class="st1" points="84.8,53.3 85,54.8 80.1,54.8 80,53.3 84.8,53.3 	"/>
	<path class="st1" d="M84.6,51.1l0.1,1.4h-4.8l-0.1-0.7c0-0.2,0-0.4-0.1-0.7H84.6L84.6,51.1z"/>
	<path class="st1" d="M84.4,48.8l0.1,1.4h-4.8c0-0.5,0-0.9,0-1.4H84.4L84.4,48.8z"/>
	<polygon class="st1" points="74.2,45.8 74.5,44.3 84,44.3 84.1,45.8 74.2,45.8 	"/>
	<polygon class="st1" points="73.8,48 74.1,46.6 84.2,46.6 84.3,48 73.8,48 	"/>
	<polygon class="st1" points="73.5,50.3 73.7,48.8 79.8,48.8 79.6,50.3 73.5,50.3 	"/>
	<polygon class="st1" points="73.1,52.5 73.3,51.1 79.4,51.1 79.2,52.5 73.1,52.5 	"/>
	<polygon class="st1" points="72.7,54.8 72.9,53.3 79.1,53.3 78.9,54.8 72.7,54.8 	"/>
	<polygon class="st1" points="72.3,57 72.5,55.6 78.8,55.6 78.6,57 72.3,57 	"/>
	<polygon class="st1" points="71.9,59.2 72.1,57.8 78.5,57.8 78.3,59.2 71.9,59.2 	"/>
	<polygon class="st1" points="71.5,61.5 71.8,60.1 78.2,60.1 78,61.5 71.5,61.5 	"/>
	<polygon class="st1" points="71.1,63.7 71.4,62.3 77.9,62.3 77.7,63.7 71.1,63.7 	"/>
	<polygon class="st1" points="70.7,65.8 71,64.5 77.6,64.5 77.4,65.8 70.7,65.8 	"/>
</g>
</svg>
