<svg id="Group_1567" data-name="Group 1567" xmlns="http://www.w3.org/2000/svg" xmlns:xlink="http://www.w3.org/1999/xlink" width="53" height="53" viewBox="0 0 53 53">
  <defs>
    <clipPath id="clip-path">
      <rect id="Rectangle_1159" data-name="Rectangle 1159" width="53" height="53" fill="#e10b17"/>
    </clipPath>
  </defs>
  <g id="Group_1566" data-name="Group 1566" clip-path="url(#clip-path)">
    <path id="Path_1910" data-name="Path 1910" d="M51.71,14.89a1.547,1.547,0,0,0-1.692.337L48.3,16.945V10.8a1.554,1.554,0,0,0-1.553-1.555H20.524a1.555,1.555,0,0,0,0,3.11h2.6V22.37a1.553,1.553,0,1,0,3.107,0V12.356H45.193v7.7L38.354,26.9H20.524a1.555,1.555,0,0,0,0,3.11H27.2v7.7a1.548,1.548,0,0,0,.036.328l-7.141,7.147H12.4V30.01h1.669a1.555,1.555,0,0,0,0-3.11H12.4V12.356h1.669a1.555,1.555,0,0,0,0-3.11H10.845A1.554,1.554,0,0,0,9.292,10.8V46.734a1.553,1.553,0,0,0,1.553,1.555h6.139l-1.718,1.719a1.555,1.555,0,0,0,1.1,2.655h34.75a1.553,1.553,0,0,0,1.553-1.555V16.326a1.552,1.552,0,0,0-.959-1.436M30.3,30.01h4.944L30.3,34.959ZM20.115,49.553l19.978-20,0,0,9.465-9.473v7.273H47.5a1.555,1.555,0,0,0,0,3.11h2.064v2.659H47.5a1.555,1.555,0,0,0,0,3.11h2.064V38.89H47.5a1.555,1.555,0,0,0,0,3.11h2.064v2.659H47.5a1.555,1.555,0,0,0,0,3.11h2.064v1.785Z" transform="translate(0.331 0.337)" fill="#e10b17"/>
    <path id="Path_1911" data-name="Path 1911" d="M42.54,31.891a1.55,1.55,0,0,0-1.693.337L32.523,40.56a1.555,1.555,0,0,0,1.1,2.655h8.325A1.553,1.553,0,0,0,43.5,41.659V33.328a1.554,1.554,0,0,0-.959-1.437M40.392,40.1H37.371l3.021-3.024Z" transform="translate(1.142 1.16)" fill="#e10b17"/>
    <path id="Path_1912" data-name="Path 1912" d="M6.415,12.357a1.555,1.555,0,0,0,0-3.11H1.553a1.555,1.555,0,0,0,0,3.11h.877V45.18H1.553a1.555,1.555,0,0,0,0,3.11H6.415a1.555,1.555,0,0,0,0-3.11H5.537V12.357Z" transform="translate(0 0.337)" fill="#e10b17"/>
    <path id="Path_1913" data-name="Path 1913" d="M10.8,7.976a1.553,1.553,0,0,0,1.553-1.555V5.543h32.8v.878a1.553,1.553,0,1,0,3.107,0V1.555a1.553,1.553,0,1,0-3.107,0v.879h-32.8V1.555a1.553,1.553,0,1,0-3.107,0V6.421A1.553,1.553,0,0,0,10.8,7.976" transform="translate(0.329 0)" fill="#e10b17"/>
  </g>
</svg>
